<svg xmlns="http://www.w3.org/2000/svg" width="21" height="16" viewBox="0 0 21 16">
  <g fill="none" fill-rule="evenodd" transform="translate(-1)">
    <rect width="22" height="16"/>
    <path fill="#f0506e" fill-rule="nonzero" d="M17.6694702,6.85714286 L12.7633065,1.95097918 C12.3169931,1.5046657 12.3169931,0.781048584 12.7633065,0.334735107 C13.20962,-0.111578369 13.9332371,-0.111578369 14.3795506,0.334735107 L21.2366935,7.19187796 C21.6830069,7.63819144 21.6830069,8.36180856 21.2366935,8.80812204 L14.3795506,15.6652649 C13.9332371,16.1115784 13.20962,16.1115784 12.7633065,15.6652649 C12.3169931,15.2189514 12.3169931,14.4953343 12.7633065,14.0490208 L17.6694702,9.14285714 L2.14285714,9.14285714 C1.51167457,9.14285714 1,8.63118257 1,8 C1,7.36881743 1.51167457,6.85714286 2.14285714,6.85714286 L17.6694702,6.85714286 Z"/>
  </g>
</svg>
