<svg xmlns="http://www.w3.org/2000/svg" width="64" height="64" viewBox="0 0 64 64">
  <g fill="none">
    <circle cx="32" cy="32" r="32" fill="#FFE3E3"/>
    <path fill="#E36767" d="M18.0015443,48.64 C16.5528615,48.64 15.36,47.4756688 15.36,46.0393901 L15.36,24.2145432 C15.36,23.4511708 15.8830092,22.5011357 16.5270127,22.0933155 L30.5539204,13.2106698 C31.354698,12.6623809 32.647431,12.6638397 33.4460796,13.2106698 L47.4729873,22.0933155 C48.1175106,22.5014648 48.64,23.4530678 48.64,24.2145432 L48.64,46.0393901 C48.64,47.4756821 47.4573393,48.64 45.9984565,48.64 L18.0015443,48.64 Z"/>
    <path fill="#B34343" d="M26.24,34.6701882 C26.24,33.9024084 26.8593652,33.28 27.6295812,33.28 L36.3704188,33.28 C37.1378633,33.28 37.76,33.9011542 37.76,34.6701882 L37.76,48.64 L26.24,48.64 L26.24,34.6701882 Z"/>
  </g>
</svg>
