<svg xmlns="http://www.w3.org/2000/svg" width="220" height="124" viewBox="0 0 220 124">
  <g fill="none" fill-rule="evenodd">
    <rect width="220" height="124"/>
    <g fill="#FFF" fill-rule="nonzero" transform="translate(34 26)">
      <path d="M24.869073 46.44918C29.3243427 46.44918 32.6503708 45.6135638 34.7548483 43.9663781 36.8368034 42.33609 38.2747472 39.51153 39.0284326 35.5715719 39.7311573 31.8888731 39.4634326 29.3174381 38.2330225 27.9297563 36.9749101 26.5124081 34.2548539 25.793595 30.1485449 25.793595L23.0286236 25.793595 19.0814775 46.44918 24.869073 46.44918zM1.58168539 71.8931025C1.25119101 71.8931025.937308989 71.7428756.727196629 71.4829894.516702247 71.2234856.431410112 70.8817275.494550562 70.5516131L10.9552809 15.813945C11.0564663 15.28479 11.5125112 14.90247 12.0427809 14.90247L34.5883034 14.90247C41.6738933 14.90247 46.9478315 16.8591206 50.2627865 20.7187088 53.5954663 24.5985806 54.6246236 30.0219806 53.3214607 36.837945 52.791191 39.6148106 51.8790899 42.1937494 50.6106404 44.5026713 49.3407191 46.81422 47.6623764 48.9530081 45.6214101 50.8608338 43.178309 53.1862763 40.4131966 54.8725275 37.4102865 55.8647438 34.455 56.84382 30.6596236 57.340305 26.1297753 57.340305L17.0006348 57.340305 14.393573 70.9812506C14.2923876 71.5107825 13.8367079 71.8931025 13.3064382 71.8931025L1.58168539 71.8931025zM81.1222416 57.340305C80.7956124 57.340305 80.486118 57.1900837 80.2786966 56.9301975 80.0705449 56.6706881 79.9863371 56.3293069 80.0486685 55.9988156L84.6167135 31.779585C85.0512528 29.4762994 84.9440787 27.8231006 84.3152416 27.1245656 83.9302865 26.6975606 82.7739719 25.9813744 79.3549551 25.9813744L71.0791798 25.9813744 65.3358596 56.4284531C65.2359719 56.957985 64.7857697 57.340305 64.2622865 57.340305L52.7792865 57.340305C52.4526629 57.340305 52.1431742 57.1900837 51.935382 56.9301975 51.7276011 56.6706881 51.6433876 56.32893 51.7057191 55.9988156L62.0323989 1.2611475C62.1322809.7319925 62.5824888.3496725 63.1059719.3496725L74.5889607.3496725C74.9155899.3496725 75.2250899.499899375 75.4328708.75940875 75.6406629 1.01928937 75.7248652 1.36067062 75.6625337 1.69116187L73.1705393 14.90247 82.0733258 14.90247C88.8555843 14.90247 93.4546124 16.1343 96.1332528 18.6685481 98.8636461 21.2538712 99.7155787 25.3876219 98.6657079 30.9563662L93.861073 56.4284531C93.7611966 56.957985 93.3113483 57.340305 92.7875056 57.340305L81.1222416 57.340305zM119.803191 46.44918C124.429399 46.44918 127.883039 45.6135638 130.06827 43.9663781 132.230107 42.3364669 133.723225 39.5119069 134.506208 35.5715719 135.235893 31.8888731 134.957904 29.3174381 133.679899 27.9297563 132.373511 26.5124081 129.549096 25.793595 125.285236 25.793595L117.892118 25.793595 113.793528 46.44918 119.803191 46.44918zM95.6226629 71.8931025C95.2794888 71.8931025 94.9535618 71.7428756 94.7353876 71.4829894 94.5168258 71.2234856 94.4278652 70.8817275 94.493427 70.5516131L105.355534 15.813945C105.460983 15.28479 105.934146 14.90247 106.485152 14.90247L129.895337 14.90247C137.253174 14.90247 142.72909 16.8591206 146.171624 20.7187088 149.632169 24.5982038 150.700433 30.0216094 149.347652 36.837945 148.796264 39.6148106 147.849551 42.1937494 146.532438 44.5026713 145.213781 46.81422 143.471045 48.9530081 141.35177 50.8608338 138.814927 53.1862763 135.943725 54.8725275 132.825584 55.8647438 129.756916 56.84382 125.815916 57.340305 121.112247 57.340305L111.632455 57.340305 108.926511 70.9812506C108.821067 71.5107825 108.347899 71.8931025 107.796899 71.8931025L95.6226629 71.8931025z"/>
    </g>
  </g>
</svg>
