<svg xmlns="http://www.w3.org/2000/svg" width="220" height="124" viewBox="0 0 220 124">
  <g fill="#FFF" fill-rule="evenodd" transform="translate(22 39)">
    <path d="M88.1604734,6.95812669e-05 C88.0395532,0.00154734005 87.917245,0.0304316132 87.8093302,0.0937831323 C87.5938639,0.220388638 87.4581841,0.452902161 87.4581841,0.702933036 L87.4581841,18.6259423 C87.4581841,18.8020497 87.3762476,18.9594163 87.2240897,19.047736 C87.0715478,19.1362774 86.8854026,19.1362774 86.7324886,19.047736 L83.8062918,17.3608596 C83.3703122,17.1092534 82.8377932,17.1094041 82.4017162,17.3608596 L70.7203378,24.1083594 C70.2836082,24.3604916 70.0180486,24.84556 70.0180486,25.3500491 L70.0180486,38.8450487 C70.0180486,39.3491596 70.2839833,39.8107641 70.7203378,40.0633456 L82.4017162,46.8108454 C82.8384458,47.0630515 83.3695621,47.0630515 83.8062918,46.8108454 L95.4876701,40.0633456 C95.9240247,39.8107641 96.1899594,39.3491596 96.1899594,38.8450487 L96.1899594,5.20126624 C96.1899594,4.6894829 95.9109159,4.20919652 95.464261,3.95953804 L88.5116165,0.0703547445 C88.4024348,0.00940310574 88.2813936,-0.00124266853 88.1604734,0.000108002995 L88.1604734,6.95812669e-05 Z M13.0157265,16.8453523 C12.792963,16.8543371 12.5836775,16.8933322 12.3836676,17.0093894 L0.702286305,23.7568892 C0.267018459,24.00872 0,24.4674016 0,24.975189 L0.0233589472,43.0856253 C0.0233589472,43.337533 0.153209297,43.5714445 0.374505053,43.6948491 C0.59140661,43.8247766 0.860622168,43.8247766 1.07679136,43.6948491 L8.00602667,39.7118754 C8.4449593,39.4508973 8.73172213,38.9969417 8.73172213,38.4935786 L8.73172213,30.0358124 C8.73172213,29.5313233 8.99689195,29.0682971 9.43401139,28.8175126 L12.3836174,27.1072492 C12.6037644,26.9798693 12.8401091,26.9198161 13.0859037,26.9198161 C13.3266544,26.9198161 13.5741352,26.9797954 13.788193,27.1072492 L16.737799,28.8175126 C17.1749037,29.0682971 17.4400853,29.5313233 17.4400853,30.0358124 L17.4400853,38.4935786 C17.4400853,38.9969417 17.7297126,39.4538233 18.1657837,39.7118754 L25.095019,43.6948491 C25.3126352,43.8247766 25.5814728,43.8247766 25.7973053,43.6948491 C26.0123966,43.5714445 26.1484485,43.337533 26.1484485,43.0856253 L26.1718074,24.975189 C26.1718074,24.4674016 25.907748,24.00872 25.4695211,23.7568892 L13.7881664,17.0093894 C13.5905899,16.8933322 13.3803771,16.8544966 13.1561075,16.8453523 L13.0156497,16.8453523 L13.0157265,16.8453523 Z M117.984276,17.0093894 C117.740233,17.0090939 117.501101,17.0708671 117.281987,17.1968195 L105.600609,23.9443193 C105.164254,24.1965254 104.898323,24.65813 104.898323,25.1626191 L104.898323,38.6576157 C104.898323,39.1650279 105.183919,39.625134 105.624018,39.8759155 L117.21176,46.4828421 C117.639686,46.7274023 118.162188,46.745694 118.592923,46.5060724 L125.615798,42.5934223 C125.838656,42.4697162 125.989414,42.2386538 125.99035,41.9842724 C125.991827,41.7298171 125.859257,41.5017517 125.639207,41.3751225 L113.887598,34.6276227 C113.667549,34.5020457 113.513046,34.2475904 113.513046,33.995009 L113.513046,29.7778223 C113.513046,29.5256901 113.669421,29.2946247 113.887598,29.1687463 L117.539494,27.0600791 C117.756735,26.9342745 118.023603,26.9342745 118.24178,27.0600791 L121.893675,29.1687463 C122.111853,29.2946247 122.244819,29.5256901 122.244819,29.7778223 L122.244819,33.1047893 C122.244819,33.357294 122.377784,33.5879839 122.595962,33.7138624 C122.815075,33.8401162 123.080074,33.8406393 123.298251,33.7138624 L130.297714,29.6373229 C130.732196,29.3847414 131,28.9219369 131,28.4190261 L131,25.1623826 C131,24.659392 130.733132,24.1966643 130.297714,23.9440828 L118.686563,17.196583 C118.467913,17.0697322 118.22832,17.0094544 117.984276,17.009153 L117.984276,17.0093894 Z M83.0571842,27.0837823 C83.1180858,27.0837823 83.189775,27.0987668 83.2444604,27.1302638 L87.2474988,29.449754 C87.3561194,29.5127301 87.434775,29.6287135 87.434775,29.7542905 L87.434775,34.393197 C87.434775,34.5191493 87.3568695,34.6352066 87.2474988,34.6978103 L83.2444604,37.0172237 C83.1354647,37.0794521 83.0023128,37.0794521 82.8933172,37.0172237 L78.8902788,34.6978103 C78.7812831,34.6348342 78.7030026,34.5191493 78.7030026,34.393197 L78.7030026,29.7542905 C78.7030026,29.6287135 78.7816582,29.5130316 78.8902788,29.449754 L82.8933172,27.1306391 C82.9480025,27.099151 82.9962738,27.0841577 83.0571842,27.0841577 L83.0571842,27.0837823 Z"/>
    <path d="M154.385594,17 C153.979146,17 153.583984,17.0836483 153.234395,17.2805758 L142.168782,23.640275 C141.45269,24.0505883 141.017583,24.8261727 141.017583,25.6510643 L141.017583,38.3471203 C141.017583,39.1715635 141.45269,39.9462483 142.168782,40.3578358 L145.058528,42.0179422 C146.462521,42.7065837 146.980328,42.6959595 147.61936,42.6959595 C149.698098,42.6959595 150.885007,41.4407039 150.885007,39.2589518 L150.885007,26.7266028 C150.885007,26.5494283 150.730887,26.4226079 150.556093,26.4226079 L149.169957,26.4226079 C148.992341,26.4226079 148.84104,26.5494283 148.84104,26.7266028 L148.84104,39.2589518 C148.84104,40.2260012 147.828925,41.1985131 146.186234,40.381252 L143.179021,38.6276961 C143.072827,38.5700861 142.991067,38.4684045 142.991067,38.3471203 L142.991067,25.6510643 C142.991067,25.5305293 143.071888,25.4081243 143.179021,25.347146 L154.221137,19.0107892 C154.324509,18.9516809 154.447616,18.9516809 154.550051,19.0107892 L165.592168,25.347146 C165.697421,25.4099943 165.780118,25.526863 165.780118,25.6510643 L165.780118,38.3471203 C165.780118,38.4684045 165.718997,38.5926057 165.615661,38.6510415 L154.550051,44.9873983 C154.455135,45.0435129 154.324509,45.0435129 154.221137,44.9873983 L151.378378,43.3039465 C151.293799,43.2545657 151.178211,43.2583057 151.096451,43.3039465 C150.311758,43.7466573 150.164215,43.7981322 149.428387,44.0521476 C149.247016,44.1149959 148.971666,44.2127872 149.522364,44.519773 L153.234395,46.6941926 C153.587742,46.8977004 153.981499,46.9981108 154.385594,46.9981108 C154.795326,46.9981108 155.183446,46.8977004 155.536793,46.6941926 L166.602403,40.3578358 C167.318498,39.9433313 167.753602,39.1715635 167.753602,38.3471203 L167.753602,25.6510643 C167.753602,24.8261727 167.318498,24.0523108 166.602403,23.640275 L155.536793,17.2805758 C155.190023,17.0836483 154.792042,17 154.385594,17 Z M49.1330709,17.2571566 C48.88878,17.2571566 48.6470321,17.3185095 48.4282559,17.4442062 L36.7048179,24.154665 C36.2665158,24.4060582 36,24.8908173 36,25.3938339 L36,38.8614335 C36,39.3650489 36.2668003,39.8253417 36.7048179,40.07726 L48.4282559,46.8110613 C48.866558,47.0629796 49.3995867,47.0629796 49.8378888,46.8110613 L61.5613268,40.07726 C61.9988761,39.8253417 62.2661447,39.3650489 62.2661447,38.8614335 L62.2661447,25.3938339 C62.2661447,24.8900711 61.9996289,24.4060582 61.5613268,24.154665 L49.8378888,17.4442062 C49.6191126,17.3185095 49.3773617,17.2571566 49.1330709,17.2571566 Z M170.807805,17.3274879 L170.807805,17.6548253 L171.724067,17.6548253 L171.724067,20.0630561 L172.099968,20.0630561 L172.099968,17.6548253 L173.039723,17.6548253 L173.039723,17.3274879 L170.807805,17.3274879 Z M173.368637,17.3274879 L173.368637,20.0630561 L173.721045,20.0630561 L173.721045,18.4497881 C173.721045,18.383946 173.724038,18.2821169 173.721045,18.1458698 C173.71654,18.0070773 173.721045,17.886094 173.721045,17.8184557 L173.721045,17.7481274 L174.496343,20.0628319 L174.872244,20.0628319 L175.671036,17.7481274 C175.671036,17.8953732 175.651268,18.0375311 175.647593,18.1689881 C175.646111,18.2969293 175.647593,18.393001 175.647593,18.4495639 L175.647593,20.0628319 L176,20.0628319 L176,17.3272637 L175.483136,17.3272637 L174.684344,19.6420449 L173.909046,17.3272637 L173.368688,17.3272637 L173.368637,17.3274879 Z M157.34582,26.0720754 C154.194822,26.0720754 152.318133,27.4066406 152.318133,29.6260256 C152.318133,32.0336606 154.180727,32.695143 157.204857,32.9929263 C160.822914,33.3454054 161.104838,33.8740828 161.104838,34.5828518 C161.104838,35.8122195 160.119975,36.3364077 157.792205,36.3364077 C154.867688,36.3364077 154.224895,35.6098325 154.00969,34.1619911 C153.98435,34.0067373 153.864029,33.8814153 153.704273,33.8814153 L152.271146,33.8814153 C152.094473,33.8814153 151.942232,34.0326253 151.942232,34.2087527 C151.942232,36.0620436 152.955286,38.2537474 157.792205,38.2537474 C161.293731,38.2537474 163.313263,36.8858881 163.313263,34.4893285 C163.313263,32.1134923 161.681849,31.4758007 158.285576,31.0289016 C154.85359,30.5769884 154.526558,30.3558218 154.526558,29.5559215 C154.526558,28.8956337 154.803784,28.0126839 157.34582,28.0126839 C159.616267,28.0126839 160.455469,28.4999854 160.799418,30.0235468 C160.829491,30.1667518 160.956359,30.2807005 161.104838,30.2807005 L162.537965,30.2807005 C162.626301,30.2807005 162.71182,30.2268305 162.772905,30.163758 C162.833048,30.0964206 162.875337,30.0205531 162.866879,29.9300206 C162.645097,27.3061565 160.886815,26.0720754 157.34582,26.0720754 Z M119.238771,29.2753457 C119.191932,29.2753457 119.140096,29.2753457 119.097807,29.2985289 L116.842396,30.6078787 C116.757817,30.6557641 116.701432,30.744872 116.701432,30.8416899 L116.701432,33.4136277 C116.701432,33.5104456 116.757817,33.5991819 116.842396,33.6474419 L119.097807,34.9333725 C119.182383,34.9820041 119.272601,34.9820041 119.356238,34.9333725 L121.611649,33.6474419 C121.695288,33.5995565 121.752613,33.5104456 121.752613,33.4136277 L121.752613,30.8416899 C121.752613,30.744872 121.695327,30.656062 121.611649,30.6078787 L119.356238,29.2985289 C119.314437,29.2738415 119.285645,29.2753457 119.238771,29.2753457 Z"/>
  </g>
</svg>
