<svg xmlns="http://www.w3.org/2000/svg" width="220" height="124" viewBox="0 0 220 124">
  <g fill="#FFF" transform="translate(39 42)">
    <path d="M41.1017143 15.6968681L41.1020571 15.6951682C41.1020571 15.6951682 39.9528 19.7340409 39.9528 19.7340409 39.9528 19.7340409 41.1016457 15.6968681 41.1016457 15.6968681L41.1017143 15.6968681zM47.0125714 24.4670109C47.0125714 24.4670109 45.7461257 24.4576182 45.7461257 24.4576182 45.7461257 24.4576182 47.0125714 24.4670109 47.0125714 24.4670109zM46.6868571 30.4965488L46.6882286 30.4965488C46.6882286 30.4965488 39.1004571 30.5309604 39.1004571 30.5309604 39.1004571 30.5309604 46.6872 30.4965488 46.6872 30.4965488L46.6868571 30.4965488zM48.2777143 24.4744903C48.2777143 24.4744903 47.0108229 24.4650976 47.0108229 24.4650976 47.0108229 24.4650976 48.2777143 24.4744903 48.2777143 24.4744903zM47.352 29.9838704C47.352 29.9838704 48.6737143 24.9855954 48.6737143 24.9855954 48.6737143 24.9855954 47.352 29.9848903 47.352 29.9848903L47.352 29.9842104 47.352 29.9838704zM75.288 6.96603554C75.288 6.96603554 72.8258057 18.4435055 72.8258057 18.4435055 72.8258057 18.4435055 75.288 6.96603554 75.288 6.96603554zM68.9588571 6.96603554C68.9588571 6.96603554 67.0897029 15.5401408 67.0897029 15.5401408 67.0897029 15.5401408 68.9588571 6.96535559 68.9588571 6.96535559L68.9588571 6.96603554z"/>
    <path d="M74.8662857 6.44961738L69.6013714 6.44961738C69.30924 6.44961738 69.0192 6.68201915 68.9568343 6.96504962 68.9568343 6.96504962 67.0877143 15.5398348 67.0877143 15.5398348 67.0877143 15.5398348 65.21856 24.11462 65.21856 24.11462 65.1566194 24.3976504 64.8669943 24.6292363 64.57488 24.6292363L60.8483657 24.6292363C57.1616229 24.6292363 57.5880343 22.1010311 58.3430743 18.6365419 58.3506171 18.6016947 58.35816 18.5676532 58.3656686 18.5319629 58.3656686 18.5319629 58.4485337 18.0953703 58.4485337 18.0953703 58.4535394 18.0671526 58.4594023 18.0389247 58.4639966 18.013199 58.4639966 18.013199 58.6322434 17.124239 58.6322434 17.124239 58.6322434 17.124239 58.8126274 16.1713982 58.8126274 16.1713982 58.8674571 15.8842133 58.9507406 15.4642215 59.005152 15.2003009 59.005152 15.2003009 59.854752 11.0835745 59.854752 11.0835745 59.854752 11.0835745 60.7052091 6.96684807 60.7052091 6.96684807 60.7638034 6.68298467 60.5721154 6.44974997 60.2799977 6.44974997L54.8758834 6.44974997C54.5837486 6.44974997 54.2945349 6.68298467 54.2347063 6.96603214 54.2347063 6.96603214 53.0728663 12.4324492 53.0728663 12.4324492 53.0728663 12.4324492 51.9110263 17.8981863 51.9110263 17.8981863 51.9099977 17.9005661 51.9096549 17.9039998 51.909312 17.9064816 51.909312 17.9064816 51.8013326 18.4144685 51.8013326 18.4144685 50.4628869 24.4734575 50.8178126 30.2512893 58.0917326 30.4321547 58.2106011 30.4355544 58.3026754 30.4364043 58.3026754 30.4364043L69.720504 30.4364043C70.0126389 30.4364043 70.3018526 30.2039991 70.3629497 29.9201222 70.3629497 29.9201222 72.825144 18.4436721 72.825144 18.4436721 72.825144 18.4436721 75.2873383 6.96620212 75.2873383 6.96620212 75.3480274 6.68233533 75.1584309 6.44991996 74.8663097 6.44991996L74.8662857 6.44961738zM95.8697143 24.6891394C96.162264 24.6891394 96.35352 24.9215446 96.2949257 25.2054216 96.2949257 25.2054216 95.7834857 27.6830048 95.7834857 27.6830048M95.2731429 30.162016C95.2731429 30.162016 95.7841714 27.6827668 95.7841714 27.6827668 95.7841714 27.6827668 95.2727314 30.1628319 95.2727314 30.1628319 95.2727314 30.1621519 95.2730709 30.1621519 95.2730709 30.1621519L95.2731429 30.162016zM94.632 30.6837076C94.6326857 30.6837076 94.6337143 30.6828537 94.6344 30.6828537 93.0850286 30.6984798 88.4290286 30.742267 84.9294857 30.742267 89.1884571 30.742267 94.6316571 30.6838955 94.6316571 30.6838955L94.632 30.6837076zM81.7885714 21.497818C81.7842857 21.226401 82.0957714 20.7590919 82.3883314 20.7590919 82.3883314 20.7590919 81.7308343 20.7483147 81.7308343 20.7483147 81.4345166 23.7031513 81.7885886 21.497818 81.7885886 21.497818L81.7885714 21.497818zM85.4346323 30.72909C85.3927483 30.72909 85.34977 30.72909 85.307856 30.7299439 85.34974 30.72909 85.3927268 30.72909 85.4346323 30.72909z"/>
    <path d="M95.8697143 24.6891394C96.162264 24.6891394 96.35352 24.9215446 96.2949257 25.2054216 96.2949257 25.2054216 95.7834857 27.6830048 95.7834857 27.6830048 95.7834857 27.6830048 95.7001954 28.0872321 95.7001954 28.0872321M87.9070896 30.7233105L87.8803543 30.7233105 87.9070896 30.7233105zM86.6279972 30.7273901L86.5342217 30.7273901 86.6279972 30.7273901zM86.2460343 30.7284101C86.193675 30.7284101 86.1423113 30.7284101 86.0909691 30.7292639 86.1423071 30.7284101 86.1936492 30.7284101 86.2460343 30.7284101zM85.8410976 30.72909L85.7049017 30.72909 85.8410976 30.72909zM86.6139703 30.7273901C86.4803922 30.7273901 86.3468098 30.728244 86.2148023 30.728244 86.3468098 30.728244 86.4803922 30.7273901 86.6139703 30.7273901zM87.8811429 30.7233105C87.4550743 30.7254452 87.0298629 30.7275799 86.6109257 30.7286472 87.0298629 30.7277934 87.45552 30.7256587 87.8811429 30.7233105zM94.6354286 30.6825138L94.6357714 30.6825138C93.5002971 30.6939985 90.6963429 30.720042 87.9 30.7335889 90.6949029 30.7211222 93.4995429 30.6940113 94.6354286 30.6825138zM95.2731892 30.1630359C95.2731892 30.1630359 95.7495526 28.0871641 95.7495526 28.0871641 95.7495526 28.0871641 95.2727314 30.1646677 95.2727314 30.1646677 95.2727314 30.1639878 95.2731129 30.1639878 95.2731129 30.1629679L95.2731892 30.1630359zM86.1613635 30.72909L85.8135291 30.72909 86.1613635 30.72909zM85.400868 30.7297699L84.9304457 30.7297699 85.400868 30.7297699zM85.77857 30.72909L85.4076823 30.72909 85.77857 30.72909zM8.68937143 21.560033C8.68937143 21.560033 9.50715429 17.9651643 9.50715429 17.9651643 9.50715429 17.9651643 8.57218286 22.0744113 8.57218286 22.0744113 8.57218286 22.0744113 7.67485714 26.2601521 7.67485714 26.2601521 7.67485714 26.2601521 8.46126857 22.5908294 8.46126857 22.5908294 8.52195429 22.3069627 8.62491429 21.842992 8.689368 21.559965L8.68937143 21.560033zM18.4779429 6.38910229L12.696 6.38910229C12.4034537 6.38910229 12.1117371 6.62067452 12.0464571 6.90286866 12.0464571 6.90286866 11.4981943 9.30242822 11.4981943 9.30242822 11.4981943 9.30242822 10.9499314 11.7028377 10.9499314 11.7028377 10.8854777 11.985042 11.0717246 12.2166041 11.3642743 12.2166041L17.1911314 12.2166041C17.4832629 12.2166041 17.7737143 11.9850318 17.8364914 11.7019878 17.8364914 11.7019878 18.3663429 9.30242822 18.3663429 9.30242822 18.3663429 9.30242822 18.8961943 6.90453452 18.8961943 6.90453452L18.8961943 6.90385458C18.9585566 6.62081731 18.7706366 6.38923828 18.47808 6.38923828L18.4779429 6.38910229zM17.2196571 14.3713155L17.2196571 14.3706355C17.2196571 14.3706355 15.5237829 22.1502252 15.5237829 22.1502252 15.5237829 22.1502252 17.2196571 14.3713155 17.2196571 14.3713155zM.423017143 40.147553C.423017143 40.147553 3.33764571 40.1944654 5.19044571 40.1944654 3.78294857 40.1944654 1.45844571 40.1621885.420617143 40.1465411.421645714 40.1465411.422331429 40.147395.42336 40.147395L.423017143 40.147553zM10.3248 14.3702956C10.3248 14.3702956 9.50616 17.9651643 9.50616 17.9651643 9.50616 17.9651643 10.3248 14.3702956 10.3248 14.3702956z"/>
    <path d="M16.8013714 13.8559172L10.9738286 13.8559172C10.6816971 13.8559172 10.3895657 14.0874963 10.3251086 14.3705335 10.3251086 14.3705335 9.50646857 17.9654023 9.50646857 17.9654023 9.50646857 17.9654023 8.68868571 21.560271 8.68868571 21.560271 8.624232 21.8433082 8.521272 22.3072924 8.46058629 22.5911354 8.46058629 22.5911354 7.67417486 26.2604581 7.67417486 26.2604581 7.67417486 26.2604581 6.88817486 29.9297808 6.88817486 29.9297808 6.82707086 30.2128146 6.70151314 30.6701388 6.60776229 30.9448705 6.60776229 30.9448705 5.51919086 34.1569982 3.68895086 34.1204852 3.61110514 34.1187853 3.53535086 34.1181054 3.46043657 34.1162355 2.573568 34.0996109 1.87674514 34.0871679 1.87674514 34.0871679L1.87537371 34.0871679C1.58366057 34.0829182 1.29025371 34.3087789 1.22205943 34.5901571 1.22205943 34.5901571.617705143 37.109251.617705143 37.109251.617705143 37.109251.0141737143 39.627495.0141737143 39.627495-.0536262857 39.908863.129689143 40.1412613.420150857 40.1462589 1.45811657 40.1587019 3.78258514 40.1844208 5.18997943 40.1844208 9.76163657 40.1844208 12.1715794 37.6728063 13.7164937 30.44523 13.7164937 30.44523 15.5245166 22.1502422 15.5245166 22.1502422 15.5245166 22.1502422 17.2203909 14.3706525 17.2203909 14.3706525 17.2819166 14.0876221 17.0931566 13.8560362 16.801008 13.8560362L16.8013714 13.8559172zM99.5828571 30.4360337C99.2907257 30.4360337 99.1011429 30.2036286 99.1626514 29.9197516 99.1626514 29.9197516 103.546423 9.55880144 103.546423 9.55880144M105.675429 29.9189356C105.675429 29.9189356 107.448309 21.2285598 107.448309 21.2285598 107.448309 21.2285598 105.675429 29.9189356 105.675429 29.9189356z"/>
    <path d="M99.2262857 30.1779947C99.1907143 30.0360596 99.2116114 29.6882983 99.273576 29.4044213 99.273576 29.4044213 101.354067 19.7396845 101.354067 19.7396845 101.354067 19.7396845 99.1622503 29.9198196 99.1622503 29.9198196 99.100728 30.2036796 99.2903211 30.4361017 99.582456 30.4361017L100.114845 30.4361017C99.8222914 30.4361017 99.2614731 30.3198992 99.226296 30.1779709L99.2262857 30.1779947zM105.329143 30.3197632C105.170098 30.3836746 104.800114 30.4359658 104.507589 30.4359658L105.039943 30.4359658C105.332074 30.4359658 105.619166 30.2035606 105.676937 29.9188677 105.676937 29.9188677 105.782403 29.4025855 105.782403 29.4025855 105.724231 29.6864489 105.488602 30.2558483 105.329146 30.3197632L105.329143 30.3197632zM106.563429 25.5737477C106.563429 25.5737477 107.346069 21.7381785 107.346069 21.7381785 107.345726 21.7405583 107.345383 21.7439921 107.344697 21.7456579 107.344697 21.7456579 106.563326 25.5737477 106.563326 25.5737477L106.563429 25.5737477zM123.881832 10.9226349C123.881832 10.9226349 124.153833 11.9120228 124.153833 11.9120228 124.228791 12.1950532 124.020895 12.4249732 123.692311 12.4257891M105.781714 29.4028575C105.781714 29.4028575 106.562263 25.5740877 106.562263 25.5740877 106.562263 25.5740877 105.781714 29.4028575 105.781714 29.4028575zM123.620571 9.90917705C123.620571 9.90917705 123.919694 10.9226349 123.919694 10.9226349 123.919694 10.9226349 123.620571 9.90917705 123.620571 9.90917705zM107.345139 21.7385185C107.403322 21.4546551 107.499583 20.9948288 107.560272 20.7134676 107.560272 20.7134676 108.396055 16.8306422 108.396055 16.8306422 108.396055 16.8306422 107.449358 21.2288658 107.449358 21.2288658 107.449358 21.2288658 107.345139 21.7385185 107.345139 21.7385185zM103.618286 9.22515248C103.560113 9.49905808 103.485614 9.84516024 103.436225 10.0742677 103.436225 10.0742677 101.355734 19.7396845 101.355734 19.7396845 101.355734 19.7396845 103.547551 9.55886944 103.547551 9.55886944 103.547551 9.55886944 103.618286 9.22515248 103.618286 9.22515248z"/>
    <path d="M124.100571,11.9119548 C124.100571,11.9119548 123.859083,10.9225669 123.859083,10.9225669 C123.859083,10.9225669 123.620102,9.90910906 123.620102,9.90910906 C123.620102,9.90910906 123.499149,9.39615862 123.499149,9.39615862 C123.0258,7.57261439 121.636269,6.52016167 118.619263,6.52016167 C118.619263,6.52016167 113.92212,6.51519807 113.92212,6.51519807 C113.92212,6.51519807 109.596291,6.51023447 109.596291,6.51023447 L104.728749,6.51023447 C104.436617,6.51023447 104.1474,6.74180671 104.08716,7.02566671 L104.086817,7.02566671 C104.086817,7.02566671 103.871698,8.03412699 103.871698,8.03412699 C103.871698,8.03412699 103.617655,9.22518648 103.617655,9.22518648 C103.617655,9.22518648 103.546923,9.55885244 103.546923,9.55885244 C103.546923,9.55885244 101.355106,19.7396675 101.355106,19.7396675 C101.355106,19.7396675 99.2746149,29.4044043 99.2746149,29.4044043 C99.2126777,29.6882677 99.1917497,30.0360392 99.227328,30.1779777 C99.2624709,30.319906 99.8233166,30.4361085 100.115842,30.4361085 L104.507157,30.4361085 C104.799706,30.4361085 105.169694,30.3838174 105.328711,30.319906 C105.488167,30.2559945 105.723785,29.6866053 105.781968,29.4027283 C105.781968,29.4027283 106.562517,25.5739585 106.562517,25.5739585 C106.562517,25.5739585 107.343888,21.7458687 107.343888,21.7458687 C107.344231,21.7441689 107.344574,21.7409051 107.345259,21.7383893 C107.345259,21.7383893 107.449474,21.2287706 107.449474,21.2287706 C107.449474,21.2287706 108.396171,16.830547 108.396171,16.830547 C108.396171,16.830547 109.2324,12.9460218 109.2324,12.9460218 C109.294347,12.6638208 109.582286,12.4330713 109.873989,12.4322554 C109.873989,12.4322554 123.691131,12.4256259 123.691131,12.4256259 C123.982845,12.424946 124.167429,12.1948798 124.10088,11.9118596 L124.100571,11.9119548 Z"/>
    <path d="M141.888 2.96605566C141.595454 2.96809549 141.117086 2.96989735 140.824526 2.96989735L136.402011 2.96989735C136.109458 2.96989735 135.73488 3.16578267 135.569966 3.40523207 135.569966 3.40523207 125.790651 17.6116609 125.790651 17.6116609 125.625333 17.8515353 125.436994 17.815845 125.372126 17.5336406 125.372126 17.5336406 124.652674 14.4036843 124.652674 14.4036843 124.587802 14.1206504 124.294834 13.8899179 124.002686 13.8899179L117.715714 13.8899179C117.423165 13.8899179 117.249909 14.1173425 117.329829 14.3962389 117.329829 14.3962389 120.146949 24.1820059 120.146949 24.1820059 120.227304 24.4608921 120.233167 24.9190662 120.160766 25.1996115 120.160766 25.1996115 118.932823 29.9357677 118.932823 29.9357677 118.86 30.2171425 119.039966 30.4470523 119.332526 30.4470523L125.546126 30.4470523C125.838257 30.4470523 126.137074 30.2171391 126.209486 29.9357677 126.209486 29.9357677 127.437874 25.1996115 127.437874 25.1996115 127.510282 24.9190696 127.713686 24.4990982 127.889897 24.267509 127.889897 24.267509 143.76624 3.37314207 143.76624 3.37314207 143.942445 3.14156984 143.847017 2.9531401 143.554886 2.95524793 143.554886 2.95524793 141.888326 2.96602506 141.888326 2.96602506L141.888 2.96605566zM91.9405714 15.2219266C91.9405714 15.2219266 91.9402286 15.216113 91.9402286 15.216113 91.903416 15.5306827 91.6108491 15.7614288 91.3186971 15.7614288L83.3479543 15.7614288C83.0725611 15.7614288 82.9323429 15.5755047 82.9729371 15.3464245 82.9753371 15.339795 82.9763657 15.3339815 82.98048 15.3281679 82.98048 15.3281679 82.9777371 15.3288479 82.9754743 15.3305478 82.9771886 15.3214025 82.9771886 15.3131412 82.97976 15.3039959 82.97976 15.3039959 82.9948457 15.2483832 83.0161886 15.16953 83.7774686 13.1625706 85.3281429 11.8453474 88.24236 11.8453474 91.5231943 11.8453474 92.1636171 13.4348206 91.94076 15.2218178L91.9405714 15.2219266zM89.6022857 6.09910579C79.3710857 6.09910579 76.9467429 12.2570268 75.5866286 18.4720632 74.2264114 24.8067699 74.3436 30.7297699 84.9305143 30.7297699L85.3063543 30.7297699C85.3398171 30.72909 85.3741611 30.72909 85.4076411 30.72909L86.0906811 30.72909C86.1316971 30.7284101 86.1727166 30.7284101 86.2145657 30.7284101 86.3200354 30.7284101 86.42676 30.7277301 86.5334811 30.7277301L86.6084023 30.7277301C87.0273394 30.7270502 87.4525851 30.7250103 87.8786194 30.7234805L87.8999794 30.7234805C90.6961509 30.7127033 93.500208 30.691965 94.6360937 30.6828129 94.926552 30.6785633 95.2107223 30.4462601 95.2705851 30.1648989 95.2705851 30.1648989 95.6991566 28.0873953 95.6991566 28.0873953 95.6991566 28.0873953 95.7824469 27.683168 95.7824469 27.683168 95.7824469 27.683168 96.2938869 25.2055848 96.2938869 25.2055848 96.3524811 24.9217214 96.1612149 24.6893026 95.8686754 24.6893026L86.3506183 24.6893026C82.5651326 24.6893026 81.440904 23.6916195 81.8550754 20.7592211L97.0700469 20.7592211C97.0700469 20.7592211 97.0686754 20.7609209 97.0686754 20.7609209 97.0725497 20.7609209 97.0758069 20.7592211 97.0791326 20.7592211 97.3210389 20.7549714 97.5445269 20.5899012 97.6332583 20.3699526 97.650024 20.327626 97.6642526 20.2836302 97.6700709 20.2379821 97.6700709 20.2379821 97.6683566 20.239682 97.6683566 20.239682 99.9275794 11.7900066 99.2796823 6.09954775 89.6016137 6.09954775L89.6022857 6.09910579zM41.2457143 15.1896292C41.2457143 15.1896292 41.1017383 15.6951002 41.1017383 15.6951002 41.1017383 15.6968001 41.1013954 15.6968001 41.1013954 15.6968001 41.1013954 15.6968001 39.9525497 19.7339729 39.9525497 19.7339729 39.9525497 19.7339729 38.8041154 23.7704659 38.8041154 23.7704659 38.7245966 24.0493487 38.4207326 24.2776028 38.1277611 24.2776028L32.0468469 24.2776028C27.4343897 24.2776028 26.3111897 20.7004126 27.4343897 15.4240402 28.5573154 10.0273175 30.7591783 6.67246933 35.2988469 6.33283685 41.502504 5.86884244 42.7436469 10.1956038 41.245704 15.1897992L41.2457143 15.1896292zM45.4158857 23.9670379C45.4158857 23.9670379 48.2827886 17.0645772 48.9339429 13.0773803 49.8253714 7.74015281 47.1305143 0 36.7213714 0 26.3708571 0 21.8766857 7.38998118 20.1617143 15.4235302 18.4470171 23.5152145 20.6936571 30.6117995 30.9846857 30.5536642 30.9846857 30.5536642 39.1032 30.5237806 39.1032 30.5237806 39.1032 30.5237806 46.6909714 30.4963789 46.6909714 30.4963789 46.9831029 30.493999 47.28192 30.2639737 47.3564229 29.9842444 47.3564229 29.9842444 48.6781371 24.9849495 48.6781371 24.9849495 48.7518 24.7044042 48.5730891 24.4736649 48.2809714 24.471999 48.2809714 24.471999 47.01408 24.4645196 47.01408 24.4645196 47.01408 24.4645196 45.7476343 24.4570402 45.7476343 24.4570402 45.4990286 24.4553404 45.3567429 24.2960157 45.38688 24.0843624 45.3923314 24.0462005 45.4011086 24.0071717 45.4178743 23.9665008L45.4158857 23.9670379z"/>
    <path d="M96.6514286,19.3471523 C96.6514286,19.538057 96.4953189,19.6932782 96.3023657,19.6932782 C96.1098446,19.6932782 95.9533029,19.5380672 95.9533029,19.3471523 C95.9533029,19.156251 96.1098343,19.0018763 96.3023657,19.0018763 C96.4953051,19.0018763 96.6514286,19.1562578 96.6514286,19.3471523 Z"/>
  </g>
</svg>
