<svg xmlns="http://www.w3.org/2000/svg" width="220" height="124" viewBox="0 0 220 124">
  <g fill="#FFF" transform="translate(75 14)">
    <path d="M7 0L11.3528219 0 11.3528219 4.29565217 15.3649882 4.29565217 15.3649882 0 19.7178101 0 19.7178101 13 15.3649882 13 15.3649882 8.66666667 11.3906725 8.66666667 11.3906725 13 7 13M25.4711051 4.33333333L21.6292666 4.33333333 21.6292666 0 33.6846908 0 33.6846908 4.33333333 29.823927 4.33333333 29.823927 13 25.4711051 13M35.5961473 0L40.1571477 0 42.958094 4.57826087 45.7590402 0 50.3200406 0 50.3200406 13 45.9672187 13 45.9672187 6.55652174 42.9202433 11.2289855 39.873268 6.55652174 39.873268 13 35.5961473 13M52.4775262 0L56.8303481 0 56.8303481 8.70434783 63 8.70434783 63 13 52.4775262 13M34 59.128255L34 59.1676391 44.8260105 59.1676391 43.801406 70.4122909 34.5585737 72.8565634 25.1964912 70.3832103 24.5789474 63.4702682 15.7789474 63.4702682 17.0140351 77.0485814 34 81.7247065 34 82 34.501638 81.8628042 35 82 35 81.7265044 51.9789104 77.0828471 54.3954306 50.5149747 35 50.5149747 35 50.5013603 23.4210526 50.5013603 22.6105263 41.6459386 34 41.6459386 34 41.6526643 55.1880492 41.6526643 56 33 34 33 13 33 15.3929825 59.128255 34 59.128255zM6.27618523 89.2265435L0 19 69 19 62.7238148 89.1886242 34.4429438 97 6.27618523 89.2265435z"/>
  </g>
</svg>
