<svg xmlns="http://www.w3.org/2000/svg" width="220" height="124" viewBox="0 0 220 124">
  <g fill="#FFF" transform="translate(75 13)">
    <path d="M35.0163519,83.5574859 L52.71392,78.4858586 L52.8437717,76.9776744 L54.872538,53.4759887 L55.0831905,51.0788564 L56.641791,33.0105263 L13.3880597,33.0105263 L14.5162834,41.9375537 L35.0149254,41.9375537 L47.1802987,41.9375537 L46.3947245,51.0788564 L35.0149254,51.0788564 L35.0149254,60.0056872 L45.6460335,60.0056872 L44.6439131,71.5832422 L35.0149254,74.2705309 L35.0149254,74.2929864 L26.0691395,71.9135347 L25.4339351,64.9894737 L20.6055564,64.9894737 L16.4776119,64.9894737 L17.7275873,78.6209859 L35.0163519,83.597258 L35.0163519,83.5574859 Z M69,19.6 L62.7139226,90.1518051 L34.4577707,98 L6.27941963,90.1628587 L0,19.6 L69,19.6 Z M14.2347099,50.9311341 L15.2110777,59.8315789 L35.0149254,60.0447367 L35.0149254,51.1208909 L14.2347099,50.9311341 Z"/>
    <polygon points="16.478 0 27.806 0 27.806 4.47 21.215 4.47 21.215 8.94 27.806 8.94 27.806 13.411 16.478 13.411"/>
    <polygon points="29.866 0 41.194 0 41.194 3.832 34.603 3.832 34.603 4.598 41.194 4.598 41.194 13.411 29.866 13.411 29.866 9.387 36.457 9.387 36.457 8.621 29.866 8.621"/>
    <polygon points="42.224 0 53.552 0 53.552 3.832 46.961 3.832 46.961 4.598 53.552 4.598 53.552 13.411 42.224 13.411 42.224 9.387 48.815 9.387 48.815 8.621 42.224 8.621"/>
  </g>
</svg>
