<svg xmlns="http://www.w3.org/2000/svg" width="220" height="124" viewBox="0 0 220 124">
  <g fill="#FFF" transform="translate(65 22)">
    <path d="M91,40.5092699 C91,34.4838636 83.4506726,28.7736324 71.876274,25.2325475 C74.547289,13.4412909 73.3601712,4.06019684 68.1294333,1.05676356 C66.9237668,0.35225452 65.5140644,0.0185397116 63.974521,0.0185397116 L63.974521,4.1528954 C64.8277619,4.1528954 65.5140644,4.3197528 66.0890746,4.6349279 C68.6117,6.08102541 69.7060742,11.5873198 68.8528333,18.6694896 C68.6487974,20.4122225 68.3149205,22.2476539 67.9068488,24.1201648 C64.2713004,23.2302586 60.3018753,22.5442893 56.1284142,22.0993362 C53.6243375,18.6694896 51.0275173,15.554818 48.4121484,12.8294804 C54.4590298,7.21194781 60.1349368,4.13435569 63.9930697,4.13435569 L63.9930697,0 C63.9930697,0 63.9930697,0 63.9930697,0 C58.8921728,0 52.2146351,3.63378347 45.4629026,9.93728542 C38.71117,3.6708629 32.0336323,0.0741588464 26.9327354,0.0741588464 L26.9327354,4.20851453 C30.7723196,4.20851453 36.4667754,7.26756695 42.5136567,12.8480201 C39.9168365,15.5733577 37.3200163,18.6694896 34.8530371,22.0993362 C30.6610273,22.5442893 26.6916021,23.2302586 23.0560538,24.1387045 C22.6294333,22.2847333 22.3141052,20.4863813 22.0915206,18.7621881 C21.2197309,11.6800183 22.2955565,6.17372396 24.7996331,4.70908675 C25.3560946,4.37537194 26.0794945,4.22705425 26.9327354,4.22705425 L26.9327354,0.092698558 C26.9327354,0.092698558 26.9327354,0.092698558 26.9327354,0.092698558 C25.3746433,0.092698558 23.9649409,0.426413367 22.7407256,1.13092241 C17.5285365,4.13435569 16.3599674,13.49691 19.0495312,25.2510872 C7.51222992,28.8107118 0,34.5024033 0,40.5092699 C0,46.5346761 7.54932735,52.2449073 19.123726,55.7859922 C16.452711,67.5772488 17.6398288,76.9583429 22.8705667,79.9617762 C24.0762332,80.6662852 25.4859356,81 27.0440277,81 C32.1449246,81 38.8224623,77.3662165 45.5741949,71.0627146 C52.3259274,77.3291371 59.0034651,80.9258412 64.104362,80.9258412 C65.6624541,80.9258412 67.0721565,80.5921263 68.2963718,79.8876173 C73.5085609,76.884184 74.67713,67.5216297 71.9875662,55.7674525 C83.4877701,52.2263676 91,46.5161364 91,40.5092699 Z M66.849572,28.1432822 C66.1632695,30.534905 65.3100285,33.0006867 64.3454953,35.4664683 C63.584998,33.9832914 62.7874032,32.5001144 61.9156135,31.0169375 C61.0623726,29.5337606 60.1534855,28.0876631 59.2445985,26.678645 C61.8785161,27.0679789 64.4196902,27.5500114 66.849572,28.1432822 Z M58.3542601,47.8880751 C56.9074603,50.3909361 55.423563,52.7640192 53.8840196,54.9702449 C51.1202609,55.2112612 48.3194048,55.3410391 45.5,55.3410391 C42.6991439,55.3410391 39.8982878,55.2112612 37.1530779,54.9887846 C35.6135344,52.7825589 34.1110885,50.4280156 32.6642886,47.9436942 C31.2545862,45.514992 29.9747248,43.0492103 28.8061557,40.564889 C29.9561761,38.0805676 31.2545862,35.5962463 32.6457399,33.1675441 C34.0925397,30.664683 35.576437,28.2915999 37.1159804,26.0853742 C39.8797391,25.844358 42.6805952,25.71458 45.5,25.71458 C48.3008561,25.71458 51.1017122,25.844358 53.8469221,26.0668345 C55.3864656,28.2730602 56.8889115,30.6276036 58.3357114,33.1119249 C59.7454138,35.5406271 61.0252752,38.0064088 62.1938443,40.4907301 C61.0252752,42.9750515 59.7454138,45.4593729 58.3542601,47.8880751 Z M64.3454953,45.4779126 C65.347126,47.9622339 66.2003669,50.4465553 66.9052181,52.8567178 C64.4753363,53.4499886 61.9156135,53.9505608 59.2631472,54.3398947 C60.1720342,52.9123369 61.0809213,51.4476997 61.9341623,49.9459831 C62.7874032,48.4628061 63.584998,46.9610895 64.3454953,45.4779126 Z M45.5370974,65.2597848 C43.8120669,63.4799725 42.0870363,61.4962234 40.3805544,59.3270771 C42.0499389,59.401236 43.7564207,59.4568551 45.4814513,59.4568551 C47.2250306,59.4568551 48.9500611,59.4197757 50.6379943,59.3270771 C48.9686099,61.4962234 47.2435793,63.4799725 45.5370974,65.2597848 Z M31.7368528,54.3398947 C29.1029352,53.9505608 26.5617611,53.4685283 24.1318793,52.8752575 C24.8181818,50.4836347 25.6714227,48.0178531 26.635956,45.5520714 C27.3964533,47.0352483 28.1940481,48.5184253 29.0658377,50.0016022 C29.9376274,51.4847791 30.8279658,52.9308766 31.7368528,54.3398947 Z M45.4443539,15.7587549 C47.1693844,17.5385672 48.894415,19.5223163 50.6008969,21.6914626 C48.9315124,21.6173037 47.2250306,21.5616846 45.5,21.5616846 C43.7564207,21.5616846 42.0313901,21.598764 40.343457,21.6914626 C42.0128414,19.5223163 43.737872,17.5385672 45.4443539,15.7587549 Z M31.7183041,26.678645 C30.809417,28.1062028 29.90053,29.57084 29.047289,31.0725566 C28.1940481,32.5557336 27.3964533,34.0389105 26.635956,35.5220874 C25.6343253,33.0377661 24.7810844,30.5534447 24.0762332,28.1432822 C26.506115,27.5685512 29.0658377,27.0679789 31.7183041,26.678645 Z M14.9317163,49.8903639 C8.36547085,47.0908675 4.11781492,43.4200046 4.11781492,40.5092699 C4.11781492,37.5985351 8.36547085,33.9091325 14.9317163,31.1281758 C16.5269058,30.4422065 18.2704851,29.830396 20.0697106,29.2556649 C21.1269874,32.8894484 22.5181411,36.6715496 24.2431716,40.5463493 C22.5366898,44.4026093 21.1640848,48.1661707 20.1253567,51.7814145 C18.2890338,51.2066835 16.5454545,50.5763333 14.9317163,49.8903639 Z M24.9109254,76.3836118 C22.3883,74.9375143 21.2939258,69.43122 22.1471667,62.3490501 C22.3512026,60.6063172 22.6850795,58.7708858 23.0931512,56.8983749 C26.7286996,57.7882811 30.6981247,58.4742504 34.8715858,58.9192035 C37.3756625,62.3490501 39.9724827,65.4637217 42.5878516,68.1890593 C36.5409702,73.8065919 30.8650632,76.884184 27.0069303,76.884184 C26.1722381,76.8656443 25.4673869,76.6987869 24.9109254,76.3836118 Z M68.9084794,62.2563516 C69.7802691,69.3385214 68.7044435,74.8448157 66.2003669,76.309453 C65.6439054,76.6431678 64.9205055,76.7914855 64.0672646,76.7914855 C60.2276804,76.7914855 54.5332246,73.7324331 48.4863433,68.1519799 C51.0831635,65.4266423 53.6799837,62.3305104 56.1469629,58.9006638 C60.3389727,58.4557107 64.3083979,57.7697414 67.9439462,56.8612955 C68.3705667,58.7338064 68.7044435,60.5321584 68.9084794,62.2563516 Z M76.049735,49.8903639 C74.4545455,50.5763333 72.7109662,51.1881437 70.9117407,51.7628748 C69.8544639,48.1290913 68.4633102,44.3469902 66.7382797,40.4721904 C68.4447615,36.6159304 69.8173665,32.852369 70.8560946,29.2371252 C72.6924174,29.8118563 74.4359967,30.4422065 76.0682837,31.1281758 C82.6345291,33.9276722 86.8821851,37.5985351 86.8821851,40.5092699 C86.8636364,43.4200046 82.6159804,47.1094072 76.049735,49.8903639 Z"/>
    <circle cx="45.5" cy="40.5" r="8.5"/>
  </g>
</svg>
