<svg xmlns="http://www.w3.org/2000/svg" width="220" height="124" viewBox="0 0 220 124">
  <g fill="#FFF" transform="translate(52 23)">
    <path d="M28.4019556 71.7723587L23.9552889 71.7723587C23.7980444 64.2716522 23.3649778 57.2200435 22.6569481 50.6123804L22.6174222 50.6123804 15.8473185 71.7723587 12.461837 71.7723587 5.73211852 50.6123804 5.69345185 50.6123804C5.19422222 56.9564239 4.87973333 64.00975 4.74912593 71.7723587L.696 71.7723587C.957214815 62.3327174 1.61368889 53.483 2.66284444 45.2223478L8.17413333 45.2223478 14.5885037 64.7310543 14.6280296 64.7310543 21.0819259 45.2223478 26.3552 45.2223478C27.5100444 54.8981304 28.1922963 63.7487065 28.4019556 71.7723587zM47.6863111 52.1837935C45.8758519 62.0021196 43.4871111 69.136163 40.5226667 73.5893587 38.2129778 77.0172717 35.6824593 78.7329457 32.9268148 78.7329457 32.1921481 78.7329457 31.2856296 78.5114022 30.2115556 78.07175L30.2115556 75.7043261C30.736563 75.7798913 31.3526519 75.8228261 32.0606815 75.8228261 33.3478519 75.8228261 34.3824 75.4690435 35.1712 74.7597609 36.1146667 73.895913 36.5864 72.9247283 36.5864 71.8505 36.5864 71.1137391 36.218637 69.607587 35.4848296 67.3268913L30.6050963 52.1829348 34.9735704 52.1829348 38.4759111 63.5091304C39.2629926 66.0809239 39.5912296 67.8764565 39.459763 68.899163 41.3750519 63.7873478 42.7129185 58.2135543 43.4750815 52.1820761L47.6863111 52.1820761 47.6863111 52.1837935zM106.876385 71.7723587L94.2452741 71.7723587 94.2452741 45.2223478 98.4943111 45.2223478 98.4943111 68.504163 106.876385 68.504163 106.876385 71.7723587zM90.9388444 72.4138043L86.0548148 70.005163C86.4878815 69.649663 86.9020444 69.2649674 87.274963 68.8193043 89.3509333 66.3823261 90.3863407 62.7783804 90.3863407 58.0048913 90.3863407 49.2212935 86.9372741 44.8273478 80.036563 44.8273478 76.6528 44.8273478 74.0131556 45.9419348 72.125363 48.1719674 70.0511111 50.610663 69.0157037 54.2017283 69.0157037 58.9494565 69.0157037 63.6164674 69.9333926 67.040087 71.7696296 69.2117283 73.4494815 71.179 75.9817185 72.1639239 79.3680593 72.1639239 80.6311704 72.1639239 81.7903111 72.0093587 82.8463407 71.6976522L89.2048593 75.396913 90.9388444 72.4138043zM75.1173037 66.4596087C74.0415111 64.7301957 73.5036148 61.9531739 73.5036148 58.12425 73.5036148 51.4393043 75.535763 48.0929674 79.6043556 48.0929674 81.7310222 48.0929674 83.2897185 48.8932717 84.2864593 50.4904457 85.3605333 52.2224348 85.9010074 54.9745543 85.9010074 58.7502391 85.9010074 65.4901413 83.8671407 68.8605217 79.8011259 68.8605217 77.6736 68.8613804 76.1149037 68.0636522 75.1173037 66.4596087zM67.164 64.413337C67.164 66.664837 66.3373926 68.5118913 64.6858963 69.9587935 63.0326815 71.3996848 60.8157926 72.1218478 58.0378074 72.1218478 55.4394074 72.1218478 52.9200593 71.2923478 50.4814815 69.6419348L51.623437 67.3620978C53.7217481 68.4122826 55.6215704 68.9343696 57.3272 68.9343696 58.928 68.9343696 60.1790815 68.5797283 61.0864593 67.8764565 61.9929778 67.1706087 62.5334519 66.1805326 62.5334519 64.9285543 62.5334519 63.3511304 61.4327407 62.0029783 59.4134815 60.8737935 57.5514667 59.8519457 53.827437 57.7155109 53.827437 57.7155109 51.809037 56.2454239 50.7985481 54.6671413 50.7985481 52.0670109 50.7985481 49.9151196 51.5521185 48.1779783 53.0601185 46.8564457 54.569837 45.5297609 56.5177778 44.8685652 58.9056593 44.8685652 61.3717333 44.8685652 63.6135407 45.5289022 65.6328 46.835837L64.608563 49.1165326C62.8814519 48.3832065 61.1766815 48.0165435 59.4951111 48.0165435 58.1331852 48.0165435 57.0814519 48.3437065 56.3502222 49.0006087 55.6129778 49.6549348 55.1584296 50.492163 55.1584296 51.519163 55.1584296 53.0888587 56.2823407 54.4541848 58.3565926 55.6056957 60.2435259 56.6292609 64.0603556 58.8026196 64.0603556 58.8026196 66.1303111 60.2701304 67.164 61.8338152 67.164 64.413337zM112.210667 36.3296957C109.641481 36.2644348 107.652296 36.5229022 105.982756 37.22875 105.500711 37.4210978 104.734252 37.4210978 104.66723 38.029913 104.927585 38.2875217 104.957659 38.7031304 105.183644 39.0586304 105.568593 39.7000761 106.239674 40.5630652 106.852326 41.0130217 107.525126 41.5282391 108.200504 42.0383043 108.908533 42.4874022 110.157037 43.2593696 111.572237 43.7084674 112.788948 44.4778587 113.497837 44.9252391 114.20243 45.504 114.912178 45.9857283 115.261037 46.2424783 115.484444 46.6589457 115.937274 46.8195217L115.937274 46.7216304C115.71043 46.4331087 115.645985 46.0157826 115.423437 45.6946304L114.459348 44.7655217C113.527911 43.5152609 112.370489 42.4238587 111.121985 41.5273804 110.094311 40.8198152 107.846489 39.8580761 107.429748 38.6747935L107.364444 38.6095326C108.070756 38.543413 108.908533 38.2875217 109.579615 38.0908804 110.671733 37.8032174 111.667615 37.8684783 112.788089 37.5808152 113.303644 37.4520109 113.814904 37.2905761 114.332178 37.1317174L114.332178 36.842337C113.751319 36.2644348 113.337156 35.4967609 112.726222 34.9506304 111.091911 33.5397935 109.290904 32.1598696 107.429748 31.0049239 106.433007 30.3617609 105.150993 29.9478696 104.089807 29.4008804 103.707437 29.2076739 103.062993 29.1123587 102.837867 28.7912065 102.262163 28.0853587 101.938222 27.15625 101.520622 26.3207391 100.592622 24.557837 99.6912593 22.6017283 98.8904296 20.7375 98.3112889 19.4872391 97.9589926 18.2386957 97.2526815 17.0820326 93.9445333 11.6293152 90.3519704 8.32677174 84.8303704 5.08519565 83.6437333 4.41026087 82.2319704 4.12259783 80.7239704 3.76881522L78.3154667 3.64172826C77.8016296 3.41675 77.2869333 2.80621739 76.8384 2.51769565 75.0064593 1.3636087 70.2899852-1.13777174 68.9426667 2.16477174 68.0748148 4.25226087 70.2264 6.30454348 70.965363 7.36331522 71.5109926 8.0983587 72.218163 8.93472826 72.5996741 9.76938043 72.8256593 10.3146522 72.8892444 10.893413 73.1152296 11.4695978 73.6290667 12.8812935 74.1093926 14.4518478 74.7847704 15.769087 75.1370667 16.440587 75.5211556 17.1464348 75.9714074 17.7543913 76.2291852 18.1098913 76.6777185 18.2670326 76.7756741 18.8466522 76.328 19.4855217 76.2927704 20.449837 76.0358519 21.2518587 74.8810074 24.876413 75.3321185 29.3665326 76.9690074 32.0302065 77.4811259 32.8322283 78.7029926 34.5977065 80.3373037 33.9210543 81.7842963 33.3440109 81.4637926 31.5158478 81.8796741 29.912663 81.9750519 29.5253913 81.9123259 29.2712174 82.1048 29.0170435L82.1048 29.0797283C82.5524741 29.9770652 83.0044444 30.8417717 83.4194667 31.7416848 84.4153481 33.3122391 86.1493333 34.948913 87.5937481 36.0368804 88.3627852 36.6173587 88.972 37.6100109 89.9352296 37.9646522L89.9352296 37.8684783 89.8716444 37.8684783C89.6765926 37.5808152 89.3913185 37.4520109 89.1352593 37.22875 88.5561185 36.6508478 87.9151111 35.945 87.4657185 35.304413 86.1201185 33.507163 84.9291852 31.5175652 83.8722963 29.4644239 83.3550222 28.468337 82.9090667 27.3795109 82.4923259 26.3851413 82.2981333 26.0013043 82.2981333 25.4225435 81.9759111 25.229337 81.4930074 25.9343261 80.7892741 26.5448587 80.4369778 27.4087065 79.8260444 28.7903478 79.7624593 30.4897065 79.5356148 32.2569022L79.4093037 32.3187283C78.3867852 32.0619783 78.0310519 31.0049239 77.6426667 30.107587 76.6811556 27.8286087 76.5196148 24.1705652 77.3539556 21.5412391 77.577363 20.8688804 78.5440296 18.751337 78.1582222 18.11075 77.9648889 17.4967826 77.322163 17.1472935 76.9698667 16.6638478 76.5557037 16.0558913 76.1020148 15.2865 75.8133037 14.6115652 75.0434074 12.8160326 74.6558815 10.8264348 73.8266963 9.03176087 73.4391704 8.1953913 72.7663704 7.32982609 72.2216 6.55957609 71.6098074 5.69401087 70.9370074 5.08433696 70.4532444 4.05819565 70.2934222 3.70527174 70.0691556 3.12822826 70.3260741 2.7443913 70.3888 2.48678261 70.5194074 2.3906087 70.7754667 2.32620652 71.1913481 1.975 72.3797037 2.42152174 72.7964444 2.61472826 73.9865185 3.09559783 74.9815407 3.54469565 75.9748444 4.21791304 76.424237 4.53992391 76.9062815 5.14959783 77.4828444 5.31017391L78.1582222 5.31017391C79.1833185 5.53343478 80.3390222 5.372 81.3039704 5.66223913 83.0044444 6.20836957 84.5450963 7.00953261 85.9267852 7.87423913 90.1311407 10.5387717 93.5982519 14.3247609 95.9388741 18.8466522 96.322963 19.583413 96.4862222 20.2583478 96.8368 21.0268804 97.513037 22.6000109 98.3490963 24.2040543 99.0201778 25.7436957 99.6946963 27.2507065 100.337422 28.7894891 101.300652 30.0414674 101.780978 30.7146848 103.710874 31.0676087 104.576148 31.4205326 105.216296 31.7081957 106.213037 31.964087 106.790459 32.3170109 107.882578 32.9893696 108.9704 33.761337 109.997215 34.5006739 110.508474 34.8853696 112.115289 35.6873913 112.210667 36.3296957M79.4677333 8.453C79.0245743 8.44839669 78.5827691 8.50268373 78.1539259 8.61443478L78.1539259 8.67883696 78.2157926 8.67883696C78.4744296 9.19147826 78.9238222 9.54697826 79.2443259 9.9943587 79.502963 10.5087174 79.7272296 11.0187826 79.9807111 11.5322826L80.0425778 11.4687391C80.4954074 11.1484457 80.7205333 10.6349457 80.7205333 9.86469565 80.5254815 9.638 80.4954074 9.41645652 80.3330074 9.19147826 80.1439704 8.87032609 79.7272296 8.7106087 79.4677333 8.453M115.267911 71.7680652L115.932978 71.7680652 115.932978 68.5153261 114.935378 68.5153261 114.121659 70.7350543 113.237481 68.5153261 112.27683 68.5153261 112.27683 71.7680652 112.904948 71.7680652 112.904948 69.2933043 112.940178 69.2933043 113.866459 71.7680652 114.345067 71.7680652 115.267911 69.2933043 115.267911 71.7680652zM109.91043 71.7680652L110.614163 71.7680652 110.614163 69.0666087 111.535289 69.0666087 111.535289 68.5144674 108.950637 68.5144674 108.950637 69.0666087 109.908711 69.0666087 109.91043 71.7680652z"/>
  </g>
</svg>
