<svg xmlns="http://www.w3.org/2000/svg" width="220" height="124" viewBox="0 0 220 124">
  <g fill="#FFF" fill-rule="evenodd" transform="translate(27 32)">
    <path d="M18.7181412.0954330709C20.2412147-.342047244 21.3042712.776220472 22.2660395 2.40992126 28.7147175 13.3658268 35.2440508 24.2735433 41.6758475 35.2393701 42.4251921 36.5168504 43.0868475 36.7748031 44.5161356 36.4119685 52.0996158 34.4896063 59.7107627 32.676378 67.3308192 30.904252 68.6649153 30.5943307 68.781678 30.3061417 67.9723107 29.196378 65.4438588 25.7300787 63.0138814 22.1905512 60.5576441 18.6708661 59.5635198 17.2464567 59.7313955 16.7451969 61.3566949 16.4622047 65.3449153 15.768189 69.3472034 15.1554331 73.3293277 14.4292913 74.5771412 14.2020472 75.4629435 14.5861417 76.2108814 15.5177953 79.482113 19.5935433 82.7491243 23.6725984 86.0250452 27.7450394 87.0144802 28.9752756 86.1962034 29.3683465 85.1669096 29.6456693 81.8914576 30.5286614 78.6296045 31.4773228 75.325548 32.2379528 73.8371751 32.5814173 74.0528814 33.0051969 74.7872203 33.9807874 77.930435 38.1566929 81.0220678 42.3727559 84.1113559 46.5888189 85.234435 48.1209449 85.132209 48.5659843 83.3737345 49.2051969 73.9572203 52.6270866 64.5369548 56.0404724 55.0960565 59.3919685 52.4517797 60.3302362 51.626 59.9990551 50.2239096 57.560315 47.3456384 52.5505512 44.5076949 47.515748 41.7499379 42.4384252 41.1440847 41.3225197 40.6113842 41.0262992 39.367791 41.3707087 34.093774 42.8314961 28.7892768 44.1788976 23.4927514 45.5555906 20.4128418 46.3559055 19.300548 45.7875591 17.9415989 42.8215748 12.3721582 30.6628346 6.79333898 18.507874 1.22530508 6.34818898.836096045 5.49874016.43000565 4.64598425.159435028 3.75543307-.278542373 2.31779528.173502825 1.67007874 1.66750282 1.53968504 7.17551412 1.0592126 12.686339.604251969 18.7181412.0954330709zM18.2037288 2.61354331C13.7634633 3.02173228 9.40525989 3.44503937 5.04236723 3.80834646 3.85926554 3.90661417 4.19126554 4.46834646 4.50216384 5.11417323 10.228226 17.0177953 15.9603842 28.9185827 21.6606554 40.8344882 22.0240734 41.5946457 22.4339153 41.7486614 23.1949831 41.5611024 28.0296158 40.3677165 32.8642486 39.1724409 37.7167006 38.056063 38.875887 37.7900787 39.0507966 37.3993701 38.4486949 36.4044094 37.3101412 34.5217323 36.2400508 32.5965354 35.1427627 30.6883465 29.9845706 21.7181102 24.8282542 12.7469291 19.6658418 3.78 19.3211808 3.18188976 19.102661 2.37732283 18.2037288 2.61354331zM80.1414237 45.9755906C80.0382599 45.7979528 79.9430678 45.5995276 79.8155198 45.4233071 77.0132147 41.5459843 74.2001243 37.6766929 71.4114181 33.7889764 71.0067345 33.2248819 70.5298362 33.2329134 69.969 33.3798425 61.8232768 35.515748 53.6775537 37.6511811 45.5308927 39.7837795 44.9320734 39.9406299 44.532548 40.0809449 44.9935028 40.8633071 47.6443446 45.3647244 50.2539209 49.8911811 52.8695932 54.4133858 53.2822486 55.1258268 53.796661 55.4215748 54.6346328 55.1329134 62.8581977 52.299685 71.0883277 49.4844094 79.3151751 46.6601575 79.6593672 46.5420472 80.0776497 46.4981102 80.1414237 45.9755906zM82.6393955 27.0954331C79.9693277 23.6725984 77.4699492 20.4765354 74.9804181 17.2729134 74.5780791 16.7546457 74.0749209 16.7451969 73.506113 16.8514961 70.6039266 17.3905512 67.7045537 17.9494488 64.7939266 18.4374803 63.7857345 18.6070866 63.7613503 18.9193701 64.3207797 19.6804724 66.5997627 22.7815748 68.8412316 25.9100787 71.0920791 29.0319685 71.3884407 29.4434646 71.6585424 29.8549606 72.2723672 29.7 75.6495763 28.848189 79.0281921 28.0020472 82.6393955 27.0954331zM155.834141 50.9244094C154.300282 50.9248819 152.764548 50.9815748 151.23491 50.9045669 150.258136 50.8549606 150.106203 51.2853543 150.282989 52.0837795 150.681576 53.884252 151.667729 55.227874 153.435113 55.7938583 155.288311 56.3867717 157.004582 55.996063 158.46435 54.6647244 158.745237 54.4091339 159.00174 54.1048819 159.196345 53.7793701 159.550853 53.1864567 159.943814 53.0725984 160.536537 53.4585827 161.265718 53.9338583 160.697379 54.3259843 160.459633 54.6656693 158.893418 56.9007874 156.715254 57.863622 154.049407 57.4710236 151.357768 57.0746457 149.599294 55.4338583 148.803056 52.839685 147.679977 49.1858268 149.835164 45.1724409 153.304282 44.3206299 157.104463 43.3861417 160.562328 45.6028346 161.351062 49.4215748 161.584588 50.5535433 161.363254 51.0368504 160.104655 50.9470866 158.68709 50.8464567 157.258271 50.923937 155.834141 50.9244094zM107.463429 46.4338583C107.463429 45.9108661 107.466243 45.5806299 107.46296 45.2513386 107.45874 44.8006299 107.62052 44.5275591 108.124147 44.5228346 108.657785 44.5181102 108.93539 44.7302362 108.934921 45.2905512 108.932107 48.9793701 108.933983 52.6677165 108.938203 56.356063 108.938672 56.8861417 108.737972 57.1615748 108.164006 57.1601575 107.546898 57.1587402 107.446079 56.7992126 107.457802 56.3050394 107.464367 56.0310236 107.45874 55.7570079 107.45874 55.1168504 105.760288 56.623937 104.108729 57.7554331 101.956356 57.5366929 99.8025763 57.3179528 98.1575819 56.2658268 96.9796384 54.4516535 95.2230395 51.7483465 95.6816497 48.0628346 98.048791 45.8574803 100.603972 43.4768504 103.68435 43.6261417 107.463429 46.4338583zM130.766266 46.527874C130.78596 46.091811 130.788774 45.8896063 130.805186 45.6888189 130.846921 45.1776378 130.632621 44.5214173 131.52874 44.5247244 132.387345 44.5280315 132.283243 45.140315 132.285588 45.6788976 132.294028 47.5502362 132.289808 49.4220472 132.289808 51.2938583 132.290277 52.8354331 132.304814 54.3770079 132.280898 55.9181102 132.272927 56.4184252 132.493791 57.0883465 131.617836 57.1507087 130.609644 57.2220472 130.847859 56.4798425 130.800028 55.9171654 130.786898 55.7626772 130.755011 55.6100787 130.694051 55.2075591 128.808028 56.9277165 126.820718 58.0445669 124.279605 57.3614173 122.673062 56.9291339 121.422435 56.0329134 120.478017 54.6770079 118.544164 51.9018898 118.960102 48.0859843 121.438847 45.8187402 124.052644 43.4286614 127.44861 43.6171654 130.766266 46.527874zM134.898915 44.7377953C136.057633 44.2247244 136.605808 44.6253543 137.018932 45.6188976 138.150921 48.3411024 139.355124 51.0316535 140.669994 54.0548031 141.931876 51.1814173 143.069492 48.5891339 144.208045 45.9968504 144.384831 45.5943307 144.510034 45.1554331 144.75622 44.8020472 145.046955 44.3834646 145.544955 44.4770079 145.966051 44.5577953 146.445763 44.6503937 146.336034 45.0108661 146.199576 45.3217323 144.426565 49.3714961 142.648395 53.4193701 140.706571 57.8418898 138.661582 53.2294488 136.785876 48.9968504 134.898915 44.7377953zM91.6681073 48.1781102C91.6676384 45.7483465 91.6563842 43.3195276 91.6770169 40.8897638 91.6821751 40.3464567 91.4209831 39.6207874 92.4376158 39.5952756 93.381565 39.5711811 93.3210734 40.1692913 93.3206045 40.7985827 93.3168531 45.8777953 93.317791 50.9574803 93.3187288 56.0371654 93.3187288 56.5984252 93.3792203 57.1483465 92.5346836 57.1752756 91.574791 57.2059843 91.6685763 56.5733858 91.6681073 55.9634646 91.6676384 53.367874 91.6681073 50.7727559 91.6681073 48.1781102zM164.341407 48.4384252C164.341407 45.8990551 164.338593 43.3592126 164.343751 40.8193701 164.344689 40.2292913 164.201198 39.5707087 165.181254 39.5924409 166.159435 39.6151181 165.98687 40.2902362 165.987808 40.8680315 165.994842 45.8924409 165.992497 50.9168504 165.99109 55.9407874 165.99109 56.5450394 166.100819 57.1866142 165.138113 57.1733858 164.136017 57.1601575 164.351723 56.4533858 164.347972 55.8916535 164.332497 53.4080315 164.341407 50.9234646 164.341407 48.4384252zM112.323853 50.6985827C112.323853 49.043622 112.309785 47.3891339 112.333701 45.7351181 112.340266 45.2844094 112.129249 44.6489764 112.863588 44.5492913 113.384565 44.4779528 113.939774 44.360315 114.05513 45.2300787 114.17752 46.1461417 114.542814 45.4020472 114.689119 45.2215748 115.33061 44.4283465 116.114655 44.0234646 117.132226 44.2133858 117.468915 44.2762205 118.011463 44.187874 117.958006 44.7647244 117.91674 45.2031496 117.660706 45.7422047 117.216633 45.7549606 114.538593 45.8291339 114.285842 47.8530709 114.121249 49.7659843 113.947277 51.791811 114.057006 53.8426772 114.02887 55.8822047 114.020429 56.4533858 114.21691 57.1398425 113.236853 57.1705512 112.164887 57.203622 112.329949 56.4675591 112.327136 55.8259843 112.317757 54.1181102 112.323384 52.4083465 112.323853 50.6985827zM150.539492 49.5467717C153.227379 49.5467717 155.896508 49.5250394 158.565638 49.5581102 159.573831 49.5703937 159.663864 49.1749606 159.310294 48.3529134 158.564701 46.6171654 156.509864 45.4672441 154.451277 45.6845669 152.317661 45.9108661 150.939955 47.2384252 150.539492 49.5467717zM97.5897119 50.9555906C97.6178475 53.76 99.8832316 56.0914961 102.565023 56.076378 105.352322 56.0612598 107.534237 53.7137008 107.508915 50.7562205 107.485 47.9102362 105.276825 45.655748 102.534542 45.6779528 99.6965989 45.7006299 97.5597006 47.9811024 97.5897119 50.9555906zM130.856768 50.8388976C130.861927 47.9759055 128.707209 45.7015748 125.964458 45.6779528 123.122763 45.6533858 120.938034 47.9107087 120.937096 50.8729134 120.935689 53.6910236 123.131672 56.0272441 125.830345 56.0768504 128.593729 56.1288189 130.851141 53.776063 130.856768 50.8388976z"/>
  </g>
</svg>
