<svg xmlns="http://www.w3.org/2000/svg" width="64" height="64" viewBox="0 0 64 64">
  <g fill="none">
    <circle cx="32" cy="32" r="32" fill="#DFFFF6"/>
    <path fill="#7AE1C3" d="M19.2,28.8 C16.3723021,28.8 14.08,26.5076979 14.08,23.68 C14.08,20.8523021 16.3723021,18.56 19.2,18.56 C22.0276979,18.56 24.32,20.8523021 24.32,23.68 C24.32,26.5076979 22.0276979,28.8 19.2,28.8 Z M19.2,30.08 C24.8553472,30.08 29.44,32.881481 29.44,36.3370302 L29.44,39.0378392 C29.44,39.7493375 28.866425,40.32 28.1588843,40.32 L10.2411157,40.32 C9.52912749,40.32 8.96,39.7459571 8.96,39.0378392 L8.96,36.3370302 C8.96,32.881481 13.5446528,30.08 19.2,30.08 Z M44.8,28.8 C41.9723021,28.8 39.68,26.5076979 39.68,23.68 C39.68,20.8523021 41.9723021,18.56 44.8,18.56 C47.6276979,18.56 49.92,20.8523021 49.92,23.68 C49.92,26.5076979 47.6276979,28.8 44.8,28.8 Z M44.8,30.08 C50.4553472,30.08 55.04,32.881481 55.04,36.3370302 L55.04,39.0378392 C55.04,39.7493375 54.466425,40.32 53.7588843,40.32 L35.8411157,40.32 C35.1291275,40.32 34.56,39.7459571 34.56,39.0378392 L34.56,36.3370302 C34.56,32.881481 39.1446528,30.08 44.8,30.08 Z"/>
    <path fill="#37B18E" d="M32,32 C28.1119154,32 24.96,28.8480846 24.96,24.96 C24.96,21.0719154 28.1119154,17.92 32,17.92 C35.8880846,17.92 39.04,21.0719154 39.04,24.96 C39.04,28.8480846 35.8880846,32 32,32 Z M32,33.92 C39.7761024,33.92 46.08,37.5825042 46.08,42.1001017 L46.08,45.4453629 C46.08,46.1442278 45.5055137,46.72 44.7968491,46.72 L19.2031509,46.72 C18.4952673,46.72 17.92,46.1493256 17.92,45.4453629 L17.92,42.1001017 C17.92,37.5825042 24.2238976,33.92 32,33.92 Z"/>
  </g>
</svg>
