<svg xmlns="http://www.w3.org/2000/svg" width="64" height="64" viewBox="0 0 64 64">
  <g fill="none">
    <circle cx="32" cy="32" r="30.72" fill="#000"/>
    <circle cx="32" cy="32" r="32" fill="#E5FCFF"/>
    <path fill="#FFF" d="M32,54.4 C34.6706036,54.4 37.12,46.903522 37.12,45.44 C37.12,44.040478 34.9550481,42.88 32,42.88 C29.6138408,42.88 26.88,44.040478 26.88,45.44 C26.88,46.903522 29.3293964,54.4 32,54.4 Z"/>
    <path fill="#3999A5" d="M17.28,44.3341306 C17.28,42.7423478 18.0420247,40.4102964 18.9810965,39.1266236 L24.7949035,31.1793875 C25.7343932,29.8951436 26.496,30.145007 26.496,31.7357686 L26.496,43.7239267 C26.496,45.3154515 25.2145547,46.7648811 23.6431143,46.9601624 L18.4285788,47.6081676 C17.7942362,47.6869967 17.28,47.235431 17.28,46.5955763 L17.28,44.3341306 Z M46.72,44.31574 C46.72,42.734114 45.9619,40.4156612 45.0242765,39.1339683 L39.1997235,31.1720428 C38.2632013,29.8918552 37.504,30.130708 37.504,31.7160147 L37.504,43.7436806 C37.504,45.3242956 38.7854453,46.7648811 40.3568857,46.9601624 L45.5714212,47.6081676 C46.2057638,47.6869967 46.72,47.235431 46.72,46.6102084 L46.72,44.31574 Z"/>
    <path fill="#5FC1CE" d="M23.3627003,21.6178883 C23.6773178,18.1409861 26.342102,13.818406 29.3573554,12.0529993 C29.3573554,12.0529993 30.8471889,10.88 31.9996593,10.88 C33.1521299,10.88 34.6419633,12.0529993 34.6419633,12.0529993 C37.6381023,13.8586395 40.3614988,18.1465912 40.6405668,21.629693 C40.6405668,21.629693 41.0761853,23.4664146 40.9313059,31.7037503 C40.7864264,39.9410859 39.7359688,46.3889486 39.7359688,46.3889486 C39.6005204,47.3257074 38.7741097,47.7795487 37.8890888,47.4552951 C37.8890888,47.4552951 36.0333062,46.4192004 31.9996593,46.4192004 C27.9660125,46.4192004 26.1102299,47.4552951 26.1102299,47.4552951 C25.2256747,47.803127 24.3948878,47.320096 24.2630922,46.374297 C24.2630922,46.374297 23.2113382,39.8527226 23.0680128,31.7037503 C22.9246875,23.554778 23.3627003,21.6178883 23.3627003,21.6178883 Z"/>
    <path fill="#3999A5" d="M32,27.52 C29.5257644,27.52 27.52,25.5142356 27.52,23.04 C27.52,20.5657644 29.5257644,18.56 32,18.56 C34.4742356,18.56 36.48,20.5657644 36.48,23.04 C36.48,25.5142356 34.4742356,27.52 32,27.52 Z M33.28,34.5605531 L33.28,46.7194469 C33.28,47.4266769 32.7118531,48 32,48 C31.2930755,48 30.72,47.4229585 30.72,46.7194469 L30.72,34.5605531 C30.72,33.8533231 31.2881469,33.28 32,33.28 C32.7069245,33.28 33.28,33.8570415 33.28,34.5605531 Z"/>
  </g>
</svg>
