<svg xmlns="http://www.w3.org/2000/svg" width="110" height="82" viewBox="0 0 110 82">
    <path fill="#343434" d="M23.972,33.826c-1.81-0.859-2.94-2.35-3.75-4.109c-0.81-1.761-1.27-3.62-1.58-5.561	c-0.14-0.859-0.32-1.76-0.45-2.67c-0.14-1-0.14-2.04-0.09-3.08c0.05-0.63,0.09-1.27,0.05-1.939c-0.05-1.4,0.05-2.801,0.32-4.25	c0.23-1.181,0.59-2.311,0.99-3.391c0.32-0.899,0.9-1.63,1.58-2.21c0.41-0.359,0.81-0.77,1.22-1.08c0.86-0.72,1.99-0.63,3.03-0.59	c1.63,0,3.16,0,4.07,1.58c0.68,1.22,0.95,2.58,1.31,3.89c0.72,2.671,0.45,5.381,0.27,8.141c-0.09,1.31,0.05,2.67-0.23,3.979	c-0.14,0.54-0.14,1.181-0.18,1.761c0,0.14-0.05,0.319-0.09,0.449c-0.32,0.86-0.68,1.67-1,2.49c-0.04,0.09-0.09,0.23-0.14,0.271	c-0.41,0.5-0.54,1.13-0.68,1.72c0,0.09,0,0.14-0.05,0.229c-0.18,0.591-0.41,1.221-0.63,1.851c0.54,0.45,1.08,0.99,1.76,0.899	c6.01-1.18,9.31-10.71,9.77-10.81c0.36-0.09,0.77-0.09,1.22-0.18c0,0.229,0.05,0.449,0,0.63c-0.18,0.5-0.36,0.95-0.59,1.45	c-1.54,3.26-3.35,6.38-6.28,8.55c-1.04,0.77-2.13,1.49-3.3,1.939c-1.31,0.5-2.62,0.63-3.98,0.771c-0.23,0-0.32,0.09-0.45,0.27	c-0.77,1.36-1.85,2.4-3.07,3.301c-0.59,0.449-1.22,0.859-1.85,1.31c-1.08,0.72-2.31,1.18-3.62,1.36c-0.59,0.05-1.18,0.09-1.76,0.18	c-0.77,0.09-1.49-0.13-2.22-0.32c-0.05-0.05-0.14-0.05-0.18-0.09c-1.72-1-3.21-2.22-4.25-3.93c-0.63-1.04-1.04-2.221-1.4-3.391	c-0.54-1.72-1.04-3.439-1.31-5.199c-0.18-1.4-0.09-2.801,0.09-4.21c0.09-0.681,0.14-1.36,0.23-2.03c0.23-1.311,0.45-2.67,0.72-3.98	c0.18-1.08,0.41-2.21,0.72-3.25c0.32-1.22,0.77-2.399,1.45-3.479c0.09-0.141,0.18-0.271,0.27-0.45c0.54-1.13,1.22-2.21,1.94-3.25	c1.04-1.58,2.44-2.89,4.07-3.89c0.45-0.271,0.9-0.591,1.4-0.771c0.99-0.45,1.94-0.95,2.89-1.49c0.36-0.18,0.72-0.359,1.09-0.59	c0.27-0.14,0.5-0.14,0.72,0.05c0.14,0.141,0.32,0.23,0.5,0.32c0.18,0.09,0.32,0.271,0.23,0.5c-0.05,0.15-0.19,0.29-0.37,0.43	c-0.31,0.181-0.72,0.271-0.99,0.54c-0.45,0.41-0.95,0.721-1.49,0.99c-0.09,0.04-0.18,0.141-0.23,0.18	c-0.04,0.051-0.04,0.181-0.09,0.181c-0.54,0.18-0.77,0.63-1.13,0.95c-0.18,0.18-0.45,0.359-0.63,0.63c-0.5,0.72-0.99,1.54-1.49,2.31	c-0.04,0.09-0.14,0.18-0.18,0.271c-0.41,0.359-0.68,0.77-0.68,1.359c0,0.09-0.05,0.181-0.09,0.271c-0.32,0.63-0.36,1.359-0.45,2.08	c0,0.18-0.05,0.41-0.09,0.59c-0.32,0.95-0.59,1.899-0.86,2.8c-0.09,0.36-0.18,0.72-0.23,1.08c-0.5,2.35-0.9,4.7-1.31,7.05	c-0.36,2.13-0.36,4.21-0.27,6.33c0.04,1.9,0.54,3.57,1.4,5.24c0.05,0.09,0.09,0.18,0.09,0.32c0.54,1.72,1.67,2.939,3.26,3.75	c0.9,0.449,1.85,0.319,2.67-0.23c0.86-0.54,1.63-1.22,2.31-1.9c0.77-0.77,1.4-1.63,2.08-2.489c0.09-0.091,0.14-0.181,0.23-0.32	C24.102,33.877,24.062,33.826,23.972,33.826z M26.271,29.536c0.09-0.14,0.18-0.319,0.23-0.5c0.27-0.899,0.59-1.81,0.81-2.71	c0.36-1.17,0.68-2.35,0.99-3.569c0.32-1.13,0.5-2.261,0.54-3.44c0.04-0.72,0.14-1.45,0.23-2.17c0.04-0.41,0.14-0.81,0.14-1.22	c0.05-1.761-0.36-3.44-0.68-5.11c-0.23-1.04-0.54-1.99-0.99-2.939c-0.32-0.54-0.5-1.181-1-1.631c-2.49-2.119-3.16,3.53-3.3,4.931	c-0.09,1.31-0.05,2.67,0,3.979c0.14,2.311,0.27,4.57,0.68,6.83c0.14,0.811,0.09,1.67,0.32,2.49c0.23,0.95,0.59,1.85,0.9,2.76	c0.09,0.271,0.18,0.54,0.32,0.811c0.18,0.54,0.45,0.989,0.68,1.489H26.271z"/>
    <path fill="#343434" d="M53.852,26.637c-0.41,2.13-0.5,4.3-0.63,6.42c-0.04,0.41-0.09,0.77-0.04,1.17c0,0.09-0.05,0.229-0.09,0.32	c0,0.18,0,0.229,0.18,0.449c0.04-0.04,0.09-0.09,0.13-0.14c0.09-0.09,0.14-0.18,0.23-0.27c0.54-0.86,1.13-1.671,1.581-2.53	c0.68-1.18,1.27-2.351,1.85-3.53c0.27-0.5,0.59-1,0.9-1.45c0.359-0.5,0.629-1.08,0.949-1.63c0.271-0.45,0.5-0.95,0.771-1.399	c0.18-0.32,0.36-0.591,0.54-0.9c0.14-0.27,0.32-0.54,0.449-0.81c0.131-0.271,0.271-0.54,0.41-0.771c0.141-0.18,0.32-0.229,0.59-0.09	c-0.09,0.18-0.129,0.36-0.27,0.54c-0.18,0.27-0.18,0.59-0.23,0.899v0.23c-0.049,0.36-0.139,0.72-0.319,1.08	c-0.229,0.54-0.319,1.13-0.63,1.58c-0.23,0.45-0.45,0.899-0.721,1.31c-0.719,1.221-1.27,2.49-1.939,3.71	c-0.721,1.4-1.359,2.851-2.35,4.11c-0.99,1.18-2.71,2.31-4.34,1.99c-0.54-0.141-0.9-0.5-1.13-0.99c-0.13-0.36-0.32-0.72-0.36-1.13	c-0.18-0.99-0.27-2.03-0.27-3.03v-1.17c0.09-1.72,0.32-3.35,0.68-5.02c0.14-0.681,0.23-1.36,0.36-2.04	c0.14-0.86,0.27-1.761,0.41-2.62c0.13-0.681,0.27-1.36,0.36-2.03c0.14-0.81,0.27-1.58,0.27-2.4v-0.229	c-0.23,0.09-0.41,0.18-0.59,0.32c-0.09,0.05-0.14,0.14-0.18,0.229c-0.13,0.14-0.18,0.32-0.27,0.45c-0.09,0.13-0.14,0.229-0.23,0.32	c-0.68,0.409-1.04,1.359-1.45,2.029c-0.54,0.811-1.18,1.63-1.76,2.44c-0.54,0.77-0.95,1.63-1.36,2.439	c-0.36,0.771-0.86,1.54-1.13,2.311c0,0,0,0.04-0.05,0.04c-0.27,0.319-0.32,0.72-0.45,1.13c-0.04,0.27-0.18,0.54-0.32,0.77	c-0.14,0.271-0.32,0.5-0.18,0.811c0,0.09-0.05,0.18-0.09,0.27c-0.14,0.32-0.32,0.63-0.5,1c-0.09,0.181-0.18,0.23-0.41,0.181	c-0.23-0.091-0.36-0.04-0.54,0.09c-0.05,0.04-0.14,0.14-0.18,0.14c-0.36-0.05-0.63,0.141-0.9,0.271c-0.5,0.229-0.9,0.14-1.36,0	c-0.23-0.04-0.32-0.23-0.41-0.45c-0.04-0.18-0.04-0.36-0.09-0.54c-0.04-0.45-0.09-0.86-0.09-1.311c0-0.14,0-0.319-0.05-0.449	c0-0.141,0.05-0.271,0-0.41c-0.09-0.771-0.09-1.54-0.09-2.311c0-0.14,0-0.27-0.04-0.409c-0.05-0.5-0.05-1.04-0.05-1.58v-1.08	c-0.05-0.771-0.05-1.49-0.05-2.261c0-0.27,0-0.5-0.04-0.77v-0.32c0.09-1.22,0.18-2.489,0.27-3.75c0.05-0.72,0.14-1.489,0.23-2.22	c0.05-0.32,0.14-0.63,0.23-0.95c0.05-0.229,0.23-0.359,0.45-0.41c0.59-0.09,1.09-0.04,1.63,0.23c0.04,0,0.09,0.04,0.09,0.09	c0.14,0.23,0.36,0.32,0.54,0.45c0.05,0.18,0.14,0.41,0.18,0.59c0.05,0.04,0.05,0.09,0.09,0.09c0.41,0.18,0.59,0.5,0.63,0.95	c0,0.54-0.09,1.13,0.09,1.67c0.14,0.45,0.36,0.9,0.27,1.4c-0.05,0.63-0.09,1.22-0.18,1.81c-0.09,0.72-0.23,1.4-0.18,2.13	c0,0.271,0.14,0.54,0.14,0.811c0,0.319-0.09,0.63-0.05,0.949c0.05,0.41,0.05,0.811,0,1.221c0,0.359,0,0.68,0.05,1.04	c0.18,0,0.18-0.13,0.23-0.23c0.36-0.68,0.68-1.359,1.04-2.03c0.09-0.229,0.23-0.409,0.32-0.63c0.09-0.18,0.18-0.41,0.27-0.63	c0.14-0.319,0.27-0.68,0.45-0.99c0.14-0.18,0.23-0.359,0.32-0.54c0.5-0.899,0.99-1.81,1.49-2.71c0.27-0.449,0.54-0.949,0.86-1.399	s0.63-0.95,0.95-1.4c0.32-0.41,0.63-0.77,0.99-1.08c0.68-0.59,1.49-0.81,2.35-0.77h1.08c0.36-0.04,0.68,0.09,0.95,0.32	c0.271,0.319,0.591,0.59,0.86,0.859c0.14,0.18,0.27,0.36,0.23,0.54c-0.041,0.271,0.039,0.5,0.139,0.771	c0.32,0.899,0.32,2.439,0.181,3.439c-0.04,0.41-0.13,0.86-0.229,1.271C54.841,22.526,54.251,24.557,53.852,26.637L53.852,26.637z"/>
    <path fill="#343434" d="M71.521,21.937c-0.09,0.27-0.13,0.5-0.181,0.68c-0.27,0.45-0.359,0.9-0.59,1.36	c-0.039,0.14-0.14,0.32-0.229,0.45c-0.229,0.18-0.319,0.45-0.41,0.72c-0.09,0.13-0.14,0.27-0.229,0.45	c-0.141,0.27-0.271,0.5-0.32,0.77c-0.05,0.13-0.18,0.32-0.23,0.45c-0.27,0.68-0.59,1.311-0.77,2.03l-0.09,0.04	c-0.23,0.359-0.41,0.68-0.68,1.04c-0.32,0.54-0.951,0.899-1.49,1.31c-0.27,0.32-0.68,0.5-1.04,0.63c-0.05,0-0.14,0.04-0.181,0.09	c-0.41,0.091-0.81,0.141-1.129,0.23c-0.271,0.04-0.541,0.04-0.721-0.04c-0.449-0.18-0.949-0.27-1.359-0.45	c-0.681-0.27-1.041-0.77-1.36-1.359c-0.271-0.631-0.36-1.271-0.45-1.94c-0.09-0.68-0.04-1.31-0.04-1.99c-0.05-0.72,0-1.49,0-2.26	c-0.05-1.27,0-2.49,0.14-3.75c0.09-0.63,0.131-1.27,0.23-1.9c0.05-0.68,0.141-1.22,0.27-1.85c0.18-0.54,0.36-1.04,0.541-1.63	c0.049-0.18,0.18-0.18,0.319-0.18c0.36,0.04,0.72,0,1,0.18c0.229,0.09,0.36,0.18,0.45,0.36c0.09,0.27,0.23,0.409,0.359,0.72	c0.051,0.09,0.141,0.27,0.141,0.41c0.04,0.409,0.04,0.81,0.13,1.22c0.09,0.81,0,1.58,0,2.35c0.04,0.32,0.04,0.59-0.04,0.95	c-0.04,0.18,0,0.36,0,0.54c0.04,0.45,0.09,0.811-0.04,1.271c-0.14,0.54-0.09,1.04-0.14,1.67v0.59c-0.051,0.05-0.09,0.05-0.09,0.09	c0.09,0.54-0.041,1.04-0.09,1.49c0.039,0.09,0,0.229,0,0.27c0.129,0.32,0.09,0.59,0.09,0.811c-0.041,0.319-0.09,0.59-0.041,0.859	c0.09,0.41,0.141,0.86,0.09,1.311c0.051,0.41,0.141,0.68,0.32,1c0.051,0.09,0.141,0.09,0.23,0.09c0.141,0,0.32,0,0.449-0.04	c0.361-0.14,0.631-0.41,0.9-0.63c0.18-0.181,0.41-0.36,0.5-0.59c0.721-0.86,1.4-1.721,1.94-2.67c0.18-0.45,0.45-0.771,0.63-1.271	c0.32-0.41,0.5-0.81,0.721-1.36c0.319-0.63,0.59-1.18,0.809-1.899c0.041-0.23,0.221-0.36,0.32-0.63c0.23-0.36,0.59-0.5,1.08-0.54	C71.432,21.576,71.521,21.757,71.521,21.937z M61.302,10.227c0.09-0.05,0.14-0.09,0.18,0c0.18,0.04,0.45,0,0.68,0	c0.5-0.09,0.95,0.09,1.221,0.5c-0.09,0.54-0.18,1.08-0.36,1.63c-0.13,0.13-0.271,0.271-0.41,0.45c0,0-0.04,0-0.09,0.04	c-0.319,0-0.681,0.09-1-0.23c-0.181-0.18-0.36-0.359-0.45-0.59c-0.23-0.27-0.359-0.54-0.32-0.95c0.041-0.229-0.039-0.5,0-0.72	C60.941,10.316,61.081,10.227,61.302,10.227L61.302,10.227z"/>
    <path fill="#343434" d="M9.512,47.857c0.42,0.479,0.8,1.059,0.96,1.729c0.11,0.54,0.44,0.979,0.59,1.47c0.2,0.45,0.3,0.85,0.4,1.25	c0.16,0.58,0.22,1.17,0.42,1.75c0.26,0.9,0.45,3.88,0.42,4.38c0,0.091-0.04,0.181-0.04,0.271c0.06,0.5,0.13,1.039,0.19,1.58h0.05	c0.52-0.74,1.18-1.351,1.6-2.18c0.21-0.371,0.56-0.74,0.78-1.111c0.26-0.42,0.42-0.879,0.68-1.34c0.69-1.149,1.42-2.31,2.15-3.51	c0.17-0.32,0.39-0.6,0.6-0.92c0.13-0.189,0.36-0.15,0.5,0.03c0.05,0.09,0.1,0.22,0.06,0.31c-0.04,0.18-0.12,0.41-0.25,0.6	c-0.25,0.511-0.42,1.051-0.58,1.601c-0.29,0.87-0.58,1.74-0.86,2.61c-0.13,0.32-0.34,0.6-0.56,0.92c-0.9,1.39-1.81,2.77-2.76,4.16	c-0.39,0.56-0.87,1.07-1.3,1.58c-0.13,0.14-0.22,0.32-0.21,0.55c0.06,0.45,0.12,0.95,0.14,1.399c0.02,0.631,0.09,1.26,0.06,1.9	c-0.01,1.04,0.03,2.13,0.15,3.16c0.16,0.85,0.05,1.49-0.01,2.4c-0.07,1.859-0.48,4.5-1.56,6.069c-0.17,0.229-0.3,0.55-0.52,0.79	c-0.22,0.28-0.53,0.52-0.83,0.75c-0.75,0.57-1.6,1-2.54,1.26c-0.63,0.16-1.26,0.131-1.85,0.11c-0.5-0.03-1.04-0.101-1.55-0.17	c-0.73-0.16-1.42-0.5-2.02-0.97c-0.28-0.221-0.51-0.44-0.7-0.66c-0.7-0.75-0.91-1.6-0.81-2.551c0.1-0.949,0.34-1.91,0.81-2.739	c0.52-0.79,0.99-1.53,1.65-2.229c0.39-0.421,0.69-0.881,1.04-1.391c0.48-0.6,0.91-1.301,1.38-1.9c0.43-0.6,1-1.07,1.62-1.5	c0.22-0.14,0.35-0.33,0.48-0.51c0.17-0.32,0.43-0.6,0.69-0.88c0.09-0.14,0.22-0.28,0.39-0.42c0.31-0.19,0.35-0.511,0.29-0.87	c-0.33-1.891-0.44-3.79-0.55-5.68c-0.01-0.32-0.06-0.59-0.07-0.86c0.01-1,0.02-2.04-0.01-3.03c0.03-0.539-0.03-1.039-0.05-1.58	c-0.04-1.129-0.07-2.209-0.15-3.3c-0.03-0.95,0.21-1.86,0.41-2.771c0-0.09,0.04-0.139,0.08-0.229c0,0,0.04-0.05,0.09-0.14	C8.892,47.197,9.222,47.507,9.512,47.857z M8.662,67.477c-0.65,0.971-2.49,2.71-2.75,3.03c-0.35,0.42-0.65,0.84-1,1.3	s-0.65,0.93-0.95,1.43c-0.21,0.371-0.43,0.74-0.6,1.15c-0.34,0.689-0.68,1.42-1.01,2.16c-0.3,0.6-0.27,1.279-0.25,1.949	c0.05,0.181,0.15,0.311,0.28,0.4c1.39,0.9,2.79,0.9,4.27,0.36c0.45-0.2,0.76-0.431,0.87-0.931c0.08-0.18,0.17-0.41,0.3-0.549	c0.6-0.971,0.84-2.021,0.94-3.111c0.06-0.819,0.08-1.629,0.14-2.449c0.03-0.54,0.01-1.08,0.04-1.58c-0.01-0.27-0.02-0.54-0.03-0.77	c0.02-0.811-0.01-1.631,0.01-2.44c0-0.04-0.05-0.09-0.1-0.22C8.751,67.337,8.711,67.387,8.662,67.477z M8.952,40.637	c0.09-0.09,0.31-0.101,0.45-0.01c1.14,0.369,1.45,1.439,0.76,2.369l-0.39,0.42c-0.31,0.33-0.58,0.341-0.86,0.031	c-0.38-0.4-0.66-0.881-0.64-1.561C8.162,41.387,8.512,40.967,8.952,40.637z"/>
    <path fill="#343434" d="M31.972,51.227c-0.04,0.141-0.08,0.27-0.17,0.37c-0.35,0.46-0.6,0.97-0.81,1.521	c-0.04,0.049-0.09,0.14-0.08,0.18c0.02,0.54-0.38,0.92-0.5,1.369c-0.26,0.33-0.38,0.781-0.64,1.15c-1.3,1.721-1.91,3.82-3.72,5.19	c-1.37,1.09-2.77,2.54-4.67,2.46c-0.68-0.02-1.32-0.27-2.01-0.43c-0.05,0-0.09-0.041-0.18-0.08c-0.55-0.34-1.06-0.69-1.49-1.221	c-0.62-0.84-0.92-1.779-1-2.77c-0.08-1.17-0.12-2.301-0.03-3.48c0.07-0.729,0.13-1.5,0.15-2.22c-0.01-0.18,0.03-0.319,0.07-0.5	c0.16-0.729,0.27-1.46,0.38-2.229c0.19-0.961,0.53-1.83,0.86-2.74c0.04-0.141,0.13-0.28,0.17-0.37c0.26-0.28,0.39-0.601,0.51-0.92	c0-0.04,0.04-0.091,0.04-0.14c0.16-0.641,0.59-1.201,1.08-1.66c0.09-0.09,0.22-0.19,0.31-0.24c0.75-0.43,1.51-0.77,2.37-0.939	c0.49-0.111,0.94-0.261,1.44-0.181c0.27-0.01,0.54,0.03,0.77,0.06c0.09,0,0.18,0.041,0.27,0.041c2.94-0.011,1.81,5.369,0.31,6.6	c-0.22,0.14-0.49,0.29-0.66,0.52c-0.04,0.09-0.13,0.141-0.22,0.141c-0.22,0.14-0.44,0.289-0.71,0.38c-0.54,0.2-1.03,0.44-1.52,0.55	c-0.81,0.16-0.77,0.12-0.92,0.8c-0.04,0.229-0.08,0.41-0.07,0.591c0.12,2.299-1.07,6.01,0.4,7.949c0.24,0.311,0.56,0.53,0.93,0.65	c0.19,0.13,0.36,0.08,0.59,0.029c0.4-0.149,0.8-0.34,1.16-0.629c0.53-0.381,1.02-0.761,1.5-1.141c0.22-0.189,0.4-0.38,0.57-0.609	c0.52-0.74,1.04-1.44,1.42-2.261c0.08-0.18,0.22-0.319,0.3-0.46c0.69-0.88,1.16-1.891,1.72-2.82c0.09-0.14,0.17-0.279,0.21-0.42	c0.29-0.729,0.68-1.38,1.11-2.029c0.08-0.18,0.21-0.371,0.49-0.381C31.742,51.007,31.832,51.097,31.972,51.227z M25.521,45.107	c0-0.091-0.05-0.181-0.14-0.221c-0.47-0.439-0.97-0.689-1.65-0.58c-0.49,0.109-0.85,0.35-1.01,0.85c-0.17,0.5-0.42,1.01-0.45,1.601	c0,0.14-0.03,0.319-0.12,0.46c-0.21,0.5-0.24,1.05-0.31,1.55c-0.03,0.41-0.06,0.771-0.19,1.14c-0.08,0.271-0.16,0.5-0.06,0.771	c0.77-0.12,1.44-0.319,2.11-0.66c0.44-0.239,0.8-0.521,1.05-0.94c0.39-0.56,0.69-1.109,1.03-1.709c0.04-0.09,0.13-0.23,0.03-0.36	c-0.05-0.22-0.01-0.41,0.07-0.63c0.04-0.141,0.08-0.32,0.12-0.461C25.771,45.646,25.622,45.377,25.521,45.107z"/>
    <path fill="#343434" d="M33.892,62.656c0.07-0.72,0.13-1.41,0.2-2.129c0.04-0.271,0.07-0.5,0.07-0.73c0.1-0.95,0.39-1.87,0.59-2.689	c0.16-0.551,0.24-1,0.31-1.461c0.04-0.14,0.04-0.18,0.04-0.27c0.07-0.59-0.17-1.04-0.81-1.33c-0.55-0.25-1.19-0.5-1.75-0.801	c-0.6-0.389-1.2-0.68-1.76-1.119c-0.93-0.65-1.68-1.44-2.03-2.561c-0.05-0.27-0.11-0.59-0.16-0.81c-0.12-0.899-0.11-1.81,0.05-2.72	c0.12-0.5,0.33-1.051,0.54-1.51c0.13-0.181,0.17-0.371,0.25-0.551s0.17-0.369,0.21-0.55c0.08-0.36,0.39-0.55,0.6-0.88	c0.13-0.141,0.22-0.23,0.26-0.37c0.18-0.19,0.4-0.38,0.62-0.47c0.49-0.15,1.04-0.131,1.49-0.051c0.45,0.03,0.87,0.15,1.27,0.23	c0.23,0.04,0.37,0.13,0.6,0.3c0.14,0.181,0.28,0.261,0.42,0.39c0.19,0.131,0.37,0.301,0.47,0.48c0.1,0.221,0.15,0.359,0.11,0.59	c0.01,0.18,0.01,0.32,0.06,0.5s-0.03,0.36-0.07,0.54c-0.04,0.229-0.08,0.36-0.07,0.54c0.01,0.18-0.08,0.41-0.16,0.641	c-0.08,0.319-0.3,0.6-0.38,0.869c-0.13,0.32-0.3,0.601-0.51,0.92c-0.3,0.551-0.69,1.061-1.22,1.49c-0.13,0.141-0.22,0.23-0.31,0.33	c-0.13,0.141-0.13,0.23-0.03,0.36c0.48,0.71,1.04,1.37,1.82,1.71c0.6,0.25,1.1,0.46,1.65,0.71c0.5,0.159,0.96,0.42,1.43,0.72	c0.32,0.21,0.65,0.43,0.84,0.79c0.19,0.271,0.38,0.58,0.35,0.89c-0.09,0.051,0,0.131,0.01,0.221c0.1,0.4,0.17,0.9,0.04,1.359v0.041	c0.1,0.399-0.2,0.779-0.19,1.18c-0.04,0.229-0.25,0.6-0.33,0.869c-0.03,0.32-0.11,0.641-0.19,0.961c-0.11,0.729-0.23,1.41-0.34,2.09	c-0.2,0.779-0.17,1.64-0.19,2.4c0.01,0.359-0.02,0.729-0.01,1.09c0.06,0.41,0.2,0.72,0.31,1.08c0.11,0.629,0.17,1.129,0.46,1.66	c0.29,0.579,0.9,1.329,1.57,0.989c0.27-0.19,0.44-0.42,0.66-0.66c0.09-0.09,0.13-0.18,0.17-0.319c0.21-0.42,0.42-0.871,0.73-1.291	c0-0.039,0.04-0.18,0.08-0.27c0.34-0.689,0.63-1.42,0.93-2.109c0.04-0.09,0.04-0.23,0.08-0.32c0.2-0.69,0.45-1.33,0.7-1.971	c0.12-0.459,0.33-0.83,0.45-1.369c0.08-0.36,0.2-0.641,0.33-1.01c0.16-0.641,0.37-1.23,0.57-1.92c0.12-0.461,0.19-1.051,0.27-1.551	c0.08-0.27,0.21-0.6,0.24-0.87c0.08-0.271,0.16-0.59,0.24-0.87c0.29-0.83,0.54-1.6,0.83-2.289c0.17-0.371,0.34-0.69,0.55-1.011	c0.13-0.18,0.49-0.149,0.63,0.021c0.05,0.039,0.05,0.09,0.05,0.09c-0.08,0.32-0.03,0.59-0.02,0.82c0,0.129,0.01,0.359-0.07,0.5	c-0.04,0.09-0.04,0.14-0.04,0.229c0.02,0.5-0.15,0.86-0.23,1.271c-0.08,0.27-0.17,0.459-0.29,0.689c-0.24,0.91-0.62,1.74-0.82,2.609	c-0.12,0.551-1.48,4.621-2.06,6.131c-0.21,0.5-0.33,0.96-0.5,1.369c-0.04,0.23-0.17,0.461-0.3,0.641c-0.25,0.55-0.5,1.15-0.76,1.74	c-0.04,0.18-0.13,0.32-0.21,0.5c-0.04,0.09-0.08,0.23-0.17,0.369c-0.17,0.281-0.39,0.471-0.57,0.701	c-0.26,0.239-0.48,0.56-0.74,0.789c-0.18,0.101-0.26,0.19-0.4,0.291c-0.18,0.1-0.4,0.189-0.67,0.289	c-0.13,0.141-0.26,0.24-0.49,0.24c-0.07,0.08-0.16,0.08-0.25,0.17c-0.26,0.33-0.62,0.381-0.99,0.26	c-0.27,0.01-0.45-0.029-0.68-0.109c-0.36,0.01-0.68-0.16-1-0.28c-0.97-0.51-1.67-1.3-1.98-2.47c-0.16-0.631-0.23-1.35-0.34-1.93	c-0.06-0.451-0.12-0.86-0.13-1.311C33.841,63.837,33.821,63.207,33.892,62.656L33.892,62.656z M33.271,47.977	c0.13-0.23,0.21-0.5,0.39-0.65c0.21-0.319,0.34-0.64,0.51-1.01c0.13-0.229,0.17-0.41,0.16-0.64c0.03-0.59,0.14-1.271,0.21-1.91	c0-0.09-0.01-0.18-0.06-0.31c-0.24-0.4-0.61-0.66-0.98-0.83c-0.05,0-0.09-0.04-0.14,0c-0.05,0-0.13,0.05-0.13,0.09	c0.01,0.18-0.22,0.32-0.26,0.46c-0.13,0.181-0.21,0.41-0.21,0.59c0,0.13-0.04,0.229-0.12,0.37c-0.3,0.51-0.41,1.189-0.44,1.779	c-0.04,0.091,0.01,0.181,0.01,0.271c0.01,0.181,0.01,0.36,0.01,0.45c0.01,0.32,0.02,0.63-0.01,1c0.01,0.359,0.07,0.811,0.22,1.21	C32.702,48.666,33.091,48.246,33.271,47.977z"/>
    <path fill="#343434" d="M56.892,50.717c-0.08,0.27-0.12,0.5-0.16,0.68c-0.26,0.461-0.33,0.92-0.54,1.381	c-0.04,0.139-0.13,0.319-0.21,0.459c-0.22,0.19-0.3,0.461-0.38,0.74c-0.09,0.141-0.13,0.28-0.21,0.46	c-0.13,0.28-0.25,0.511-0.29,0.78c-0.04,0.141-0.17,0.32-0.21,0.46c-0.25,0.69-0.54,1.33-0.7,2.06l-0.09,0.051	c-0.21,0.369-0.38,0.689-0.64,1.06c-0.3,0.55-0.92,0.94-1.45,1.36c-0.26,0.33-0.66,0.52-1.02,0.67c-0.04,0-0.13,0.05-0.18,0.1	c-0.4,0.1-0.81,0.16-1.12,0.26c-0.27,0.051-0.54,0.061-0.73-0.02c-0.46-0.17-0.96-0.24-1.37-0.41c-0.69-0.25-1.07-0.73-1.4-1.311	c-0.29-0.619-0.4-1.25-0.52-1.93c-0.11-0.68-0.09-1.31-0.11-1.99c-0.07-0.719-0.05-1.489-0.08-2.26c-0.09-1.26-0.08-2.49,0.01-3.76	c0.07-0.63,0.09-1.27,0.16-1.91c0.02-0.68,0.1-1.22,0.21-1.859c0.16-0.551,0.33-1.051,0.49-1.641c0.04-0.18,0.17-0.189,0.31-0.189	c0.36,0.029,0.72-0.021,1,0.15c0.23,0.079,0.37,0.17,0.46,0.35c0.1,0.27,0.24,0.4,0.39,0.709c0.05,0.091,0.14,0.271,0.15,0.4	c0.06,0.4,0.07,0.811,0.18,1.211c0.12,0.81,0.05,1.58,0.08,2.35c0.06,0.31,0.06,0.58-0.01,0.949c-0.04,0.181,0.01,0.36,0.02,0.541	c0.06,0.449,0.12,0.81,0,1.27c-0.12,0.55-0.06,1.04-0.08,1.68c0.01,0.18,0.02,0.45,0.02,0.59c-0.04,0.051-0.09,0.051-0.09,0.09	c0.11,0.541-0.01,1.041-0.04,1.49c0.05,0.09,0.01,0.23,0.01,0.271c0.15,0.31,0.11,0.58,0.12,0.81c-0.03,0.32-0.07,0.59-0.02,0.86	c0.1,0.399,0.16,0.851,0.13,1.31c0.06,0.41,0.16,0.67,0.35,0.98c0.05,0.09,0.14,0.09,0.23,0.08c0.14,0,0.32-0.01,0.45-0.061	c0.36-0.149,0.62-0.43,0.88-0.66c0.17-0.189,0.39-0.379,0.48-0.6c0.69-0.88,1.34-1.76,1.85-2.73c0.17-0.459,0.43-0.789,0.59-1.289	c0.3-0.42,0.471-0.83,0.68-1.381c0.301-0.64,0.551-1.199,0.75-1.93c0.041-0.23,0.211-0.369,0.301-0.64	c0.209-0.37,0.569-0.521,1.069-0.58C56.792,50.357,56.882,50.537,56.892,50.717z M46.282,39.347c0.09-0.05,0.13-0.101,0.18-0.01	c0.18,0.04,0.45-0.011,0.68-0.021c0.49-0.11,0.95,0.061,1.24,0.46c-0.07,0.54-0.15,1.091-0.31,1.64	c-0.13,0.141-0.26,0.281-0.39,0.461c0,0-0.04,0-0.09,0.05c-0.32,0.01-0.68,0.11-1-0.19c-0.19-0.17-0.37-0.35-0.47-0.57	c-0.24-0.26-0.38-0.529-0.35-0.939c0.04-0.23-0.06-0.5-0.02-0.72C45.921,39.456,46.062,39.356,46.282,39.347z"/>
    <path fill="#343434" d="M55.132,53.767c0.08-0.319,0.07-0.68,0.1-1c-0.02-0.5,0.01-0.95,0.09-1.45c0.051-1.09,0.43-2.1,0.53-3.18	c0.04-0.09,0.04-0.141,0.08-0.23c0.12-0.5,0.239-1.049,0.45-1.549c0.209-0.551,0.459-1.101,0.67-1.611	c0.21-0.459,0.42-0.83,0.64-1.239c0.04-0.091,0.08-0.181,0.08-0.229c0.261-0.511,0.649-0.841,1.09-1.121	c0.58-0.289,1.11-0.58,1.69-0.83c0.31-0.149,0.63-0.199,0.99-0.299c0.31-0.061,0.67-0.111,0.99-0.17	c0.18-0.051,0.359-0.061,0.539-0.061c0.95-0.12,1.811,0.119,2.641,0.5c0.14,0.04,0.279,0.17,0.42,0.26	c0.14,0.08,0.229,0.221,0.24,0.4c0.049,0.18,0.149,0.359,0.199,0.539c0.15,0.311,0.25,0.58,0.21,0.94	c-0.04,0.05-0.04,0.14,0.011,0.229c0.02,0.451-0.15,0.871-0.32,1.23c-0.21,0.37-0.84,0.57-1.16,0.45	c-0.09-0.04-0.18-0.08-0.141-0.22c0.041-0.32,0.031-0.59,0.11-0.91c0.08-0.37-0.02-0.68-0.079-1.04	c-0.011-0.181-0.101-0.31-0.24-0.44c-0.19-0.129-0.371-0.3-0.65-0.39c-0.28-0.13-0.51-0.25-0.78-0.34	c-0.18-0.08-0.319-0.08-0.45,0.021c-0.22,0.189-0.439,0.33-0.66,0.52c-0.129,0.09-0.219,0.23-0.26,0.33	c-0.16,0.55-0.42,1.01-0.77,1.43c-0.26,0.33-0.471,0.74-0.59,1.2c-0.12,0.46-0.29,0.87-0.41,1.33c-0.04,0.09-0.08,0.18-0.08,0.319	c-0.07,0.59-0.23,1.181-0.391,1.78c-0.119,0.37-0.25,0.78-0.279,1.19c0,0.14-0.08,0.32-0.12,0.46c-0.17,0.46-0.24,0.87-0.271,1.319	c-0.029,0.461-0.149,0.91-0.22,1.41c-0.04,0.051-0.04,0.141-0.04,0.18c-0.029,0.641-0.05,1.271-0.029,1.861	c-0.041,0.229,0.01,0.409,0.06,0.59c0,0.09,0.05,0.18,0.01,0.229c-0.079,0.36,0.07,0.72,0.08,1.08c0,0.14,0.011,0.319,0.021,0.5	c-0.041,0.319-0.021,0.63,0.119,0.95c0.101,0.18,0.15,0.4,0.25,0.63c0.051,0.22,0.15,0.489,0.25,0.76	c0.101,0.22,0.24,0.399,0.431,0.58c0.28,0.22,0.55,0.3,0.87,0.149c0.13-0.049,0.27-0.1,0.4-0.1c0.76-0.16,1.479-0.5,2.189-0.93	c0.311-0.189,0.529-0.471,0.74-0.75c0.35-0.42,0.699-0.79,1.05-1.17c0.479-0.51,0.92-1.03,1.399-1.54	c0.65-0.75,1.311-1.49,1.871-2.33c0.039-0.05,0.039-0.091,0.09-0.14c0.66-0.61,1.08-1.44,1.56-2.181c0.13-0.14,0.17-0.319,0.26-0.51	c0.13-0.28,0.25-0.55,0.47-0.83c0.17-0.319,0.48-0.51,0.891-0.44c0.23,0.041,0.32,0.17,0.29,0.4c-0.04,0.27-0.16,0.5-0.341,0.74	c-0.219,0.279-0.43,0.6-0.699,0.88c-0.08,0.14-0.131,0.229-0.26,0.319c-0.17,0.19-0.351,0.371-0.391,0.601	c0,0.09-0.08,0.181-0.13,0.229c-0.13,0.19-0.3,0.371-0.43,0.561c0.05,0.27-0.171,0.41-0.25,0.6c-0.13,0.28-0.3,0.551-0.47,0.83	c-0.041,0.09-0.09,0.141-0.131,0.19c-0.35,0.239-0.52,0.649-0.83,0.979l-0.039,0.051c-0.381,0.74-1.09,1.17-1.621,1.77	c-0.129,0.18-0.26,0.37-0.389,0.561c-0.48,0.649-0.951,1.3-1.66,1.729c-0.84,0.57-1.681,1.101-2.67,1.45	c-0.761,0.25-1.57,0.5-2.381,0.67c-0.23,0.01-0.449,0.01-0.68-0.07c-0.18-0.08-0.37-0.17-0.551-0.21	c-0.51-0.21-0.879-0.47-1.25-0.819c-0.09-0.131-0.139-0.221-0.239-0.311c-0.61-0.52-0.899-1.189-1.149-1.91	c-0.101-0.22-0.15-0.4-0.25-0.63c-0.101-0.31-0.16-0.67-0.17-0.989c-0.07-0.721-0.091-1.44-0.121-2.121	C55.032,54.767,55.102,54.267,55.132,53.767L55.132,53.767z"/>
    <path fill="#343434" d="M78.392,52.177c-0.12,0.41-0.29,0.83-0.689,1.06c-0.041,0.051-0.131,0.141-0.131,0.23	c-0.21,0.59-0.6,1.109-0.76,1.75c-0.04,0.18-0.21,0.37-0.34,0.55c-0.21,0.41-0.471,0.79-0.45,1.33c0,0.09-0.04,0.14-0.08,0.229	c-0.29,0.781-0.351,1.641-0.37,2.461c0.02,0.5-0.109,0.949-0.23,1.41c-0.119,0.369-0.159,0.729-0.01,1.09	c0.051,0.22,0.021,0.449-0.02,0.68c-0.21,0.641-0.41,1.24-0.529,1.83c-0.08,0.369-0.25,0.689-0.421,1.05	c0,0.05-0.13,0.101-0.18,0.14c-0.36,0.01-0.64-0.25-0.96-0.289c-0.09,0.09-0.17,0.229-0.26,0.369c-0.18,0.01-0.271-0.08-0.371-0.17	c-0.189-0.22-0.409-0.21-0.639-0.16c-0.051,0-0.091,0.051-0.131,0.051c-0.27,0.05-0.359,0.01-0.46-0.26	c0-0.051-0.05-0.091-0.05-0.131c0.029-0.449-0.21-0.81-0.311-1.26c-0.149-0.49-0.209-1.04-0.279-1.529	c-0.07-0.681-0.04-1.361-0.16-1.99v-0.041c-0.029-0.949-0.15-1.85-0.23-2.75c-0.06-0.449,0.021-0.899,0.051-1.31	c-0.01-0.36,0.02-0.68,0.01-1.04c-0.02-0.63-0.04-1.27,0.029-1.859c0.031-0.541,0.011-1.041-0.049-1.541	c-0.07-0.81-0.051-1.629,0.049-2.449c0.08-0.461,0.111-0.91,0.181-1.36c0.11-0.86,0.21-1.771,0.319-2.64	c0.15-0.86,0.211-1.73,0.371-2.59c-0.01-0.23,0.029-0.45,0.109-0.68c0.15-0.82,0.35-1.641,0.551-2.421c0-0.04,0.039-0.14,0.039-0.18	c0.32-1.19,0.65-2.38,0.971-3.561c0.279-0.96,0.619-1.92,0.949-2.84c0.16-0.5,0.381-0.96,0.59-1.42c0.121-0.41,0.33-0.78,0.551-1.1	c0.17-0.32,0.34-0.65,0.46-1.011c0.21-0.51,0.42-1.01,0.86-1.39c0.26-0.23,0.43-0.56,0.6-0.92c0.17-0.37,0.38-0.69,0.74-0.97	c0.97-0.801,2.129-1.2,3.399-1.33c0.271-0.011,0.54-0.061,0.81-0.07c0.5-0.06,1.041,0.01,1.541,0.13c0.91,0.15,1.779,0.39,2.56,0.82	c0.511,0.25,0.88,0.649,1.261,1.13c0.289,0.4,0.479,0.84,0.629,1.34c0.051,0.13,0.101,0.22,0.15,0.36c0.1,0.22,0.2,0.489,0.21,0.76	c0.011,0.18,0.05,0.31,0.06,0.5c0.051,0.22,0.11,0.45,0.07,0.68c-0.109,0.771-0.04,1.54-0.109,2.271	c-0.061,0.859-0.211,1.68-0.371,2.46c-0.59,2.6-2.6,4.7-4.069,6.79c-0.69,0.971-1.25,1.76-2.13,2.51	c-0.84,0.66-1.721,1.33-2.561,2.03c-1.449,1.229-2.68,2.489-4.56,3.05c-0.72,0.2-0.63,0.2-0.74,0.881	c-0.079,0.359-0.11,0.68-0.1,1.039c-0.03,0.36,0.021,0.68,0.03,1c0.049,0.27,0.02,0.5,0.02,0.721c-0.04,0.27-0.029,0.59-0.061,0.859	c-0.119,0.59-0.049,1.18-0.029,1.77c-0.03,0.41-0.061,0.82,0,1.221c0.05,0.09,0.05,0.13,0.1,0.27c0.09-0.14,0.131-0.229,0.17-0.32	c0.33-0.959,0.891-1.889,1.311-2.85c0.21-0.459,0.52-0.83,0.77-1.289c0.17-0.281,0.391-0.601,0.6-0.92	c0.17-0.191,0.351-0.421,0.521-0.611c0.479-0.51,1.05-0.939,1.63-1.319c0.53-0.33,1.16-0.49,1.801-0.42	c0.319-0.011,0.5,0.159,0.689,0.38c0.1,0.18,0.24,0.35,0.38,0.529c0.19,0.171,0.29,0.4,0.341,0.671	c0.409,1.521,1.039,2.81,1.1,4.489c0.039,2.67-0.68,5.36-0.41,8.07c0.119,0.77,0.189,1.53,0.26,2.301	c0.01,0.27-0.029,0.5-0.02,0.729c0.02,0.54,0.209,0.99,0.55,1.431c0.09,0.129,0.229,0.17,0.409,0.17	c0.41-0.011,0.721-0.211,1.031-0.44c0.219-0.19,0.439-0.42,0.609-0.66c0.3-0.46,0.6-0.92,0.859-1.39c0.681-1.2,1.23-2.48,1.73-3.771	c0.08-0.14,0.12-0.319,0.17-0.46c0.04-0.141,0.08-0.32,0.12-0.46c0.42-0.96,0.61-1.97,1.03-2.931c0.08-0.229,0.17-0.459,0.199-0.689	c0.121-0.5,0.33-0.92,0.5-1.369c0.42-0.961,0.791-2.021,0.98-3.07c0.15-0.82,0.35-1.69,0.551-2.51	c0.119-0.371,0.289-0.73,0.459-1.101c0.131-0.28,0.301-0.51,0.471-0.79c0.17-0.279,0.39-0.42,0.76-0.391	c0.189,0.271,0.109,0.591,0.029,0.861c-0.039,0.27-0.159,0.549-0.239,0.819c-0.091,0.14-0.13,0.28-0.07,0.46	c0.05,0.13,0.011,0.27-0.03,0.359c-0.119,0.5-0.24,1-0.359,1.551c-0.08,0.27-0.16,0.55-0.29,0.87c-0.5,1.37-0.82,2.7-0.99,4.2	c-0.29,2.18-1.22,4.199-2.149,6.18c-0.76,1.561-1.42,3.71-2.92,4.71c-0.531,0.33-1.021,0.67-1.601,0.819	c-0.13,0.051-0.22,0.141-0.36,0.19c-0.22,0.101-0.449,0.2-0.72,0.16c-0.13,0-0.22,0.05-0.36,0.06	c-1.029,0.311-2.229-0.289-2.799-1.22c-0.291-0.489-0.531-0.979-0.691-1.56c-0.27-1.44-0.229-2.891-0.459-4.381	c-0.07-0.81-0.061-1.76-0.08-2.58c0.06-2.35,0.48-4.539,0.539-6.899c-0.02-0.63,0.051-1.31-0.02-1.989	c0-0.141-0.01-0.271-0.15-0.361C79.171,51.197,78.552,51.717,78.392,52.177z M73.741,57.937v-0.04V57.937z M74.481,49.097	c0.53-0.38,1.109-0.76,1.59-1.14c0.75-0.61,1.45-1.23,2.16-1.791c1.01-0.85,1.84-1.779,2.67-2.76c0.131-0.189,0.301-0.369,0.43-0.56	c0.521-0.56,1.051-1.17,1.57-1.729c0.131-0.141,0.221-0.28,0.35-0.42c0.391-0.461,0.69-1.021,0.99-1.57	c0.641-1.11,1.19-2.261,1.65-3.45c0.13-0.37,0.199-0.69,0.33-1.05c0.04-0.271,0.07-0.591,0.109-0.86c0.07-0.5,0.101-1,0.131-1.45	c-0.01-0.36-0.021-0.72,0.01-1.09c0.04-0.18,0.029-0.41-0.02-0.59c-0.051-0.13-0.101-0.221-0.061-0.36	c-0.01-0.41-0.12-0.77-0.311-1.12c-0.049-0.09-0.1-0.18-0.1-0.27c-0.061-0.36-0.25-0.67-0.49-0.98c-0.14-0.22-0.289-0.439-0.39-0.71	c-0.101-0.31-0.29-0.49-0.56-0.66c-0.181-0.08-0.371-0.12-0.51-0.26c-0.371-0.21-0.781-0.2-1.131-0.1	c-0.54,0.149-1.029,0.439-1.47,0.729l-0.39,0.42c-0.17,0.23-0.34,0.511-0.521,0.74c-0.13,0.19-0.26,0.37-0.25,0.64	c0,0.091-0.04,0.181-0.08,0.23c-0.34,0.6-0.55,1.19-0.8,1.84c-0.04,0.14-0.13,0.23-0.12,0.41c0,0.09-0.08,0.229-0.13,0.32	c-0.13,0.189-0.17,0.37-0.21,0.55c-0.07,0.59-0.229,1.09-0.53,1.6c-0.08,0.181-0.119,0.37-0.21,0.5	c-0.159,0.55-0.319,1.141-0.489,1.65c-0.211,0.5-0.281,1.05-0.451,1.55c-0.17,0.32-0.199,0.73-0.33,1.1	c-0.199,0.69-0.449,1.37-0.659,2.011c-0.08,0.27-0.171,0.5-0.2,0.77c-0.061,0.771-0.359,1.461-0.7,2.15	c-0.13,0.279-0.25,0.6-0.29,0.92c-0.08,0.45-0.15,0.91-0.27,1.41c-0.04,0.23-0.12,0.46-0.16,0.73c-0.08,0.41-0.061,0.819-0.28,1.189	c-0.04,0.05-0.04,0.141-0.04,0.18c0.01,0.271-0.029,0.541-0.199,0.78c-0.08,0.181-0.121,0.37-0.03,0.63	C74.262,49.187,74.392,49.137,74.481,49.097L74.481,49.097z"/>
    <path fill="#343434" d="M96.831,43.467c-0.09,0.09-0.17,0.189-0.22,0.279c-0.079,0.23-0.17,0.41-0.39,0.561	c-0.08,0.32-0.301,0.51-0.43,0.74c-0.17,0.369-0.34,0.779-0.41,1.23c-0.19,0.959-0.391,1.959-0.67,2.92	c-0.211,0.64-0.32,1.319-0.48,1.959c-0.16,0.641-0.46,1.24-0.57,1.871c0,0.049-0.039,0.139-0.08,0.229	c-0.34,0.51-0.369,1.101-0.31,1.68c0.069,0.63,0.13,1.261,0.24,1.89c0.01,0.23,0.149,0.4,0.329,0.531	c0.191,0.18,0.421,0.35,0.611,0.52c0.229,0.17,0.459,0.21,0.68,0.109c0.76-0.3,1.52-0.5,2.14-1.07c0.31-0.239,0.71-0.479,1.021-0.76	c0.22-0.14,0.35-0.33,0.529-0.52c0.35-0.37,0.65-0.75,0.91-1.21c0,0,0.04-0.05,0.04-0.09c0.08-0.32,0.21-0.55,0.38-0.78	c0.04-0.09,0.04-0.18,0.08-0.32c-0.279-0.129-0.55-0.3-0.83-0.47c-0.79-0.47-1.48-1.04-2.05-1.739	c-0.24-0.311-0.47-0.621-0.66-0.931c-0.63-1.11-0.71-2.28-0.479-3.47c0.109-0.73,0.449-1.37,0.699-2.01	c0-0.041,0.041-0.09,0.041-0.09c0.359-0.15,0.52-0.561,0.93-0.621c0.18-0.01,0.359-0.06,0.539-0.109	c0.631-0.11,1.091,0.189,1.641,0.439c0.689,0.34,1.471,0.631,1.85,1.34c0.34,0.58,0.53,1.07,0.561,1.75	c0.05,0.271,0.109,0.49,0.16,0.721c0.15,0.54,0.18,1.22,0.15,1.76c-0.031,0.45-0.33,0.83-0.371,1.23	c-0.08,0.32-0.07,0.59-0.149,0.959c0.14,0,0.229,0.08,0.319,0.08c0.271-0.01,0.59-0.06,0.9-0.119c1.801-0.33,3.48-1.471,4.75-2.78	c0.09-0.09,0.17-0.229,0.21-0.319c0.091-0.091,0.13-0.23,0.22-0.281c0.18-0.049,0.36-0.1,0.5-0.02c0.23,0.08,0.41,0.17,0.551,0.34	c-0.2,0.73-2.09,2.51-2.711,2.76c-0.799,0.301-1.51,0.871-2.31,1.211c-0.71,0.299-1.34,0.539-2.11,0.43	c-0.319-0.08-0.629,0.07-0.949,0.119c-0.221,0.051-0.35,0.281-0.44,0.511c-0.21,0.41-0.38,0.87-0.54,1.33	c-0.25,0.64-0.92,1.03-1.26,1.58c-0.26,0.37-0.561,0.829-0.91,1.069c-0.4,0.291-0.699,0.66-1.1,0.94	c-0.53,0.33-1.01,0.761-1.69,0.74c-0.68-0.021-1.37-0.41-1.97-0.71c-1.2-0.641-2.54-1.631-3.221-2.83	c-0.34-0.62-0.5-1.391-0.569-2.11c-0.12-0.81-0.19-1.62-0.17-2.44c0.06-0.77,0.22-1.539,0.42-2.279c0.33-1.1,0.739-2.15,1.21-3.16	c0.13-0.32,0.3-0.6,0.561-0.88c0.26-0.33,0.56-0.7,0.819-1.069c0.261-0.33,0.62-0.521,0.92-0.75c0.49-0.381,0.97-0.671,1.5-1.051	c0.181-0.141,0.399-0.189,0.67-0.16c0.45,0.03,0.87,0.15,1.28,0.41C97.222,42.957,97.052,43.227,96.831,43.467z M100.882,51.066	c0-0.09-0.01-0.18,0.039-0.27c0.351-0.42,0.371-1.189,0.311-1.689c-0.07-0.681-0.05-1.58-0.43-2.201	c-0.24-0.35-0.52-0.709-0.631-1.16v-0.049c-0.09-0.041-0.139-0.131-0.229-0.131c-0.09,0-0.18,0.051-0.22,0.19s-0.08,0.319-0.17,0.46	c-0.211,0.5-0.33,1.01-0.4,1.51c0,0.09-0.04,0.18-0.08,0.27c-0.25,0.601-0.279,1.141-0.08,1.721c0.2,0.58,0.49,1.12,0.87,1.561	c0.229,0.219,0.421,0.479,0.74,0.52C100.771,51.566,100.941,51.387,100.882,51.066z"/>
</svg>
