<svg xmlns="http://www.w3.org/2000/svg" width="135" height="82" viewBox="0 0 135 82">
    <path fill="#343434" d="M0,21v40h40V21H0z M23.66,33.64c0-0.76,0.13-1.43,0.4-2.01s0.65-1.02,1.15-1.33	c0.5-0.31,1.08-0.46,1.73-0.46c0.92,0,1.65,0.24,2.21,0.73c0.56,0.49,0.88,1.17,0.97,2.06h-1.63c-0.04-0.51-0.18-0.88-0.43-1.11	c-0.24-0.23-0.62-0.35-1.12-0.35c-0.54,0-0.95,0.2-1.22,0.59c-0.26,0.39-0.4,0.99-0.41,1.81v0.6c0,0.85,0.13,1.47,0.39,1.87	c0.26,0.39,0.66,0.59,1.22,0.59c0.51,0,0.88-0.11,1.13-0.34s0.39-0.59,0.43-1.07h1.63c-0.07,0.85-0.38,1.52-0.95,2.01	c-0.56,0.49-1.31,0.73-2.24,0.73c-1.01,0-1.81-0.34-2.39-1.02c-0.58-0.68-0.87-1.62-0.87-2.81V33.64L23.66,33.64z M15.69,51.02h-5.3	v-7.91h5.29v1.32h-3.66v1.881h3.13v1.27h-3.13v2.13h3.67V51.02z M29.65,51.37L10.03,31.75l0.7-0.7l19.62,19.62L29.65,51.37z"/>
    <path fill="#343434" d="M50,37.33V21h7.22v3.17h-3.55v3.19h3.4v3.07h-3.4v3.72h3.78v3.18H50z"/>
    <path fill="#343434" d="M65.18,37.33h-4.92L58.03,21h3.64l1.02,10.83L63.77,21h3.64L65.18,37.33z"/>
    <path fill="#343434" d="M68.39,37.33V21h7.219v3.17h-3.549v3.19h3.399v3.07h-3.399v3.72h3.779v3.18H68.39z"/>
    <path fill="#343434" d="M77.23,37.33V21h3.609v13.15h3.71v3.18H77.23z"/>
    <path fill="#343434" d="M89.4,37.33H86v-5.37L83.12,21h3.58l1,5.54l1-5.54h3.569L89.4,31.96V37.33L89.4,37.33z"/>
    <path fill="#343434" d="M101.85,21v16.33H98.32l-1.801-8.17v8.17H92.99V21h3.71l1.659,7.81V21H101.85z"/>
    <path fill="#343434" d="M58.94,53.46v3.09c0,1.421-0.4,2.47-1.21,3.13c-0.81,0.67-1.93,1-3.38,1c-1.29,0-2.33-0.369-3.14-1.1	S50,57.8,50,56.45v-7.58c0-1.62,0.36-2.83,1.07-3.63c0.71-0.801,1.83-1.211,3.36-1.211c0.62,0,1.2,0.08,1.72,0.23	c0.53,0.15,0.99,0.381,1.4,0.68c0.41,0.301,0.73,0.701,0.96,1.181c0.23,0.489,0.35,1.05,0.35,1.69v2.879h-3.57V48.79	c0-0.979-0.29-1.47-0.86-1.47c-0.34,0-0.57,0.109-0.68,0.32c-0.11,0.209-0.16,0.51-0.16,0.899v7.72c0,0.33,0.08,0.631,0.23,0.87	c0.15,0.25,0.36,0.37,0.61,0.37c0.23,0,0.43-0.09,0.6-0.27c0.17-0.181,0.26-0.5,0.26-0.971v-2.81h3.65V53.46z"/>
    <path fill="#343434" d="M64,53.08v7.41h-3.59V44.16H64v5.83h1.7v-5.83h3.59v16.33H65.7v-7.41H64L64,53.08z"/>
    <path fill="#343434" d="M77.87,44.16l1.8,16.33h-3.49l-0.26-2.461H74.1l-0.22,2.461h-3.51l1.851-16.33H77.87z M75.17,47.221h-0.33	l-0.48,7.829h1.291L75.17,47.221L75.17,47.221z"/>
    <path fill="#343434" d="M89.48,60.49h-3.24l-1.99-11.78v11.78h-3.46V44.16h5.5l1.521,8.52l1.51-8.52h5.55v16.33h-3.511V48.71	L89.48,60.49z"/>
    <path fill="#343434" d="M96.63,60.49V44.16h4.89c1.28,0,2.221,0.279,2.84,0.85c0.621,0.561,0.92,1.53,0.92,2.891V48.6	c0,0.11-0.01,0.301-0.039,0.541c-0.02,0.25-0.061,0.439-0.1,0.58c-0.041,0.139-0.111,0.309-0.201,0.52	c-0.09,0.21-0.199,0.369-0.33,0.5c-0.129,0.13-0.289,0.26-0.489,0.38s-0.431,0.22-0.69,0.28c0.381,0.09,0.7,0.24,0.961,0.459	c0.27,0.221,0.469,0.451,0.609,0.69c0.141,0.24,0.24,0.54,0.32,0.9s0.119,0.649,0.14,0.89s0.021,0.53,0.021,0.86	c0,0.86-0.061,1.6-0.181,2.21c-0.12,0.619-0.329,1.16-0.62,1.65c-0.289,0.479-0.699,0.84-1.22,1.08	c-0.521,0.239-1.17,0.35-1.94,0.35H96.63L96.63,60.49z M100.16,50.311h0.74c0.18,0,0.32-0.041,0.439-0.11	c0.11-0.08,0.189-0.181,0.24-0.32c0.05-0.14,0.08-0.271,0.09-0.38s0.02-0.25,0.02-0.41v-1.619c0-0.521-0.26-0.781-0.77-0.781h-0.76	V50.311L100.16,50.311z M100.16,52.85v4.74c0.16,0.01,0.279,0.02,0.359,0.02c0.94,0,1.41-0.399,1.41-1.209v-2.041	c0-0.52-0.09-0.899-0.26-1.139c-0.17-0.24-0.449-0.361-0.84-0.361h-0.67V52.85z"/>
    <path fill="#343434" d="M106.77,60.49V44.16h7.221v3.17h-3.551v3.189h3.4v3.07h-3.4v3.721h3.781v3.18H106.77z"/>
    <path fill="#343434" d="M119.25,53.061v7.43h-3.65V44.16h5.541c0.569,0,1.049,0.08,1.459,0.23c0.4,0.149,0.721,0.359,0.95,0.6	c0.229,0.25,0.421,0.58,0.55,1c0.131,0.41,0.221,0.83,0.26,1.24c0.041,0.41,0.061,0.91,0.061,1.5c0,0.31-0.01,0.56-0.02,0.75	c-0.01,0.199-0.051,0.439-0.11,0.74c-0.06,0.299-0.16,0.539-0.271,0.739c-0.119,0.2-0.289,0.39-0.529,0.58s-0.52,0.34-0.86,0.44	c0.33,0.06,0.61,0.18,0.83,0.34c0.22,0.17,0.38,0.369,0.47,0.619s0.16,0.471,0.2,0.681c0.03,0.21,0.05,0.44,0.05,0.7	c0,2.699-0.01,4.75-0.039,6.15h-3.531V54.1c0-0.25-0.029-0.459-0.08-0.609c-0.049-0.15-0.149-0.26-0.289-0.32	c-0.141-0.061-0.28-0.1-0.41-0.12S119.52,53.061,119.25,53.061z M119.27,47.18v3.051h0.9c0.48,0,0.721-0.5,0.721-1.5	c0-0.66-0.091-1.09-0.281-1.271c-0.189-0.181-0.569-0.28-1.139-0.28H119.27z"/>
    <path fill="#343434" d="M130.08,60.67c-1.67,0-2.87-0.38-3.58-1.15c-0.71-0.77-1.07-1.949-1.07-3.549V54.37H129v1.47	c0,1.051,0.29,1.58,0.859,1.58c0.271,0,0.48-0.1,0.631-0.311c0.15-0.209,0.23-0.479,0.23-0.81c0-0.44-0.061-0.81-0.181-1.11	c-0.12-0.299-0.3-0.59-0.54-0.859s-0.641-0.641-1.2-1.12l-1.53-1.319c-1.229-1.061-1.85-2.261-1.85-3.591	c0-1.45,0.37-2.53,1.109-3.239C127.27,44.35,128.29,44,129.59,44h0.631c0.329,0,0.77,0.08,1.289,0.23c0.53,0.149,0.99,0.41,1.4,0.77	s0.72,0.859,0.92,1.5c0.21,0.641,0.311,1.42,0.311,2.34H130.5l-0.02-0.98c-0.01-0.18-0.08-0.35-0.24-0.489	c-0.15-0.14-0.32-0.21-0.5-0.21c-0.24,0-0.44,0.07-0.61,0.22s-0.25,0.341-0.25,0.57c0,0.46,0.341,0.97,1.021,1.521l2.18,1.76	c0.359,0.289,0.67,0.58,0.93,0.879c0.26,0.301,0.471,0.591,0.631,0.881c0.149,0.289,0.279,0.55,0.369,0.789	c0.1,0.24,0.16,0.49,0.2,0.771s0.06,0.49,0.069,0.63c0.011,0.141,0.011,0.32,0.011,0.551c0,0.569-0.04,1.1-0.11,1.56	s-0.21,0.92-0.4,1.351c-0.189,0.43-0.439,0.799-0.75,1.09c-0.309,0.289-0.709,0.52-1.209,0.689	C131.311,60.59,130.74,60.67,130.08,60.67L130.08,60.67z"/>
</svg>
