<svg xmlns="http://www.w3.org/2000/svg" width="119" height="82" viewBox="0.5 82.5 119 82">
    <path fill="#343434" d="M59.84,121.84h-3.7v-8.46h3.29c0.57,0,1.07,0.07,1.48,0.21c0.42,0.141,0.73,0.32,0.939,0.561	c0.381,0.439,0.57,0.93,0.57,1.479c0,0.66-0.21,1.149-0.641,1.479c-0.149,0.111-0.25,0.181-0.299,0.211	c-0.061,0.029-0.16,0.08-0.301,0.14c0.521,0.11,0.94,0.351,1.25,0.71c0.311,0.359,0.471,0.801,0.471,1.34	c0,0.59-0.2,1.11-0.61,1.561C61.82,121.58,61.01,121.84,59.84,121.84z M58.03,116.811h0.9c0.52,0,0.91-0.061,1.17-0.17	c0.25-0.111,0.38-0.361,0.38-0.73c0-0.381-0.12-0.62-0.35-0.74s-0.63-0.18-1.19-0.18h-0.91V116.811z M58.03,120.24h1.29	c0.54,0,0.95-0.07,1.22-0.2s0.41-0.39,0.41-0.79s-0.14-0.65-0.43-0.779c-0.29-0.131-0.74-0.191-1.37-0.191h-1.11v1.961H58.03z"/>
    <path fill="#343434" d="M72.33,116.189c0,1.36-0.54,2.23-1.609,2.631l2.139,3.029H70.54l-1.88-2.699H67.35v2.699h-1.89v-8.459h3.21	c1.32,0,2.25,0.219,2.811,0.67C72.04,114.51,72.33,115.2,72.33,116.189z M70.061,117.189c0.229-0.209,0.35-0.539,0.35-1	c0-0.459-0.12-0.77-0.36-0.939c-0.239-0.17-0.67-0.25-1.271-0.25h-1.42v2.51h1.381C69.391,117.51,69.83,117.4,70.061,117.189z"/>
    <path fill="#343434" d="M81.29,121.84l-0.79-1.83h-3.55l-0.79,1.83h-2.01l3.66-8.46h1.83l3.659,8.46H81.29z M78.74,115.9	l-1.061,2.459h2.12L78.74,115.9L78.74,115.9z"/>
    <path fill="#343434" d="M91.74,114.49c0.81,0.74,1.21,1.77,1.21,3.08c0,1.31-0.39,2.359-1.181,3.119	c-0.789,0.771-1.99,1.15-3.6,1.15h-2.891v-8.46h2.99C89.77,113.38,90.93,113.75,91.74,114.49z M90.35,119.52	c0.461-0.439,0.7-1.069,0.7-1.899s-0.229-1.47-0.7-1.92c-0.459-0.45-1.18-0.671-2.14-0.671h-1.05v5.141h1.199	C89.221,120.17,89.891,119.95,90.35,119.52L90.35,119.52z"/>
    <path fill="#343434" d="M95.58,121.84v-8.46h1.891v6.78h3.609v1.68H95.58z"/>
    <path fill="#343434" d="M109.54,113.38v1.681h-4.21v1.739h3.79v1.61h-3.79v1.76h4.35v1.67h-6.229v-8.46H109.54z"/>
    <path fill="#343434" d="M115.99,121.84H114.1v-3.34l-2.93-5.12h2.051l1.829,3.149l1.83-3.149h2.05l-2.939,5.12V121.84z"/>
    <path fill="#343434" d="M56.71,131.109v2.4h-0.93v-4.43h0.93v0.811c0.13-0.271,0.33-0.49,0.6-0.641c0.27-0.16,0.56-0.23,0.87-0.23	c0.7,0,1.17,0.291,1.42,0.871c0.44-0.58,0.99-0.871,1.64-0.871c0.5,0,0.9,0.15,1.21,0.461c0.31,0.299,0.46,0.75,0.46,1.319v2.72	h-0.93v-2.43c0-0.82-0.34-1.22-1.021-1.22c-0.32,0-0.59,0.101-0.83,0.3c-0.24,0.2-0.36,0.5-0.37,0.891v2.469h-0.93v-2.43	c0-0.42-0.08-0.729-0.23-0.93c-0.15-0.199-0.39-0.3-0.71-0.3c-0.32,0-0.6,0.11-0.84,0.319C56.83,130.38,56.71,130.7,56.71,131.109z"/>
    <path fill="#343434" d="M68.76,132.91c-0.439,0.439-1,0.66-1.67,0.66s-1.22-0.221-1.67-0.66c-0.449-0.439-0.67-0.98-0.67-1.62	s0.221-1.181,0.67-1.62c0.439-0.439,1-0.66,1.67-0.66s1.221,0.221,1.67,0.66c0.44,0.439,0.67,0.98,0.67,1.62	S69.21,132.471,68.76,132.91z M66.09,132.34c0.26,0.27,0.6,0.4,1,0.4c0.41,0,0.74-0.131,1-0.4s0.4-0.619,0.4-1.05	s-0.131-0.78-0.4-1.04s-0.6-0.4-1-0.4c-0.41,0-0.74,0.131-1,0.4s-0.4,0.62-0.4,1.04S65.83,132.07,66.09,132.34z"/>
    <path fill="#343434" d="M72.4,129.82v2.25c0,0.209,0.06,0.38,0.17,0.51c0.109,0.13,0.27,0.189,0.47,0.189s0.39-0.1,0.58-0.289	l0.38,0.66c-0.33,0.289-0.689,0.439-1.09,0.439s-0.74-0.141-1.02-0.41c-0.281-0.279-0.42-0.641-0.42-1.109v-2.23H70.91v-0.75h0.561	v-1.391h0.93v1.391h1.17v0.75H72.4V129.82z"/>
    <path fill="#343434" d="M74.8,128.189c-0.12-0.119-0.18-0.26-0.18-0.42s0.06-0.299,0.18-0.42c0.12-0.119,0.25-0.17,0.421-0.17	c0.17,0,0.299,0.061,0.42,0.17c0.119,0.121,0.17,0.26,0.17,0.42s-0.061,0.301-0.17,0.42c-0.111,0.121-0.261,0.181-0.42,0.181	C75.061,128.37,74.91,128.311,74.8,128.189z M75.67,133.51h-0.93v-4.43h0.93V133.51z"/>
    <path fill="#343434" d="M80.73,132.91c-0.44,0.439-1,0.66-1.67,0.66s-1.221-0.221-1.67-0.66c-0.451-0.439-0.67-0.98-0.67-1.62	s0.219-1.181,0.67-1.62c0.439-0.439,1-0.66,1.67-0.66s1.219,0.221,1.67,0.66c0.439,0.439,0.67,0.98,0.67,1.62	S81.17,132.471,80.73,132.91z M78.061,132.34c0.26,0.27,0.6,0.4,1,0.4c0.41,0,0.739-0.131,1-0.4c0.26-0.27,0.399-0.619,0.399-1.05	s-0.13-0.78-0.399-1.04c-0.271-0.26-0.601-0.4-1-0.4c-0.41,0-0.74,0.131-1,0.4c-0.261,0.27-0.4,0.62-0.4,1.04	S77.79,132.07,78.061,132.34z"/>
    <path fill="#343434" d="M83.391,131.109v2.4H82.46v-4.43h0.931v0.811c0.149-0.271,0.359-0.49,0.619-0.641	c0.26-0.16,0.551-0.23,0.86-0.23c0.5,0,0.899,0.15,1.21,0.461c0.311,0.299,0.46,0.75,0.46,1.319v2.72h-0.931v-2.43	c0-0.82-0.34-1.22-1.02-1.22c-0.32,0-0.6,0.11-0.84,0.319C83.51,130.38,83.391,130.7,83.391,131.109L83.391,131.109z"/>
    <path fill="#343434" d="M22.15,98.5L0.5,111v25l21.65,12.5L43.8,136v-25L22.15,98.5z M13.43,126.84l10-12.5l5.83,17.5L13.43,126.84z"/>
</svg>
