<svg xmlns="http://www.w3.org/2000/svg" width="125" height="82" viewBox="0 0 125 82">
    <path fill="none" stroke="#343434" stroke-width="2" stroke-miterlimit="10" d="M46.5,28.87c2.22,3.69,3.5,8.01,3.5,12.63	C50,55.029,39.03,66,25.5,66C11.97,66,1,55.029,1,41.5C1,27.97,11.97,17,25.5,17c3.47,0,6.75,0.72,9.74,2.01"/>
    <circle fill="none" stroke="#343434" stroke-width="2" stroke-miterlimit="10" cx="42.23" cy="22.38" r="4.38"/>
    <path fill="#343434" d="M67.43,37.53c0,1.33-0.32,2.37-0.95,3.11c-0.63,0.74-1.51,1.11-2.63,1.11c-1.12,0-1.99-0.37-2.63-1.1	s-0.96-1.75-0.97-3.07v-1.7c0-1.37,0.32-2.43,0.95-3.2s1.51-1.15,2.64-1.15c1.11,0,1.98,0.38,2.62,1.13	c0.64,0.75,0.96,1.81,0.97,3.18V37.53L67.43,37.53z M65.41,35.87c0-0.9-0.13-1.57-0.38-2c-0.25-0.43-0.65-0.66-1.19-0.66	c-0.53,0-0.93,0.21-1.18,0.63c-0.26,0.42-0.39,1.06-0.4,1.92v1.77c0,0.87,0.13,1.51,0.39,1.92c0.26,0.41,0.66,0.62,1.2,0.62	c0.52,0,0.91-0.2,1.17-0.6c0.26-0.4,0.39-1.03,0.39-1.88V35.87z"/>
    <path fill="#343434" d="M72.429,36.08l-0.639-0.05c-0.531,0-0.891,0.23-1.07,0.7v4.89h-1.94v-7.4h1.83l0.05,0.8	c0.301-0.62,0.73-0.94,1.26-0.94c0.221,0,0.4,0.03,0.53,0.09L72.429,36.08L72.429,36.08z"/>
    <path fill="#343434" d="M75.45,41.62h-1.94v-10.5h1.94V41.62z"/>
    <path fill="#343434" d="M79.929,41.75c-0.989,0-1.77-0.3-2.319-0.89c-0.56-0.59-0.83-1.44-0.83-2.54v-0.59	c0-1.17,0.25-2.07,0.771-2.7c0.51-0.63,1.24-0.95,2.189-0.95c0.93,0,1.63,0.3,2.1,0.89c0.471,0.59,0.711,1.47,0.721,2.64v0.95h-3.85	c0.029,0.55,0.149,0.96,0.359,1.21c0.21,0.26,0.54,0.38,0.99,0.38c0.65,0,1.189-0.23,1.619-0.68l0.761,1.17	c-0.24,0.33-0.58,0.59-1.03,0.8C80.95,41.65,80.46,41.75,79.929,41.75z M78.72,37.21h1.93v-0.18c-0.01-0.45-0.08-0.78-0.221-1.01	c-0.139-0.23-0.369-0.34-0.709-0.34s-0.58,0.12-0.73,0.37C78.83,36.28,78.74,36.67,78.72,37.21z"/>
    <path fill="#343434" d="M85.93,38.4l0.98-4.18h2.061l-2.43,8.5C86.18,43.971,85.49,44.6,84.48,44.6c-0.23,0-0.5-0.039-0.79-0.129	V42.96l0.22,0.011c0.301,0,0.53-0.061,0.68-0.171c0.15-0.12,0.27-0.319,0.34-0.61l0.15-0.5l-2.13-7.469h2.08L85.93,38.4L85.93,38.4z"/>
    <path fill="#343434" d="M65.56,52.99h-3.13v2.64h3.71v1.67h-5.72v-9.95h5.7v1.67h-3.69v2.351h3.13V52.99z"/>
    <path fill="#343434" d="M69.11,49.9l0.05,0.729c0.44-0.58,1.01-0.87,1.721-0.87c1.27,0,1.92,0.891,1.959,2.67v4.86H70.9v-4.72	c0-0.42-0.061-0.721-0.189-0.91c-0.131-0.189-0.351-0.29-0.66-0.29c-0.351,0-0.621,0.18-0.82,0.54v5.369h-1.94V49.88h1.82V49.9z"/>
    <path fill="#343434" d="M78.099,48.08v1.82h0.99v1.449h-0.99v3.68c0,0.291,0.041,0.49,0.121,0.601s0.229,0.16,0.459,0.16	c0.19,0,0.341-0.021,0.461-0.05l-0.01,1.5c-0.33,0.119-0.681,0.189-1.07,0.189c-1.25,0-1.881-0.72-1.891-2.15v-3.93H75.31V49.9	h0.859v-1.82H78.099z"/>
    <path fill="#343434" d="M83.13,57.43c-0.99,0-1.771-0.3-2.32-0.89c-0.561-0.59-0.83-1.44-0.83-2.54v-0.59c0-1.17,0.25-2.07,0.77-2.7	c0.51-0.63,1.24-0.95,2.19-0.95c0.93,0,1.63,0.301,2.101,0.891c0.469,0.59,0.709,1.47,0.719,2.64v0.95h-3.85	c0.03,0.55,0.15,0.96,0.36,1.21c0.21,0.26,0.54,0.38,0.989,0.38c0.65,0,1.19-0.221,1.622-0.68l0.76,1.17	c-0.24,0.33-0.58,0.59-1.031,0.8C84.16,57.33,83.66,57.43,83.13,57.43z M81.919,52.891h1.93V52.71c-0.01-0.45-0.079-0.78-0.219-1.01	c-0.141-0.229-0.371-0.351-0.711-0.351s-0.58,0.121-0.729,0.371C82.03,51.96,81.95,52.35,81.919,52.891z"/>
    <path fill="#343434" d="M90.5,51.76l-0.641-0.05c-0.529,0-0.889,0.229-1.068,0.7v4.89H86.85V49.9h1.82l0.051,0.8	c0.309-0.62,0.729-0.94,1.27-0.94c0.221,0,0.4,0.03,0.529,0.09L90.5,51.76z"/>
    <path fill="#343434" d="M97.25,53.83c0,1.16-0.199,2.05-0.6,2.67s-0.99,0.93-1.781,0.93c-0.6,0-1.078-0.24-1.449-0.729v3.44h-1.93	V49.9h1.789l0.07,0.68c0.371-0.54,0.871-0.811,1.51-0.811c0.791,0,1.381,0.291,1.781,0.86c0.4,0.57,0.6,1.45,0.609,2.64V53.83	L97.25,53.83z M95.32,53.35c0-0.72-0.08-1.22-0.24-1.52c-0.16-0.301-0.42-0.45-0.801-0.45c-0.398,0-0.689,0.17-0.869,0.5v3.47	c0.17,0.32,0.471,0.48,0.881,0.48c0.379,0,0.648-0.16,0.799-0.49s0.221-0.83,0.221-1.52V53.35H95.32z"/>
    <path fill="#343434" d="M102.07,51.76l-0.641-0.05c-0.529,0-0.889,0.229-1.07,0.7v4.89H98.42V49.9h1.83l0.051,0.8	c0.299-0.62,0.729-0.94,1.26-0.94c0.219,0,0.4,0.03,0.529,0.09L102.07,51.76z"/>
    <path fill="#343434" d="M103.061,47.98c0-0.301,0.1-0.551,0.289-0.74c0.191-0.19,0.451-0.29,0.77-0.29c0.32,0,0.57,0.1,0.771,0.29	c0.199,0.189,0.289,0.439,0.289,0.74c0,0.289-0.09,0.539-0.279,0.74c-0.189,0.199-0.451,0.289-0.77,0.289	c-0.32,0-0.58-0.1-0.771-0.289C103.16,48.529,103.061,48.279,103.061,47.98z M105.09,57.29h-1.939v-7.399h1.939V57.29z"/>
    <path fill="#343434" d="M109.859,55.311c0-0.16-0.08-0.32-0.24-0.461c-0.158-0.14-0.51-0.33-1.049-0.56	c-0.801-0.319-1.35-0.66-1.641-1c-0.299-0.351-0.449-0.78-0.449-1.29c0-0.65,0.23-1.18,0.699-1.6c0.471-0.42,1.09-0.631,1.861-0.631	c0.809,0,1.459,0.211,1.949,0.631s0.73,0.979,0.73,1.689h-1.941c0-0.6-0.25-0.9-0.75-0.9c-0.209,0-0.369,0.061-0.51,0.19	c-0.129,0.13-0.199,0.31-0.199,0.53c0,0.16,0.07,0.311,0.221,0.439c0.148,0.131,0.488,0.301,1.029,0.541	c0.789,0.289,1.35,0.619,1.67,0.969c0.32,0.351,0.49,0.82,0.49,1.391c0,0.66-0.25,1.189-0.74,1.59c-0.5,0.4-1.15,0.6-1.961,0.6	c-0.539,0-1.02-0.109-1.439-0.319s-0.74-0.511-0.971-0.88c-0.229-0.381-0.35-0.79-0.35-1.221h1.84c0.01,0.34,0.09,0.59,0.24,0.76	c0.15,0.171,0.391,0.25,0.73,0.25C109.6,56.02,109.859,55.779,109.859,55.311L109.859,55.311z"/>
    <path fill="#343434" d="M115.93,57.43c-0.99,0-1.77-0.3-2.32-0.89c-0.559-0.59-0.83-1.44-0.83-2.54v-0.59	c0-1.17,0.25-2.07,0.771-2.7c0.51-0.63,1.24-0.95,2.189-0.95c0.93,0,1.629,0.301,2.1,0.891s0.711,1.47,0.721,2.64v0.95h-3.85	c0.029,0.55,0.148,0.96,0.359,1.21c0.209,0.26,0.539,0.38,0.99,0.38c0.65,0,1.189-0.221,1.619-0.68l0.76,1.17	c-0.24,0.33-0.58,0.59-1.029,0.8S116.461,57.43,115.93,57.43z M114.721,52.891h1.93V52.71c-0.01-0.45-0.08-0.78-0.221-1.01	c-0.139-0.229-0.369-0.351-0.709-0.351s-0.58,0.121-0.73,0.371C114.83,51.96,114.74,52.35,114.721,52.891L114.721,52.891z"/>
    <path fill="#343434" d="M122.92,55.311c0-0.16-0.08-0.32-0.24-0.461c-0.16-0.14-0.51-0.33-1.049-0.56	c-0.801-0.319-1.352-0.66-1.641-1c-0.301-0.351-0.449-0.78-0.449-1.29c0-0.65,0.229-1.18,0.699-1.6s1.09-0.631,1.859-0.631	c0.811,0,1.461,0.211,1.951,0.631s0.729,0.979,0.729,1.689h-1.939c0-0.6-0.25-0.9-0.75-0.9c-0.209,0-0.369,0.061-0.51,0.19	c-0.131,0.13-0.199,0.31-0.199,0.53c0,0.16,0.068,0.311,0.219,0.439c0.15,0.131,0.49,0.301,1.031,0.541	c0.789,0.289,1.35,0.619,1.67,0.969c0.318,0.351,0.49,0.82,0.49,1.391c0,0.66-0.25,1.189-0.74,1.59c-0.5,0.4-1.15,0.6-1.961,0.6	c-0.539,0-1.02-0.109-1.439-0.319s-0.74-0.511-0.971-0.88c-0.23-0.381-0.35-0.79-0.35-1.221h1.84c0.01,0.34,0.09,0.59,0.24,0.76	c0.15,0.171,0.391,0.25,0.73,0.25C122.66,56.02,122.92,55.779,122.92,55.311L122.92,55.311z"/>
    <path fill="#343434" d="M23.51,43.16c0,1.18-0.26,2.1-0.78,2.74c-0.52,0.64-1.24,0.97-2.18,0.97c-0.93,0-1.65-0.32-2.18-0.97	c-0.53-0.65-0.79-1.551-0.8-2.721v-1.99c0-1.18,0.26-2.09,0.79-2.75c0.52-0.65,1.25-0.98,2.18-0.98c0.94,0,1.67,0.33,2.19,0.98	s0.78,1.58,0.78,2.76V43.16z M22.79,41.18c0-1-0.19-1.75-0.58-2.26c-0.39-0.5-0.94-0.75-1.67-0.75c-0.7,0-1.25,0.25-1.64,0.74	c-0.39,0.49-0.6,1.23-0.6,2.21v2.05c0,1.01,0.2,1.76,0.6,2.27c0.4,0.511,0.95,0.761,1.66,0.761c0.73,0,1.28-0.25,1.66-0.761	c0.38-0.5,0.57-1.26,0.57-2.27V41.18z"/>
    <path fill="#343434" d="M30.28,42.939h-2.14v3.811h-0.72v-9.16h2.51c0.83,0,1.48,0.24,1.94,0.71c0.46,0.48,0.69,1.14,0.69,1.99	c0,0.59-0.14,1.11-0.43,1.56c-0.29,0.45-0.67,0.76-1.15,0.93l1.91,3.891v0.08h-0.77L30.28,42.939z M28.14,42.27h1.91	c0.54,0,0.97-0.189,1.3-0.56c0.32-0.37,0.48-0.85,0.48-1.43c0-0.64-0.17-1.14-0.5-1.49c-0.33-0.35-0.81-0.53-1.41-0.53h-1.78V42.27z"/>
</svg>
