<svg xmlns="http://www.w3.org/2000/svg" width="129" height="82" viewBox="0.5 82.5 129 82">
    <circle cx="19.06" cy="123.23" r="9.78"/>
    <path opacity=".3" d="M40.71,123.23c0,5.399-4.37,9.77-9.77,9.77c-1.66,0-3.22-0.42-4.59-1.141	c2.45-2.06,4.01-5.17,4.01-8.629c0-3.461-1.56-6.561-4.01-8.631c1.37-0.729,2.92-1.14,4.59-1.14	C36.34,113.46,40.71,117.82,40.71,123.23z"/>
    <path fill="none" stroke="#000" stroke-miterlimit="10" d="M0.5,101.5h49v45h-49V101.5z"/>
    <path fill="#343434" d="M60.77,124.76V112.1c0-0.399,0.21-0.6,0.62-0.6c0.36,0,0.7,0.29,1,0.859l3.229,6.24l3.229-6.24	c0.301-0.58,0.631-0.859,1-0.859c0.41,0,0.621,0.2,0.621,0.6v12.66c0,0.15-0.061,0.27-0.181,0.36c-0.12,0.09-0.271,0.13-0.44,0.13	c-0.16,0-0.31-0.04-0.43-0.13c-0.13-0.091-0.189-0.21-0.189-0.36v-10.57l-3.121,5.9c-0.139,0.26-0.31,0.4-0.51,0.4	c-0.189,0-0.35-0.131-0.49-0.4l-3.1-5.96v10.63c0,0.15-0.06,0.27-0.19,0.36c-0.13,0.09-0.27,0.13-0.43,0.13	c-0.18,0-0.32-0.04-0.44-0.13C60.83,125.029,60.77,124.91,60.77,124.76z"/>
    <path fill="#343434" d="M74.12,121.34v-5.83c0-1.38,0.351-2.39,1.06-3.039c0.711-0.65,1.66-0.971,2.85-0.971	c1.191,0,2.141,0.32,2.851,0.971c0.71,0.649,1.06,1.659,1.06,3.039v5.83c0,1.391-0.35,2.41-1.06,3.061	c-0.71,0.649-1.659,0.97-2.851,0.97c-1.189,0-2.139-0.32-2.85-0.97C74.471,123.75,74.12,122.73,74.12,121.34z M75.359,121.34	c0,1.92,0.891,2.881,2.67,2.881c1.781,0,2.671-0.961,2.671-2.881v-5.83c0-1.91-0.89-2.859-2.671-2.859	c-1.779,0-2.67,0.949-2.67,2.859V121.34z"/>
    <path fill="#343434" d="M85.59,124.76V112.1c0-0.399,0.21-0.6,0.62-0.6c0.36,0,0.7,0.29,1,0.859l3.229,6.24l3.23-6.24	c0.301-0.58,0.63-0.859,1-0.859c0.41,0,0.62,0.2,0.62,0.6v12.66c0,0.15-0.06,0.27-0.181,0.36c-0.119,0.09-0.27,0.13-0.439,0.13	c-0.16,0-0.311-0.04-0.43-0.13c-0.131-0.091-0.19-0.21-0.19-0.36v-10.57l-3.12,5.9c-0.14,0.26-0.31,0.4-0.51,0.4	c-0.189,0-0.35-0.131-0.49-0.4l-3.1-5.96v10.63c0,0.15-0.061,0.27-0.189,0.36c-0.131,0.09-0.271,0.13-0.431,0.13	c-0.181,0-0.319-0.04-0.44-0.13C85.65,125.029,85.59,124.91,85.59,124.76z"/>
    <path fill="#343434" d="M98.939,121.34v-5.83c0-1.38,0.351-2.39,1.061-3.039c0.71-0.65,1.66-0.971,2.85-0.971	c1.19,0,2.141,0.32,2.851,0.971c0.71,0.649,1.06,1.659,1.06,3.039v5.83c0,1.391-0.35,2.41-1.06,3.061	c-0.71,0.649-1.66,0.97-2.851,0.97c-1.189,0-2.14-0.32-2.85-0.97C99.3,123.75,98.939,122.73,98.939,121.34z M100.18,121.34	c0,1.92,0.891,2.881,2.67,2.881c1.78,0,2.67-0.961,2.67-2.881v-5.83c0-1.91-0.89-2.859-2.67-2.859c-1.779,0-2.67,0.949-2.67,2.859	V121.34L100.18,121.34z"/>
    <path fill="#343434" d="M110.41,124.76v-12.81c0-0.3,0.21-0.45,0.619-0.45c0.41,0,0.621,0.15,0.621,0.45v6.659l5.439-6.92	c0.09-0.129,0.221-0.189,0.391-0.189c0.149,0,0.299,0.07,0.449,0.21s0.23,0.28,0.23,0.431c0,0.109-0.03,0.209-0.09,0.279	l-4.041,5.02l4.631,6.961c0.05,0.1,0.08,0.18,0.08,0.24c0,0.159-0.08,0.31-0.23,0.439s-0.31,0.199-0.49,0.199	c-0.18,0-0.33-0.09-0.47-0.279l-4.34-6.529l-1.54,1.959v4.33c0,0.15-0.061,0.27-0.189,0.36c-0.131,0.09-0.271,0.13-0.431,0.13	c-0.18,0-0.319-0.04-0.44-0.13C110.471,125.029,110.41,124.91,110.41,124.76L110.41,124.76z"/>
    <path fill="#343434" d="M120.13,124.721c0-0.061,0.011-0.111,0.021-0.131l3.93-12.77c0.09-0.291,0.33-0.43,0.73-0.43	c0.399,0,0.649,0.149,0.75,0.439l3.92,12.8c0,0.011,0,0.03,0.01,0.05c0.01,0.021,0.01,0.041,0.01,0.051c0,0.14-0.08,0.27-0.24,0.369	c-0.16,0.101-0.33,0.15-0.51,0.15c-0.24,0-0.391-0.109-0.471-0.32l-0.859-2.9h-5.189l-0.871,2.9c-0.049,0.211-0.209,0.32-0.489,0.32	c-0.181,0-0.341-0.05-0.49-0.15C120.21,125,120.13,124.87,120.13,124.721L120.13,124.721z M122.54,120.96h4.55l-2.27-7.59	L122.54,120.96z"/>
    <path fill="#ADADAD" d="M59.73,133.609v-2.569c0-0.601,0.16-1.05,0.49-1.34c0.32-0.29,0.74-0.431,1.26-0.431s0.94,0.131,1.25,0.4	c0.31,0.27,0.459,0.6,0.459,0.98c0,0.129-0.02,0.22-0.06,0.27c-0.04,0.04-0.11,0.07-0.21,0.07c-0.17,0-0.26-0.07-0.27-0.211	c0-0.079-0.021-0.159-0.03-0.239c-0.021-0.08-0.05-0.16-0.101-0.261c-0.049-0.1-0.109-0.18-0.199-0.25	c-0.08-0.069-0.19-0.129-0.34-0.18c-0.15-0.05-0.31-0.07-0.5-0.07c-0.8,0-1.2,0.421-1.2,1.261v2.569c0,0.851,0.41,1.271,1.23,1.271	c0.23,0,0.43-0.03,0.58-0.101c0.15-0.059,0.27-0.159,0.34-0.279s0.12-0.23,0.141-0.311c0.029-0.09,0.05-0.199,0.06-0.34	c0.021-0.14,0.11-0.209,0.271-0.209c0.1,0,0.17,0.02,0.209,0.069c0.041,0.05,0.061,0.14,0.061,0.271c0,0.39-0.16,0.72-0.47,1	c-0.31,0.27-0.73,0.41-1.27,0.41c-0.51,0-0.92-0.141-1.24-0.431C59.89,134.66,59.73,134.21,59.73,133.609L59.73,133.609z"/>
    <path fill="#ADADAD" d="M64.49,133.609v-2.569c0-0.61,0.16-1.06,0.47-1.34s0.729-0.431,1.261-0.431c0.529,0,0.949,0.141,1.26,0.431	c0.31,0.29,0.47,0.729,0.47,1.34v2.569c0,0.611-0.16,1.061-0.47,1.351c-0.311,0.29-0.73,0.431-1.26,0.431	c-0.531,0-0.951-0.141-1.261-0.431S64.49,134.221,64.49,133.609z M65.04,133.609c0,0.851,0.39,1.271,1.181,1.271	c0.789,0,1.18-0.42,1.18-1.271v-2.569c0-0.84-0.391-1.261-1.18-1.261c-0.791,0-1.181,0.421-1.181,1.261V133.609z"/>
    <path fill="#ADADAD" d="M69.55,135.12v-5.591c0-0.18,0.091-0.27,0.271-0.27c0.16,0,0.31,0.131,0.439,0.381l1.43,2.76l1.431-2.76	c0.13-0.25,0.28-0.381,0.44-0.381c0.18,0,0.279,0.09,0.279,0.27v5.591c0,0.069-0.029,0.12-0.08,0.159	c-0.05,0.041-0.119,0.061-0.199,0.061c-0.07,0-0.131-0.02-0.19-0.061c-0.06-0.039-0.08-0.09-0.08-0.159v-4.67l-1.38,2.61	c-0.061,0.119-0.131,0.17-0.221,0.17c-0.08,0-0.16-0.061-0.219-0.17L70.1,130.43v4.69c0,0.069-0.029,0.12-0.08,0.159	c-0.049,0.041-0.119,0.061-0.189,0.061c-0.08,0-0.141-0.02-0.189-0.061C69.58,135.24,69.55,135.18,69.55,135.12L69.55,135.12z"/>
    <path fill="#ADADAD" d="M75.51,135.12v-5.591c0-0.18,0.09-0.27,0.27-0.27c0.16,0,0.311,0.131,0.441,0.381l1.43,2.76l1.43-2.76	c0.13-0.25,0.279-0.381,0.439-0.381c0.181,0,0.271,0.09,0.271,0.27v5.591c0,0.069-0.03,0.12-0.08,0.159	c-0.05,0.041-0.12,0.061-0.2,0.061c-0.07,0-0.14-0.02-0.189-0.061c-0.061-0.039-0.08-0.09-0.08-0.159v-4.67l-1.381,2.61	c-0.06,0.119-0.139,0.17-0.219,0.17s-0.16-0.061-0.221-0.17l-1.37-2.631v4.69c0,0.069-0.03,0.12-0.079,0.159	c-0.051,0.041-0.121,0.061-0.191,0.061c-0.079,0-0.139-0.02-0.199-0.061C75.52,135.24,75.51,135.18,75.51,135.12L75.51,135.12z"/>
    <path fill="#ADADAD" d="M81.45,133.609v-4.139c0-0.131,0.09-0.201,0.271-0.201c0.18,0,0.27,0.07,0.27,0.201v4.139	c0,0.42,0.1,0.74,0.31,0.951c0.21,0.209,0.5,0.319,0.88,0.319c0.381,0,0.68-0.11,0.881-0.319c0.209-0.211,0.31-0.531,0.31-0.951	v-4.139c0-0.131,0.09-0.201,0.271-0.201c0.18,0,0.27,0.07,0.27,0.201v4.139c0,0.611-0.16,1.061-0.48,1.351s-0.74,0.431-1.27,0.431	c-0.53,0-0.95-0.141-1.27-0.431C81.57,134.67,81.45,134.221,81.45,133.609L81.45,133.609z"/>
    <path fill="#ADADAD" d="M86.59,135.12v-5.64c0-0.141,0.09-0.211,0.27-0.211c0.15,0,0.301,0.131,0.431,0.381l2.239,4.42v-4.6	c0-0.131,0.091-0.201,0.271-0.201c0.181,0,0.271,0.07,0.271,0.201v5.649c0,0.069-0.03,0.12-0.08,0.159	c-0.051,0.041-0.12,0.061-0.19,0.061c-0.14,0-0.26-0.109-0.37-0.32l-2.31-4.49v4.591c0,0.069-0.03,0.12-0.08,0.159	c-0.05,0.041-0.12,0.061-0.19,0.061c-0.08,0-0.14-0.02-0.199-0.061C86.59,135.24,86.59,135.18,86.59,135.12L86.59,135.12z"/>
    <path fill="#ADADAD" d="M91.76,135.12v-5.649c0-0.131,0.09-0.201,0.27-0.201c0.181,0,0.271,0.07,0.271,0.201v5.649	c0,0.069-0.03,0.12-0.079,0.159c-0.051,0.041-0.121,0.061-0.191,0.061c-0.079,0-0.139-0.02-0.199-0.061	C91.77,135.24,91.76,135.18,91.76,135.12L91.76,135.12z"/>
    <path fill="#ADADAD" d="M93.92,133.609v-2.569c0-0.601,0.16-1.05,0.49-1.34c0.32-0.29,0.74-0.431,1.26-0.431	c0.53,0,0.939,0.131,1.25,0.4s0.46,0.6,0.46,0.98c0,0.129-0.021,0.22-0.06,0.27c-0.041,0.04-0.11,0.07-0.211,0.07	c-0.17,0-0.26-0.07-0.27-0.211c0-0.079-0.02-0.159-0.029-0.239c-0.011-0.08-0.051-0.16-0.101-0.261c-0.05-0.1-0.11-0.18-0.19-0.25	c-0.08-0.069-0.189-0.129-0.34-0.18c-0.14-0.05-0.31-0.07-0.5-0.07c-0.8,0-1.199,0.421-1.199,1.261v2.569	c0,0.851,0.41,1.271,1.229,1.271c0.229,0,0.431-0.03,0.58-0.101c0.16-0.059,0.271-0.159,0.34-0.279c0.07-0.12,0.12-0.23,0.149-0.311	c0.021-0.09,0.041-0.199,0.061-0.34c0.02-0.14,0.11-0.209,0.27-0.209c0.101,0,0.17,0.02,0.211,0.069	c0.039,0.05,0.06,0.14,0.06,0.271c0,0.39-0.159,0.72-0.47,1c-0.311,0.279-0.73,0.41-1.27,0.41c-0.511,0-0.92-0.141-1.24-0.431	C94.08,134.66,93.92,134.21,93.92,133.609L93.92,133.609z"/>
    <path fill="#ADADAD" d="M98.29,135.1c0-0.029,0-0.05,0.01-0.06l1.74-5.64c0.04-0.131,0.149-0.19,0.319-0.19s0.291,0.06,0.33,0.19	l1.73,5.649v0.04c0,0.061-0.04,0.12-0.109,0.16c-0.07,0.04-0.15,0.07-0.221,0.07c-0.109,0-0.17-0.051-0.21-0.141l-0.38-1.27h-2.29	l-0.38,1.279c-0.02,0.09-0.09,0.141-0.221,0.141c-0.08,0-0.149-0.02-0.219-0.07C98.32,135.221,98.29,135.17,98.29,135.1z M99.35,133.439h2.01l-1-3.35L99.35,133.439z"/>
    <path fill="#ADADAD" d="M102.67,129.52c0-0.06,0.02-0.119,0.051-0.18c0.039-0.05,0.09-0.08,0.149-0.08h3.33	c0.069,0,0.12,0.02,0.149,0.07c0.03,0.05,0.051,0.109,0.051,0.17c0,0.07-0.021,0.13-0.051,0.18c-0.039,0.051-0.09,0.08-0.149,0.08	h-1.39v5.35c0,0.07-0.031,0.121-0.08,0.16c-0.051,0.041-0.121,0.061-0.19,0.061c-0.08,0-0.14-0.02-0.2-0.061	c-0.061-0.039-0.08-0.09-0.08-0.16v-5.35h-1.39c-0.06,0-0.11-0.029-0.149-0.07C102.68,129.65,102.67,129.59,102.67,129.52	L102.67,129.52z"/>
    <path fill="#ADADAD" d="M107.58,135.12v-5.649c0-0.131,0.09-0.201,0.27-0.201s0.271,0.07,0.271,0.201v5.649	c0,0.069-0.03,0.12-0.08,0.159c-0.05,0.041-0.12,0.061-0.19,0.061c-0.08,0-0.14-0.02-0.199-0.061	C107.59,135.24,107.58,135.18,107.58,135.12z"/>
    <path fill="#ADADAD" d="M109.74,133.609v-2.569c0-0.61,0.16-1.06,0.47-1.34s0.729-0.431,1.261-0.431c0.529,0,0.949,0.141,1.26,0.431	c0.31,0.29,0.47,0.729,0.47,1.34v2.569c0,0.611-0.16,1.061-0.47,1.351c-0.311,0.29-0.73,0.431-1.26,0.431	c-0.531,0-0.941-0.141-1.261-0.431C109.9,134.67,109.74,134.221,109.74,133.609z M110.29,133.609c0,0.851,0.39,1.271,1.181,1.271	c0.789,0,1.18-0.42,1.18-1.271v-2.569c0-0.84-0.391-1.261-1.18-1.261c-0.791,0-1.181,0.421-1.181,1.261V133.609z"/>
    <path fill="#ADADAD" d="M114.811,135.12v-5.64c0-0.141,0.09-0.211,0.27-0.211c0.15,0,0.3,0.131,0.43,0.381l2.24,4.42v-4.6	c0-0.131,0.09-0.201,0.27-0.201c0.181,0,0.271,0.07,0.271,0.201v5.649c0,0.069-0.03,0.12-0.08,0.159	c-0.05,0.041-0.12,0.061-0.19,0.061c-0.14,0-0.26-0.109-0.369-0.32l-2.311-4.49v4.591c0,0.069-0.029,0.12-0.08,0.159	c-0.05,0.041-0.119,0.061-0.189,0.061c-0.08,0-0.141-0.02-0.2-0.061C114.811,135.24,114.811,135.18,114.811,135.12L114.811,135.12z"/>
</svg>
