<svg xmlns="http://www.w3.org/2000/svg" width="160" height="82" viewBox="0 0 160 82">
    <rect y="22.5" fill="#333" width="54" height="37"/>
    <g fill="none" stroke="#FFF" stroke-width="1.815" stroke-miterlimit="10">
        <polyline points="8.665,31.729 16.833,39.896 25.303,31.425"/>
        <polyline points="44.665,49.271 36.497,41.104 28.026,49.575"/>
        <polyline points="8.665,42.014 16.833,50.182 36.194,30.818 44.665,39.29"/>
    </g>
    <path d="M83.044,33.816c0.233,0.205,0.353,0.477,0.353,0.813c0,0.118-0.021,0.242-0.065,0.374l-4.554,13.311 c-0.06,0.205-0.18,0.362-0.363,0.473c-0.183,0.109-0.378,0.172-0.583,0.188c-0.206,0-0.403-0.06-0.594-0.177 c-0.191-0.118-0.33-0.286-0.418-0.506l-3.433-8.03l-3.41,8.03c-0.088,0.22-0.228,0.39-0.418,0.506 c-0.19,0.117-0.396,0.177-0.615,0.177c-0.206-0.016-0.396-0.082-0.572-0.199c-0.176-0.116-0.294-0.271-0.353-0.461l-4.554-13.311 c-0.044-0.132-0.065-0.256-0.065-0.374c0-0.321,0.121-0.59,0.362-0.803c0.242-0.212,0.503-0.319,0.781-0.319 c0.234,0,0.447,0.062,0.638,0.188s0.315,0.289,0.374,0.494l3.719,11.022l3.189-7.832c0.088-0.205,0.22-0.366,0.396-0.483 c0.176-0.117,0.374-0.176,0.594-0.176c0.22,0,0.418,0.059,0.594,0.176c0.176,0.117,0.309,0.278,0.396,0.483l3.102,7.832 l3.696-11.022c0.059-0.219,0.183-0.388,0.374-0.506c0.19-0.117,0.409-0.176,0.659-0.176C82.553,33.508,82.811,33.611,83.044,33.816 z"/>
    <path d="M98.225,48.027c0,0.293-0.1,0.535-0.298,0.727c-0.196,0.191-0.429,0.286-0.692,0.286c-0.205,0-0.393-0.062-0.562-0.187 s-0.305-0.297-0.407-0.518l-1.363-3.234h-6.797l-1.344,3.256c-0.072,0.221-0.193,0.39-0.361,0.507 c-0.17,0.116-0.356,0.176-0.562,0.176c-0.309,0-0.543-0.081-0.704-0.242c-0.161-0.162-0.241-0.381-0.241-0.659 c0-0.06,0.015-0.177,0.045-0.353l5.608-13.597c0.103-0.233,0.246-0.414,0.429-0.539c0.185-0.123,0.394-0.172,0.629-0.143 c0.22,0,0.418,0.059,0.594,0.176c0.176,0.118,0.3,0.287,0.373,0.506l5.589,13.42C98.203,47.742,98.225,47.882,98.225,48.027z M88.941,43.1h5.125l-2.573-6.16L88.941,43.1z"/>
    <path d="M113.625,47.6c0.088,0.153,0.132,0.312,0.132,0.473c0,0.308-0.1,0.535-0.297,0.682c-0.198,0.146-0.437,0.221-0.715,0.221 c-0.279,0-0.515-0.06-0.704-0.177c-0.439-0.25-0.8-0.653-1.078-1.21c-0.279-0.557-0.418-1.378-0.418-2.464 c0-0.733-0.221-1.276-0.66-1.628s-1.012-0.528-1.716-0.528h-4.444v4.95c0,0.309-0.088,0.561-0.264,0.759s-0.402,0.298-0.684,0.298 c-0.336,0-0.627-0.104-0.867-0.309c-0.242-0.205-0.363-0.454-0.363-0.748V34.63c0-0.293,0.104-0.542,0.309-0.748 s0.455-0.308,0.748-0.308h6.183c0.792,0,1.519,0.193,2.178,0.583c0.66,0.389,1.188,0.924,1.584,1.606 c0.396,0.682,0.595,1.448,0.595,2.299c0,0.821-0.221,1.588-0.66,2.299s-1.006,1.242-1.693,1.595 c0.542,0.278,0.971,0.667,1.286,1.166s0.487,1.078,0.518,1.737c0.06,0.836,0.124,1.404,0.198,1.705 c0.072,0.302,0.234,0.518,0.482,0.649C113.418,47.316,113.537,47.445,113.625,47.6z M109.786,40.702 c0.329-0.265,0.597-0.62,0.803-1.067c0.205-0.447,0.308-0.949,0.308-1.507c0-0.704-0.217-1.301-0.647-1.793 c-0.435-0.491-0.957-0.737-1.573-0.737h-4.949v5.545h5.016C109.107,41.113,109.456,40.966,109.786,40.702z"/>
    <path d="M129.686,47.6c0.088,0.153,0.131,0.312,0.131,0.473c0,0.308-0.1,0.535-0.297,0.682s-0.437,0.221-0.715,0.221 c-0.279,0-0.514-0.06-0.703-0.177c-0.44-0.25-0.801-0.653-1.078-1.21c-0.279-0.557-0.418-1.378-0.418-2.464 c0-0.733-0.222-1.276-0.66-1.628c-0.44-0.352-1.012-0.528-1.717-0.528h-4.443v4.95c0,0.309-0.088,0.561-0.264,0.759 s-0.403,0.298-0.684,0.298c-0.337,0-0.627-0.104-0.867-0.309c-0.242-0.205-0.363-0.454-0.363-0.748V34.63 c0-0.293,0.103-0.542,0.308-0.748s0.455-0.308,0.748-0.308h6.183c0.793,0,1.519,0.193,2.178,0.583 c0.66,0.389,1.188,0.924,1.584,1.606c0.396,0.682,0.595,1.448,0.595,2.299c0,0.821-0.22,1.588-0.66,2.299 c-0.438,0.711-1.005,1.242-1.692,1.595c0.541,0.278,0.971,0.667,1.285,1.166c0.315,0.499,0.488,1.078,0.518,1.737 c0.06,0.836,0.125,1.404,0.199,1.705c0.072,0.302,0.233,0.518,0.482,0.649C129.479,47.316,129.598,47.445,129.686,47.6z M125.846,40.702c0.329-0.265,0.598-0.62,0.803-1.067s0.309-0.949,0.309-1.507c0-0.704-0.217-1.301-0.648-1.793 c-0.434-0.491-0.957-0.737-1.572-0.737h-4.95v5.545h5.016C125.167,41.113,125.516,40.966,125.846,40.702z"/>
    <path d="M143.137,47.258c0.198,0.206,0.297,0.447,0.297,0.727c0,0.293-0.099,0.531-0.297,0.715 c-0.197,0.184-0.451,0.275-0.759,0.275h-7.655c-0.293,0-0.543-0.104-0.748-0.309s-0.309-0.454-0.309-0.748V34.63 c0-0.293,0.104-0.542,0.309-0.748s0.455-0.308,0.748-0.308h7.655c0.308,0,0.562,0.096,0.759,0.285 c0.198,0.19,0.297,0.44,0.297,0.748c0,0.295-0.099,0.533-0.297,0.716c-0.197,0.184-0.451,0.274-0.759,0.274h-6.534v4.488h5.545 c0.309,0,0.562,0.096,0.758,0.286c0.199,0.19,0.297,0.433,0.297,0.726c0,0.309-0.098,0.551-0.297,0.727 c-0.196,0.176-0.449,0.264-0.758,0.264h-5.545v4.862h6.534C142.686,46.95,142.939,47.053,143.137,47.258z"/>
    <path d="M159.494,33.85c0.177,0.184,0.265,0.414,0.265,0.692v13.354c0,0.308-0.1,0.564-0.297,0.77 c-0.198,0.206-0.45,0.309-0.76,0.309c-0.161,0-0.318-0.025-0.474-0.078c-0.153-0.051-0.274-0.127-0.362-0.23l-8.646-11.264v10.604 c0,0.278-0.093,0.51-0.275,0.693c-0.184,0.184-0.414,0.275-0.692,0.275s-0.507-0.092-0.683-0.275s-0.264-0.415-0.264-0.693V34.63 c0-0.308,0.098-0.562,0.297-0.759c0.197-0.198,0.442-0.297,0.736-0.297c0.176,0,0.344,0.033,0.506,0.099 c0.161,0.066,0.286,0.158,0.375,0.275l8.623,11.286V34.542c0-0.278,0.092-0.509,0.274-0.692c0.184-0.184,0.414-0.275,0.692-0.275 C159.09,33.574,159.318,33.666,159.494,33.85z"/>
</svg>
