<svg xmlns="http://www.w3.org/2000/svg" width="111" height="82" viewBox="0.5 82.5 111 82">
    <path fill="none" stroke="#343434" stroke-width="2" stroke-miterlimit="10" d="M104.5,114.5h6l0.07,26H1.5v-26h7"/>
    <path fill="#343434" d="M23.78,118.05c0-0.38-0.09-0.69-0.28-0.93c-0.19-0.24-0.44-0.431-0.76-0.58	c-0.32-0.149-0.68-0.271-1.08-0.37c-0.4-0.09-0.82-0.18-1.26-0.27c-0.58-0.131-1.14-0.28-1.67-0.461c-0.53-0.18-1-0.42-1.4-0.729	s-0.73-0.71-0.97-1.181c-0.24-0.469-0.36-1.079-0.36-1.799c0-0.791,0.14-1.48,0.42-2.07c0.28-0.59,0.65-1.07,1.13-1.46	s1.03-0.671,1.67-0.86c0.64-0.189,1.36-0.29,2.16-0.29c0.8,0,1.61,0.08,2.41,0.24s1.5,0.36,2.09,0.61v2.359	c-0.78-0.31-1.53-0.529-2.24-0.67c-0.72-0.14-1.39-0.21-2.02-0.21c-0.91,0-1.6,0.17-2.09,0.49c-0.49,0.33-0.74,0.819-0.74,1.479	c0,0.381,0.08,0.7,0.24,0.94c0.16,0.25,0.38,0.45,0.66,0.61c0.28,0.16,0.6,0.289,0.95,0.39c0.36,0.101,0.74,0.19,1.15,0.271	c0.64,0.129,1.24,0.289,1.83,0.469c0.58,0.181,1.09,0.421,1.54,0.74c0.45,0.32,0.8,0.721,1.07,1.23c0.26,0.51,0.39,1.15,0.39,1.939	c0,0.811-0.15,1.511-0.45,2.101c-0.3,0.59-0.72,1.08-1.27,1.46c-0.55,0.391-1.22,0.67-2,0.859c-0.78,0.19-1.65,0.281-2.58,0.281	c-0.82,0-1.62-0.08-2.41-0.24s-1.45-0.391-1.97-0.68v-2.32c0.74,0.32,1.46,0.56,2.17,0.699c0.7,0.15,1.43,0.221,2.18,0.221	c0.43,0,0.86-0.041,1.28-0.11c0.42-0.069,0.8-0.19,1.13-0.37c0.33-0.17,0.6-0.41,0.8-0.699C23.7,118.85,23.78,118.48,23.78,118.05z"/>
    <path fill="#343434" d="M37.73,116.54c-0.25,0-0.49,0-0.73-0.011c-0.24-0.01-0.46-0.02-0.67-0.039v5.869h-2.75V107.33h4.33	c0.73,0,1.36,0.029,1.9,0.1c0.54,0.061,1.03,0.16,1.45,0.291c1.03,0.309,1.82,0.819,2.37,1.5c0.55,0.68,0.83,1.559,0.83,2.629	c0,0.73-0.15,1.381-0.45,1.961c-0.3,0.58-0.74,1.069-1.31,1.479c-0.57,0.41-1.28,0.71-2.11,0.931	C39.76,116.439,38.81,116.54,37.73,116.54z M36.33,114.17c0.16,0.02,0.36,0.04,0.6,0.051c0.24,0.01,0.5,0.02,0.76,0.02	c0.74,0,1.36-0.061,1.86-0.18c0.5-0.121,0.91-0.291,1.21-0.5c0.31-0.211,0.53-0.471,0.66-0.781c0.13-0.299,0.2-0.629,0.2-0.989	c0-0.44-0.1-0.819-0.3-1.14c-0.2-0.32-0.55-0.57-1.06-0.75c-0.26-0.09-0.59-0.16-0.97-0.2c-0.39-0.04-0.86-0.06-1.42-0.06h-1.55	v4.529H36.33z"/>
    <path fill="#343434" d="M58.109,118.529H52.45l-1.47,3.83h-2.93l5.96-15.029h2.52l5.961,15.029h-2.91L58.109,118.529L58.109,118.529	z M55.25,110.95c-0.53,1.569-0.99,2.89-1.41,3.94l-0.51,1.34h3.88l-0.51-1.34c-0.41-1.07-0.88-2.381-1.41-3.94H55.25L55.25,110.95z"/>
    <path fill="#343434" d="M79.65,111.85c0,1.051-0.291,1.94-0.871,2.67c-0.579,0.73-1.479,1.271-2.689,1.621v0.039l4.471,6.18H77.26	l-4.09-5.819h-1.891v5.819h-2.75V107.33h4.57c0.76,0,1.461,0.04,2.11,0.13s1.21,0.22,1.67,0.39c0.88,0.34,1.56,0.84,2.04,1.5	C79.41,110.01,79.65,110.85,79.65,111.85z M72.641,114.24c0.629,0,1.159-0.03,1.6-0.08c0.439-0.061,0.81-0.141,1.109-0.25	c0.551-0.21,0.94-0.5,1.15-0.86s0.32-0.78,0.32-1.25c0-0.399-0.08-0.76-0.25-1.069c-0.17-0.311-0.461-0.561-0.86-0.74	c-0.26-0.12-0.59-0.211-0.989-0.26c-0.4-0.061-0.891-0.08-1.471-0.08h-1.96v4.609h1.351V114.24z"/>
    <path fill="#343434" d="M86.88,122.359V107.33h2.75v6.84h0.04l5.67-6.84h3.41l-6.25,7.449l6.779,7.58H95.75l-6.08-6.779h-0.04v6.779	H86.88z"/>
    <path fill="#858585" d="M31.32,131.65h-0.84v-3.871H29v-0.699h3.79v0.699h-1.47V131.65z"/>
    <path fill="#858585" d="M35.26,130.95h2.25v0.7h-3.09v-4.57h2.96v0.699h-2.13v1.181h1.83v0.7h-1.83v1.29H35.26z"/>
    <path fill="#858585" d="M41.6,127.7c-0.23,0-0.44,0.04-0.63,0.11c-0.19,0.069-0.36,0.18-0.5,0.33c-0.14,0.139-0.25,0.319-0.32,0.529	c-0.07,0.21-0.12,0.45-0.12,0.721c0,0.27,0.04,0.5,0.11,0.709c0.07,0.2,0.17,0.381,0.3,0.51c0.13,0.131,0.29,0.24,0.48,0.311	s0.41,0.1,0.65,0.1c0.17,0,0.35-0.01,0.53-0.039c0.18-0.03,0.35-0.07,0.51-0.121v0.721c-0.16,0.05-0.33,0.08-0.52,0.109	c-0.18,0.031-0.38,0.041-0.57,0.041c-0.39,0-0.73-0.061-1.02-0.17c-0.29-0.11-0.54-0.271-0.74-0.471	c-0.2-0.199-0.34-0.439-0.44-0.72c-0.1-0.28-0.15-0.591-0.15-0.931c0-0.35,0.05-0.67,0.16-0.969c0.11-0.301,0.26-0.561,0.46-0.781	c0.2-0.219,0.45-0.39,0.75-0.52s0.64-0.189,1.02-0.189c0.19,0,0.38,0.01,0.55,0.039c0.17,0.03,0.33,0.061,0.47,0.11v0.71	c-0.18-0.061-0.35-0.1-0.51-0.119C41.9,127.71,41.75,127.7,41.6,127.7z"/>
    <path fill="#858585" d="M45.28,128.96h2.12v-1.88h0.84v4.57H47.4v-1.99h-2.12v1.99h-0.84v-4.57h0.84V128.96z"/>
    <path fill="#858585" d="M52.7,129.21c0.33,0.47,0.59,0.88,0.8,1.24h0.02c-0.03-0.601-0.04-1.03-0.04-1.3v-2.07h0.84v4.57h-0.88	l-1.49-2.11c-0.26-0.37-0.53-0.79-0.81-1.271h-0.02c0.03,0.561,0.04,0.99,0.04,1.301v2.07h-0.84v-4.57h0.88L52.7,129.21L52.7,129.21	z"/>
    <path fill="#858585" d="M60.641,129.37c0,0.351-0.051,0.67-0.15,0.96s-0.24,0.54-0.43,0.75c-0.19,0.21-0.42,0.37-0.701,0.49	c-0.279,0.119-0.59,0.18-0.949,0.18c-0.36,0-0.67-0.061-0.95-0.18c-0.28-0.12-0.51-0.28-0.7-0.49c-0.189-0.21-0.33-0.46-0.43-0.75	s-0.15-0.609-0.15-0.96s0.051-0.67,0.15-0.96s0.24-0.54,0.43-0.75c0.19-0.21,0.42-0.37,0.7-0.49s0.59-0.17,0.95-0.17	c0.359,0,0.67,0.061,0.949,0.17c0.281,0.12,0.511,0.28,0.701,0.49c0.189,0.21,0.33,0.46,0.43,0.75S60.641,129.02,60.641,129.37z M59.77,129.37c0-0.28-0.029-0.521-0.1-0.729c-0.07-0.211-0.16-0.381-0.279-0.521c-0.121-0.14-0.261-0.24-0.431-0.31	c-0.17-0.07-0.351-0.101-0.55-0.101c-0.2,0-0.381,0.03-0.551,0.101c-0.17,0.069-0.31,0.17-0.43,0.31	c-0.119,0.14-0.22,0.31-0.279,0.521c-0.07,0.209-0.101,0.449-0.101,0.729s0.03,0.521,0.101,0.729c0.07,0.211,0.16,0.381,0.279,0.521	c0.12,0.14,0.26,0.239,0.43,0.31s0.351,0.1,0.551,0.1c0.199,0,0.38-0.039,0.55-0.1c0.17-0.07,0.31-0.17,0.431-0.31	c0.119-0.14,0.219-0.31,0.279-0.521C59.74,129.891,59.77,129.641,59.77,129.37z"/>
    <path fill="#858585" d="M63.34,127.08v3.87h2.141v0.7H62.5v-4.57H63.34z"/>
    <path fill="#858585" d="M71.23,129.37c0,0.351-0.051,0.67-0.15,0.96s-0.24,0.54-0.43,0.75c-0.19,0.21-0.42,0.37-0.7,0.49	c-0.28,0.119-0.591,0.18-0.95,0.18c-0.35,0-0.67-0.061-0.95-0.18c-0.28-0.12-0.51-0.28-0.7-0.49c-0.189-0.21-0.34-0.46-0.439-0.75	s-0.15-0.609-0.15-0.96s0.051-0.67,0.15-0.96s0.24-0.54,0.439-0.75c0.19-0.21,0.42-0.37,0.7-0.49S68.641,127,69,127	c0.35,0,0.67,0.061,0.95,0.17c0.28,0.12,0.51,0.28,0.7,0.49c0.189,0.21,0.33,0.46,0.43,0.75S71.23,129.02,71.23,129.37z M70.359,129.37c0-0.28-0.029-0.521-0.1-0.729c-0.07-0.211-0.16-0.381-0.279-0.521c-0.121-0.14-0.26-0.24-0.431-0.31	c-0.17-0.07-0.35-0.101-0.55-0.101s-0.38,0.03-0.55,0.101c-0.171,0.069-0.31,0.17-0.431,0.31c-0.119,0.14-0.22,0.31-0.279,0.521	c-0.07,0.209-0.1,0.449-0.1,0.729s0.029,0.521,0.1,0.729c0.07,0.211,0.16,0.381,0.279,0.521c0.121,0.14,0.26,0.239,0.431,0.31	c0.17,0.07,0.35,0.1,0.55,0.1s0.38-0.039,0.55-0.1c0.171-0.07,0.31-0.17,0.431-0.31c0.119-0.14,0.209-0.31,0.279-0.521	C70.33,129.891,70.359,129.641,70.359,129.37z"/>
    <path fill="#858585" d="M75.939,129.91H74.91v-0.7h1.859v2.31c-0.069,0.03-0.16,0.051-0.26,0.08c-0.109,0.03-0.22,0.051-0.359,0.07	c-0.141,0.02-0.271,0.04-0.41,0.051c-0.141,0.01-0.28,0.02-0.41,0.02c-0.41,0-0.77-0.061-1.08-0.17	c-0.311-0.11-0.561-0.271-0.77-0.471c-0.201-0.199-0.36-0.439-0.461-0.72c-0.1-0.28-0.149-0.58-0.149-0.92	c0-0.239,0.03-0.46,0.08-0.681c0.05-0.209,0.13-0.409,0.239-0.6c0.11-0.189,0.23-0.35,0.381-0.5s0.32-0.279,0.51-0.38	c0.189-0.11,0.4-0.19,0.63-0.239c0.229-0.051,0.47-0.08,0.729-0.08c0.23,0,0.451,0.02,0.66,0.049c0.211,0.031,0.381,0.07,0.51,0.121	v0.709c-0.18-0.06-0.359-0.1-0.539-0.129c-0.18-0.03-0.36-0.041-0.551-0.041c-0.25,0-0.479,0.041-0.699,0.11	c-0.221,0.07-0.4,0.181-0.561,0.33c-0.16,0.14-0.279,0.32-0.369,0.54c-0.091,0.21-0.141,0.46-0.141,0.73	c0,0.539,0.141,0.949,0.42,1.209c0.28,0.271,0.68,0.4,1.189,0.4c0.101,0,0.19,0,0.301-0.02c0.1-0.01,0.189-0.02,0.27-0.04v-1.04	H75.939z"/>
    <path fill="#858585" d="M80.46,129.05l1.22-1.97h0.93l-1.729,2.73v1.84h-0.84v-1.84l-1.729-2.73h0.93L80.46,129.05z"/>
</svg>
