<svg xmlns="http://www.w3.org/2000/svg" width="64" height="64" viewBox="0 0 64 64">
  <g fill="none">
    <circle cx="32" cy="32" r="32" fill="#FFF9E4"/>
    <path fill="#FAE193" d="M42.4593007,38.08 L47.36,40.6755556 C48.3100071,41.0749222 48.3137255,42.1231442 47.36,42.5244444 L34.56,49.3037037 C33.0097649,50.0812037 30.9939535,50.0831373 29.44,49.3037037 L16.64,42.5244444 C15.6899929,42.1250778 15.6862745,41.0768558 16.64,40.6755556 L21.5406993,38.08 L29.44,42.2637037 C30.9939535,43.0431373 33.0097649,43.0412037 34.56,42.2637037 L42.4593007,38.08 Z"/>
    <path fill="#EDCB5E" d="M42.4593007,28.48 L47.36,31.0755556 C48.3100071,31.4749222 48.3137255,32.5231442 47.36,32.9244444 L34.56,39.7037037 C33.0097649,40.4812037 30.9939535,40.4831373 29.44,39.7037037 L16.64,32.9244444 C15.6899929,32.5250778 15.6862745,31.4768558 16.64,31.0755556 L21.5406993,28.48 L29.44,32.6637037 C30.9939535,33.4431373 33.0097649,33.4412037 34.56,32.6637037 L42.4593007,28.48 Z"/>
    <path fill="#E9BC29" d="M29.44,14.6962963 C30.9902351,13.9187963 33.0060465,13.9168627 34.56,14.6962963 L47.36,21.4755556 C48.3100071,21.8749222 48.3137255,22.9231442 47.36,23.3244444 L34.56,30.1037037 C33.0097649,30.8812037 30.9939535,30.8831373 29.44,30.1037037 L16.64,23.3244444 C15.6899929,22.9250778 15.6862745,21.8768558 16.64,21.4755556 L29.44,14.6962963 Z"/>
  </g>
</svg>
